<?xml version="1.0" encoding="UTF-8"?>
<svg width="156px" height="50px" viewBox="0 0 156 50" version="1.1" xmlns="http://www.w3.org/2000/svg" xmlns:xlink="http://www.w3.org/1999/xlink">
    <title>logos/oeawards</title>
    <defs>
        <rect id="path-1" x="1" y="1" width="48" height="48" rx="1.7"></rect>
    </defs>
    <g id="logos/oeawards" stroke="none" stroke-width="1" fill="none" fill-rule="evenodd">
        <path d="M65.5854091,12.5446553 C67.3063095,13.5570612 68.3622649,15.3867462 68.3822774,17.3612634 L68.3793566,17.6087838 C68.4053119,19.091578 67.8209746,20.520692 66.7614596,21.5656757 C65.1523247,23.2287741 62.6864812,23.7525879 60.533174,22.8887369 C58.3798669,22.024886 56.9720747,19.94707 56.9773394,17.6405405 L56.9773394,17.6087838 C56.9075892,15.5406388 57.9786823,13.5992448 59.7712869,12.5446553 C61.5638915,11.4900658 63.7928046,11.4900658 65.5854091,12.5446553 Z M148.813777,12.0195946 C150.42837,11.9679197 152.010829,12.4753527 153.290172,13.455 L151.780988,15.5763514 C150.898953,14.9129434 149.830232,14.5398808 148.724249,14.5093243 C148.439665,14.4913027 148.156322,14.5599945 147.912103,14.7062162 C147.765613,14.7951935 147.667076,14.942199 147.638966,15.1071613 L147.63073,15.207973 C147.629842,15.4613198 147.780632,15.6909595 148.014421,15.7922973 C148.493326,16.0100389 148.998379,16.1658603 149.517211,16.2559459 C150.606649,16.4455914 151.646329,16.8517215 152.573949,17.45 C153.256407,17.9626227 153.6356,18.7802066 153.584335,19.6285135 L153.584335,19.6602703 C153.627698,20.6628427 153.182651,21.6248851 152.388498,22.2452703 C151.466544,22.9252521 150.338624,23.2725289 149.191073,23.2297297 C147.317627,23.2989356 145.488091,22.6561398 144.075194,21.4322973 L145.763434,19.4189189 C146.757769,20.2376436 148.00819,20.6867995 149.299786,20.6891892 C150.131116,20.6891892 150.546781,20.4478378 150.546781,19.9524324 L150.546781,19.9206757 C150.541306,19.6757506 150.394491,19.4557891 150.169485,19.3554054 C149.705051,19.1321424 149.212497,18.9719229 148.705065,18.8790541 C148.06558,18.7266216 147.496438,18.5741892 147.061588,18.4281081 C146.615561,18.2710733 146.186981,18.0688829 145.782618,17.8247297 C145.404571,17.5942064 145.095468,17.2674702 144.887339,16.8783784 C144.709494,16.5063785 144.610018,16.1029987 144.59413,15.6929173 L144.593176,15.4874324 C144.572696,14.5239998 144.993781,13.6034469 145.737854,12.985 C146.612398,12.3053238 147.704801,11.9624635 148.813777,12.0195946 Z M102.022661,12.1593243 L104.120172,18.4598649 L106.038627,12.1910811 L109.165709,12.1910811 L105.520644,23.1027027 L102.841202,23.1027027 L100.660558,16.8783784 L98.4799145,23.1154054 L95.8452364,23.1027027 L92.200172,12.1910811 L95.3975969,12.1910811 L97.3160519,18.4598649 L99.4199575,12.1593243 L102.022661,12.1593243 Z M141.702704,13.7027027 C142.799496,14.6898757 143.401039,16.1079507 143.346181,17.577027 L143.346181,17.6087838 C143.395715,19.096843 142.785622,20.5316043 141.677125,21.5339189 C140.413601,22.6002542 138.785878,23.1436853 137.130387,23.0518919 L132.986524,23.0201351 L132.986524,12.2228378 L137.194335,12.2228378 C138.831714,12.1303418 140.443294,12.6593402 141.702704,13.7027027 Z M79.0395712,12.2228378 L79.0395712,13.8932432 L72.8685411,13.8932432 L72.8685411,16.7132432 L78.3361377,16.7132432 L78.3361377,18.4090541 L72.8685411,18.4090541 L72.8685411,21.3243243 L79.1163094,21.3243243 L79.1163094,23.0201351 L70.9500862,23.0201351 L70.9500862,12.2228378 L79.0395712,12.2228378 Z M88.4847643,12.1148649 L93.1274253,23.0201351 L89.8852364,23.0201351 L89.0922751,21.1147297 L84.8844639,21.1147297 L84.1106871,23.0201351 L80.9260519,23.0201351 L85.5751077,12.1148649 L88.4847643,12.1148649 Z M115.771588,12.1148649 L120.414249,23.0201351 L117.17206,23.0201351 L116.379099,21.1147297 L112.171288,21.1147297 L111.397511,23.0201351 L108.219271,23.0201351 L112.861932,12.1148649 L115.771588,12.1148649 Z M126.78352,12.2228378 C128.386495,12.2228378 129.571674,12.6145045 130.339056,13.3978378 C130.953906,14.0209566 131.299695,14.8542198 131.309316,15.7210686 L131.304678,15.9383784 C131.370389,17.4115758 130.459434,18.754537 129.060086,19.2474324 L131.66279,23.0201351 L128.171202,23.0201351 L125.977769,19.7428378 L124.654035,19.7428378 L124.654035,23.0201351 L121.629271,23.0201351 L121.629271,12.2228378 L126.78352,12.2228378 Z M62.6815454,13.7535135 C61.6834617,13.7247115 60.7220145,14.1279976 60.0468673,14.8586486 C59.4047009,15.5358135 59.0359567,16.4207294 59.0051349,17.3451864 L59.0045068,17.577027 C58.9676425,18.5979199 59.3402407,19.5916095 60.0404725,20.3398649 C60.7353266,21.0507495 61.6903808,21.4519123 62.6879403,21.4519123 C63.6854998,21.4519123 64.640554,21.0507495 65.3354081,20.3398649 C66.0310163,19.6130223 66.4101325,18.6431535 66.3905583,17.6405405 L66.3905583,17.6087838 C66.4127235,16.5974595 66.0364159,15.6175106 65.341803,14.8777027 C64.6617391,14.1367237 63.6906717,13.7263636 62.6815454,13.7535135 Z M137.239099,14.8777027 L136.011288,14.8777027 L136.011288,20.3589189 L137.239099,20.3589189 C138.033074,20.4015773 138.814046,20.1452923 139.426138,19.6412162 C139.990333,19.1240886 140.290831,18.3826173 140.244678,17.6214865 L140.244678,17.5897297 C140.279223,16.8416542 139.979706,16.1165478 139.426138,15.6081081 C138.817202,15.0972155 138.035115,14.8360218 137.239099,14.8777027 Z M87.0011592,15.7033784 L85.7669532,18.7837838 L88.2161806,18.7837838 L87.0011592,15.7033784 Z M114.307168,15.7033784 L113.072962,18.7837838 L115.522189,18.7837838 L114.307168,15.7033784 Z M126.630043,14.7887838 L124.654035,14.7887838 L124.654035,17.3928378 L126.642833,17.3928378 C127.069266,17.4182303 127.491511,17.2971279 127.83867,17.0498649 C128.125523,16.8233084 128.284997,16.473433 128.267125,16.1098649 L128.267125,16.0781081 C128.292481,15.7077747 128.132146,15.348881 127.83867,15.1190541 C127.484395,14.8776557 127.058788,14.7613541 126.630043,14.7887838 Z" id="type1" fill="#333333" fill-rule="nonzero"></path>
        <path d="M67.9072466,30 C69.8474961,30 71.4322296,31.4700224 71.5324515,33.3197314 L71.5374835,33.5059275 C71.5451936,34.4185467 71.1688154,35.2950635 70.4946154,35.9345792 C69.4699596,36.9582408 67.9045345,37.2788834 66.5378338,36.7450381 C65.2332559,36.2354585 64.3589708,35.0446551 64.2824713,33.6991396 L64.2770096,33.5059275 C64.2770096,31.5696572 65.9023221,30 67.9072466,30 Z M101.292225,30.0446209 C101.816357,30.0303838 102.337827,30.1215553 102.823525,30.3123463 C103.261153,30.5032961 103.660964,30.7664616 104.005002,31.0900247 L103.226152,31.956945 C102.714566,31.4488233 102.019073,31.1518232 101.285625,31.1282712 C100.663371,31.1155238 100.066061,31.3644094 99.6487181,31.8103335 C99.25489,32.2194241 99.0237076,32.747493 98.9918584,33.3013558 L98.9886751,33.4868043 C98.9743716,34.1110982 99.2109221,34.7164917 99.6487181,35.1760239 C100.06093,35.6302515 100.660384,35.8846995 101.285625,35.870835 C101.647871,35.8757165 102.006594,35.8016353 102.335093,35.654105 C102.678819,35.4881762 102.994769,35.2732954 103.272355,35.0166636 L104.064406,35.7815932 C103.711706,36.1508554 103.290912,36.453483 102.823525,36.6740112 C102.325089,36.8767185 101.786361,36.9703255 101.246022,36.948111 C100.300621,36.9710605 99.3885165,36.6103887 98.7312583,35.9537024 C98.1148856,35.3545677 97.7567096,34.5552346 97.723017,33.7163734 L97.7213923,33.5059275 C97.7000623,32.5895697 98.0644542,31.7040341 98.7312583,31.0517783 C99.3999909,30.3827836 100.329809,30.0171121 101.292225,30.0446209 Z M143.541583,30.0446209 C144.063576,30.0303375 144.582902,30.1215272 145.066282,30.3123463 C145.505988,30.5031089 145.908001,30.7662539 146.25436,31.0900247 L145.468908,31.956945 C144.957323,31.4488233 144.26183,31.1518232 143.528382,31.1282712 C142.908068,31.1156863 142.312853,31.3647034 141.898075,31.8103335 C141.504247,32.2194241 141.273065,32.747493 141.241216,33.3013558 L141.238032,33.4868043 C141.223729,34.1110982 141.460279,34.7164917 141.898075,35.1760239 C142.307684,35.6299786 142.905064,35.8845726 143.528382,35.870835 C143.890628,35.8757165 144.249351,35.8016353 144.57785,35.654105 C144.9237,35.4883907 145.241859,35.2735204 145.521712,35.0166636 L146.307163,35.7815932 C145.956835,36.1506628 145.538236,36.4533208 145.072883,36.6740112 C144.572103,36.876632 144.03125,36.9702165 143.488779,36.948111 C142.543378,36.9710605 141.631273,36.6103887 140.974015,35.9537024 C140.357642,35.3545677 139.999466,34.5552346 139.965774,33.7163734 L139.964149,33.5059275 C139.942819,32.5895697 140.307211,31.7040341 140.974015,31.0517783 C141.645251,30.3824595 142.577191,30.0168956 143.541583,30.0446209 Z M113.760439,30.1402371 L113.760439,35.7815932 L117.403877,35.7815932 L117.403877,36.8524948 L112.54596,36.8333715 L112.54596,30.1402371 L113.760439,30.1402371 Z M120.077051,30.1402371 L120.077051,35.7815932 L123.720489,35.7815932 L123.720489,36.8524948 L118.862572,36.8333715 L118.862572,30.1402371 L120.077051,30.1402371 Z M78.3689293,30.8095505 C78.7109936,31.1547097 78.9125097,31.6050787 78.9407591,32.0782116 L78.9431668,32.2565425 C78.9551507,32.7184421 78.7986157,33.16971 78.500938,33.5314252 C78.1823615,33.8832407 77.7614581,34.134243 77.2930591,34.251734 L79.160981,36.8014994 L77.7286876,36.8014994 L76.0455777,34.5067105 L74.5208782,34.5067105 L74.5208782,36.8397459 L73.2997985,36.8333715 L73.2997985,30.1402371 L76.3888001,30.1402371 C77.1144542,30.1021319 77.8262638,30.3427343 78.3689293,30.8095505 Z M63.1417356,30.1402371 L63.1417356,31.2111386 L59.1814771,31.2111386 L59.1814771,33.0405953 L62.673105,33.0405953 L62.673105,34.1114969 L59.2210797,34.1114969 L59.2210797,36.8333715 L58,36.8333715 L58,30.1402371 L63.1417356,30.1402371 Z M89.0616272,30.1402371 L89.0616272,31.1920154 L85.1409713,31.1920154 L85.1409713,32.9322303 L88.6193983,32.9322303 L88.6193983,33.9840086 L85.1409713,33.9840086 L85.1409713,35.7815932 L89.1012298,35.7815932 L89.1012298,36.8333715 L83.926492,36.8333715 L83.926492,30.1402371 L89.0616272,30.1402371 Z M91.9262141,30.1402371 L93.6489266,32.5433911 L95.3848399,30.1402371 L96.8039325,30.1402371 L94.3881748,33.4103113 L96.9029389,36.8333715 L95.4706455,36.8333715 L93.6489266,34.283606 L91.8140068,36.8333715 L90.3949142,36.8333715 L92.9162787,33.4294346 L90.4939207,30.1402371 L91.9262141,30.1402371 Z M110.717641,30.1402371 L110.717641,31.1920154 L106.796985,31.1920154 L106.796985,32.9322303 L110.268811,32.9322303 L110.268811,33.9840086 L106.796985,33.9840086 L106.796985,35.7815932 L110.757243,35.7815932 L110.757243,36.8333715 L105.575905,36.8333715 L105.575905,30.1402371 L110.717641,30.1402371 Z M130.32752,30.1402371 L130.32752,31.1920154 L126.406864,31.1920154 L126.406864,32.9322303 L129.878691,32.9322303 L129.878691,33.9840086 L126.406864,33.9840086 L126.406864,35.7815932 L130.367123,35.7815932 L130.367123,36.8333715 L125.185785,36.8333715 L125.185785,30.1402371 L130.32752,30.1402371 Z M133.271312,30.1402371 L136.987355,34.7680615 L136.987355,30.1402371 L138.182033,30.1402371 L138.182033,36.8333715 L137.165567,36.8333715 L133.343917,32.0716845 L133.343917,36.8333715 L132.142639,36.8333715 L132.142639,30.1402371 L133.271312,30.1402371 Z M152.960397,30.1402371 L152.960397,31.1920154 L149.039742,31.1920154 L149.039742,32.9322303 L152.511568,32.9322303 L152.511568,33.9840086 L149.039742,33.9840086 L149.039742,35.7815932 L153,35.7815932 L153,36.8333715 L147.818662,36.8333715 L147.818662,30.1402371 L152.960397,30.1402371 Z M67.9072466,31.1218968 C67.2708474,31.1054072 66.6578001,31.353838 66.2241367,31.8039591 C65.8303087,32.2130497 65.5991262,32.7411186 65.567277,33.2949814 L65.5640937,33.4804299 C65.5430947,34.1077133 65.7804478,34.7174532 66.2241367,35.1760239 C66.6645893,35.6177785 67.272243,35.8673785 67.9072466,35.8673785 C68.5422502,35.8673785 69.1499038,35.6177785 69.5903564,35.1760239 C69.9847294,34.7672607 70.2160451,34.2390244 70.2474032,33.6850398 L70.2503995,33.4995531 C70.2693257,32.8764047 70.0320181,32.2713654 69.5903564,31.8167079 C69.1616676,31.3583505 68.5465435,31.1044188 67.9072466,31.1218968 Z M76.2897936,31.2302618 L74.5208782,31.2302618 L74.5208782,33.4613067 L76.3029945,33.4613067 C76.6749906,33.480686 77.0420852,33.3722964 77.3392621,33.1553348 C77.5625482,32.9821759 77.7008548,32.7292295 77.7252774,32.4570561 L77.7286876,32.3394098 C77.7471398,32.0228924 77.6072071,31.7170468 77.352463,31.5171105 C77.0416777,31.3088918 76.6673286,31.2078429 76.2897936,31.2302618 Z" id="type2" fill="#333333" fill-rule="nonzero"></path>
        <g id="logos/isotype">
            <mask id="mask-2" fill="white">
                <use xlink:href="#path-1"></use>
            </mask>
            <use id="Mask" fill-opacity="0" fill="#FFFFFF" fill-rule="nonzero" xlink:href="#path-1"></use>
            <rect id="background-color" fill="#F2F2F2" fill-rule="nonzero" mask="url(#mask-2)" x="1" y="1" width="48" height="48" rx="1.7"></rect>
            <rect id="Color-stripe" fill="#FFE525" fill-rule="nonzero" mask="url(#mask-2)" x="1" y="41" width="48" height="8"></rect>
            <g id="Group" mask="url(#mask-2)">
                <g transform="translate(-7.000000, 2.000000)" id="logos/isotype">
                    <g transform="translate(0.000000, 1.762130)" fill="#0D59F2" fill-rule="nonzero" id="Icon">
                        <g>
                            <path d="M42.9007996,2.74402145 C45.9154555,4.4180386 48.4841195,6.78936836 50.3913638,9.65913284 C50.456904,9.76564972 50.4259152,9.90487686 50.3213585,9.97365465 L47.4161397,11.8476804 C47.3647897,11.881711 47.3018085,11.8934861 47.2416048,11.8803118 C47.1814012,11.8671375 47.1291266,11.8301411 47.0967406,11.7777867 C43.7754552,6.79147418 38.1366443,3.8403942 32.1398453,3.95007337 L31.92668,3.95544133 C29.9896635,4.22803948 28.1140064,5.86236078 26.5895711,8.62820025 C26.3827106,9.00362328 26.1859941,9.39317201 25.9997047,9.79571002 L26.2264187,9.78144688 C28.2259443,9.66786956 30.2648479,9.60671254 32.2774995,9.60671254 C33.9138727,9.60671254 35.5721226,9.64602776 37.2172465,9.72465822 C37.2549258,9.72676637 37.2900218,9.74445231 37.3140996,9.77346538 C37.3381773,9.80247845 37.3490597,9.84019521 37.3441311,9.87755076 L37.3441311,9.87755076 L36.9766034,13.1188727 C36.9562044,13.3149648 36.7890079,13.4629255 36.5915744,13.4596047 C35.4014848,13.4333945 33.1525654,13.3897109 32.2774995,13.3897109 C30.3348532,13.3897109 28.3747055,13.4464996 26.4495605,13.5600769 C25.8412425,13.5954778 25.2333882,13.6364281 24.6260731,13.6829157 C24.2327042,15.1987247 23.9563736,16.8123617 23.8066096,18.4879343 C24.6215427,18.4200159 25.4366938,18.3616399 26.2526707,18.3128509 C28.2434456,18.1992736 30.2648479,18.1381165 32.2731241,18.1381165 C35.125839,18.1381165 38.0223072,18.2604306 40.888148,18.4919536 L41.246925,18.5225321 L42.0738623,18.5924258 L42.1351169,18.5924258 C43.9377527,18.7584234 45.7972677,18.9855781 47.6699088,19.2607847 L48.8162451,19.4224139 C49.2537781,19.4879393 49.691311,19.557833 50.128844,19.6320951 L50.155096,19.6320951 L52.1589969,19.9946689 L53.6816116,20.2218235 C53.7317638,20.2326378 53.7766474,20.2552839 53.8137221,20.2863494 L53.8478741,20.2917173 C53.8973333,20.3000442 53.9339891,20.3421312 53.9353814,20.3921895 L53.9353814,21.4755424 C53.9382232,32.6153081 45.3909548,41.8990233 34.2726497,42.8324467 C26.1547603,43.5167689 18.4314407,39.5577046 14.2201706,32.7620283 C11.7248174,33.2236249 9.24672542,33.7830842 6.79120491,34.4364618 C6.7214689,34.4563498 6.64753203,34.4231312 6.61619172,34.3578314 L5.01482111,31.1208778 C5.00063568,31.0903712 5.00016988,31.0552693 5.01354083,31.0243983 C5.02691178,30.9935272 5.05284744,30.9698239 5.08482639,30.9592485 C7.52224424,30.2920343 9.98177606,29.7143988 12.4584387,29.227166 C11.8216622,27.593062 11.3977123,25.9078833 11.1796524,24.2108612 C8.10061117,24.8740326 5.05035163,25.6825227 2.03959703,26.6345737 C1.96226862,26.6614101 1.87688126,26.6280509 1.83833187,26.5559432 L0.0488220851,23.432567 C0.0342054391,23.4050411 0.0320596909,23.3725929 0.0429247827,23.3433873 C0.0537898745,23.3141817 0.076631292,23.2909996 0.105701369,23.2796744 C1.16890645,22.9323899 2.25180051,22.5998486 3.34146266,22.2820506 L4.43290228,21.9691669 L5.02357177,21.8075376 C7.01379957,21.2640065 9.01868447,20.7800113 11.0355308,20.3559956 C11.1223971,18.7100447 11.3994579,17.0780725 11.8605044,15.4949338 C10.1620899,15.8471235 8.47141534,16.2454416 6.79120491,16.6878215 C6.75648375,16.6960194 6.72058006,16.6798885 6.70369831,16.6485063 L6.70369831,16.6485063 L5.0279471,13.3198172 C5.01936466,13.3032395 5.01883289,13.2836566 5.02650307,13.2666389 C5.03417324,13.2496212 5.04920591,13.2370312 5.06732507,13.23245 C7.87819227,12.4709969 10.7179788,11.8279873 13.5791312,11.304653 C14.5524025,9.50482497 15.7951865,7.82397651 17.2963711,6.32607536 C24.0736723,-0.439991805 34.5218928,-1.90169557 42.9007996,2.74402145 Z M32.5662712,31.0640891 C30.531743,31.0640891 28.4709628,31.1296145 26.4408099,31.2519285 C26.0482463,31.2760184 25.6558825,31.3024132 25.2637387,31.3311096 C25.6402693,32.3889379 26.0805707,33.3800541 26.5808204,34.2879377 C28.2565716,37.3457886 30.3567298,39.0057648 32.4962659,39.0057648 C34.6358021,39.0057648 36.7403356,37.3283151 38.4160868,34.2879377 C38.9236776,33.3766706 39.369136,32.3805824 39.7491341,31.3159446 C37.3583017,31.1467475 34.9630864,31.0629376 32.5662712,31.0640891 Z M21.3923408,31.6923919 L20.5997148,31.7821397 C19.8946797,31.8669813 19.190625,31.9592996 18.4876695,32.0590751 C18.9659591,32.6906999 19.4904987,33.2923805 20.059301,33.860628 C21.106494,34.9067997 22.2672809,35.8032537 23.5097207,36.5409849 C23.4300663,36.403918 23.3510788,36.2643325 23.2730713,36.1226482 C22.5272942,34.7823883 21.8979573,33.2923681 21.3923408,31.6923919 Z M43.6188841,31.6627759 L43.477318,32.1010392 C42.9970777,33.5395615 42.4161941,34.8853483 41.7413373,36.1095431 C41.6679296,36.2432784 41.593654,36.3751426 41.5185283,36.5051235 L41.6144527,36.4459067 L41.6144527,36.4459067 C43.5343446,35.271979 45.1785563,33.7624886 46.4900945,32.0190002 C45.5350875,31.8857504 44.5776791,31.7674188 43.6188841,31.6627759 Z M19.920552,22.7283368 L19.0382435,22.8416388 C17.6969897,23.0208305 16.3595016,23.2270768 15.0266015,23.4602507 C15.2290483,25.2103227 15.6943684,26.9202451 16.4056611,28.5311961 C17.7585817,28.3171467 19.1158316,28.1315744 20.4765526,27.9728806 C20.1675465,26.2893282 19.980246,24.5284936 19.920552,22.7283368 Z M45.0901495,22.765526 L45.076475,23.151274 C45.0019368,24.799638 44.8191432,26.4114565 44.5343283,27.959758 C45.8742765,28.1117076 47.2122115,28.2912957 48.5466702,28.4966377 C49.2451416,26.9005694 49.7078567,25.194434 49.905711,23.4312038 C49.7411663,23.4022339 49.5752296,23.3737168 49.4069146,23.3451998 L48.1380691,23.201044 C47.5430242,23.1049401 46.9173521,23.0132046 46.1560448,22.908364 C45.7753911,22.8551573 45.4212309,22.8078288 45.0901495,22.765526 Z M32.3387541,21.9560618 C29.4475294,21.9565142 26.5611472,22.0816499 23.6875575,22.3302413 C23.7336258,24.1556339 23.925912,25.9282881 24.2533425,27.6036629 C24.9058655,27.5501692 25.5593103,27.504277 26.2132927,27.4645618 C28.3178262,27.333511 30.4529871,27.272354 32.5662712,27.272354 C35.3006391,27.2730326 38.0329224,27.3802678 40.7569004,27.5935789 C41.0804482,25.9355473 41.2704355,24.1771049 41.3181161,22.3643498 C38.3324912,22.0951738 35.336579,21.9595315 32.3387541,21.9560618 Z M20.6572077,14.0655539 L20.6069146,14.0722955 C19.1512544,14.2430382 17.6996864,14.4457297 16.253263,14.6802027 C15.8919687,15.5388573 15.6057182,16.4281335 15.3974781,17.338707 C15.2165818,18.0900621 15.0867893,18.8464585 15.0068171,19.6033471 C16.6610946,19.3199444 18.3227818,19.0785577 19.9897808,18.8774137 C20.1038918,17.2227046 20.3288118,15.608862 20.6572077,14.0655539 Z M23.5059319,6.39529325 L23.2584891,6.54519412 C21.5619113,7.58623998 20.0403207,8.91615469 18.7708889,10.4908801 C19.7698756,10.3583327 20.7706625,10.2416272 21.7731524,10.1394135 C22.2035415,8.9539612 22.7050148,7.83705299 23.2730713,6.80659479 C23.349747,6.66747077 23.4273741,6.53036529 23.5059319,6.39529325 Z" id="G"></path>
                        </g>
                    </g>
                </g>
            </g>
        </g>
    </g>
</svg>