<?xml version="1.0" encoding="UTF-8"?>
<svg width="324px" height="102px" viewBox="0 0 324 102" version="1.1" xmlns="http://www.w3.org/2000/svg" xmlns:xlink="http://www.w3.org/1999/xlink">
    <title>awards-logo</title>
    <defs>
        <rect id="path-1" x="2.12179487" y="2.12" width="101.846154" height="101.76" rx="1.7"></rect>
    </defs>
    <g id="Badges" stroke="none" stroke-width="1" fill="none" fill-rule="evenodd">
        <g id="Facebook-post" transform="translate(-447.000000, -42.000000)">
            <g id="logo/desktop/inverted" transform="translate(445.000000, 40.000000)">
                <path d="M139.158785,26.5946692 C142.867236,28.7745057 145.120375,32.7415416 145.093543,37.0023156 L145.086968,37.3306216 C145.14204,40.4741454 143.902196,43.503867 141.654123,45.7192324 C138.239868,49.245001 133.007854,50.3554863 128.438978,48.5241223 C123.870102,46.6927583 120.883056,42.2877885 120.894227,37.3979459 L120.894227,37.3306216 C120.746231,32.9461543 123.018871,28.830399 126.82241,26.5946692 C130.625949,24.3589395 135.355246,24.3589395 139.158785,26.5946692 Z M315.752309,25.4815405 C319.178144,25.3719898 322.535798,26.4477477 325.250301,28.5246 L322.048121,33.0218649 C320.176625,31.61544 317.909017,30.8245473 315.562349,30.7597676 C314.95852,30.7215617 314.357325,30.8671884 313.839142,31.1771784 C313.507597,31.3783857 313.291821,31.7195621 313.249678,32.0976084 L313.242126,32.2409027 C313.240241,32.7779979 313.560188,33.2648341 314.056239,33.4796703 C315.072379,33.9412825 316.143996,34.2716239 317.244851,34.4626054 C319.556416,34.8646538 321.762402,35.7256497 323.730622,36.994 C325.178659,38.08076 325.983228,39.814038 325.874455,41.6124486 L325.874455,41.679773 C325.966462,43.8052265 325.022164,45.8447564 323.337134,47.159973 C321.380936,48.6015344 318.987722,49.3377612 316.552854,49.247027 C312.577785,49.3937435 308.695886,48.0310163 305.698007,45.4364703 L309.280106,41.1681081 C311.389881,42.9038045 314.043019,43.856015 316.78352,43.8610811 C318.547433,43.8610811 319.429389,43.3494162 319.429389,42.2991568 L319.429389,42.2318324 C319.417772,41.7125913 319.106259,41.2462728 318.628844,41.0334595 C317.64341,40.560142 316.598311,40.2204766 315.521644,40.0235946 C314.164788,39.7004378 312.957186,39.3772811 312.034524,39.0675892 C311.088145,38.7346754 310.178788,38.3060318 309.320812,37.788427 C308.518674,37.2997175 307.862821,36.6070368 307.421214,35.7821622 C307.029887,34.9643134 306.817389,34.0749205 306.796069,33.172332 L306.79706,32.8333568 C306.753604,30.7908795 307.64706,28.8393074 309.225832,27.5282 C311.081435,26.0872864 313.39929,25.3604227 315.752309,25.4815405 Z M216.47116,25.7777676 L220.921647,39.1349135 L224.992215,25.8450919 L231.627241,25.8450919 L223.893162,48.9777297 L218.207935,48.9777297 L213.581056,35.7821622 L208.954178,49.0046595 L203.363931,48.9777297 L195.629852,25.8450919 L202.414132,25.8450919 L206.4847,39.1349135 L210.948756,25.7777676 L216.47116,25.7777676 Z M300.664071,29.0497297 C302.991239,31.1425366 304.26759,34.1488554 304.151191,37.2632973 L304.151191,37.3306216 C304.256292,40.4853071 302.9618,43.5270011 300.609797,45.6519081 C297.928858,47.9125389 294.475164,49.0646129 290.962551,48.8700108 L282.170125,48.8026865 L282.170125,25.9124162 L291.098237,25.9124162 C294.572419,25.7163246 297.99186,26.8378012 300.664071,29.0497297 Z M167.705757,25.9124162 L167.705757,29.4536757 L154.612097,29.4536757 L154.612097,35.4320757 L166.213215,35.4320757 L166.213215,39.0271946 L154.612097,39.0271946 L154.612097,45.2075676 L167.86858,45.2075676 L167.86858,48.8026865 L150.541529,48.8026865 L150.541529,25.9124162 L167.705757,25.9124162 Z M187.746519,25.6835135 L197.597293,48.8026865 L190.718034,48.8026865 L189.035532,44.763227 L180.10742,44.763227 L178.465624,48.8026865 L171.708482,48.8026865 L181.572825,25.6835135 L187.746519,25.6835135 Z M245.643562,25.6835135 L255.494337,48.8026865 L248.615077,48.8026865 L246.932576,44.763227 L238.004463,44.763227 L236.362668,48.8026865 L229.619094,48.8026865 L239.469868,25.6835135 L245.643562,25.6835135 Z M269.008622,25.9124162 C272.409807,25.9124162 274.924514,26.7427495 276.552741,28.4034162 C277.898742,29.7663648 278.637029,31.6035548 278.611216,33.5038897 L278.601593,33.7893622 C278.741017,36.9125407 276.808157,39.7596184 273.839029,40.8045568 L279.361433,48.8026865 L271.952999,48.8026865 L267.298983,41.8548162 L264.490292,41.8548162 L264.490292,48.8026865 L258.072363,48.8026865 L258.072363,25.9124162 L269.008622,25.9124162 Z M127.407135,31.5003351 C126.001334,32.9814989 125.213099,34.9315027 125.192736,36.9586894 L125.19546,37.2632973 C125.117242,39.4275901 125.907818,41.5342122 127.393567,43.1205135 C128.867904,44.6275889 130.894334,45.4780541 133.01095,45.4780541 C135.127567,45.4780541 137.153996,44.6275889 138.628334,43.1205135 C140.030475,41.6566526 140.826559,39.7278095 140.867053,37.7162005 L140.867146,37.3306216 C140.914176,35.1866142 140.115729,33.1091225 138.641902,31.5407297 C137.198946,29.9698543 135.138541,29.0998909 132.997382,29.1574486 C130.879653,29.0963884 128.839659,29.951355 127.407135,31.5003351 Z M291.193217,31.5407297 L288.588053,31.5407297 L288.588053,43.1609081 L291.193217,43.1609081 C292.877869,43.2513439 294.53493,42.7080197 295.833664,41.6393784 C297.03077,40.5430678 297.668365,38.9711486 297.57044,37.3575514 L297.57044,37.290227 C297.643736,35.704307 297.008222,34.1670813 295.833664,33.0891892 C294.541627,32.0060968 292.882198,31.4523663 291.193217,31.5407297 Z M184.598613,33.2911622 L181.979881,39.8216216 L187.17664,39.8216216 L184.598613,33.2911622 Z M242.536362,33.2911622 L239.91763,39.8216216 L245.114389,39.8216216 L242.536362,33.2911622 Z M268.682976,31.3522216 L264.490292,31.3522216 L264.490292,36.8728162 L268.710114,36.8728162 C269.614917,36.9266482 270.510834,36.6699111 271.247434,36.1457135 C271.856078,35.6654138 272.194449,34.923678 272.156528,34.1529135 L272.156528,34.0855892 C272.210328,33.3004823 271.870131,32.5396278 271.247434,32.0523946 C270.495735,31.54063 269.592685,31.2940708 268.682976,31.3522216 Z" id="type1" fill="#F2F2F2" fill-rule="nonzero"></path>
                <path d="M144.085248,63.6 C148.255874,63.6 151.652318,66.7984557 151.783908,70.7920178 L151.787866,71.0325664 C151.804225,72.9673189 151.005628,74.8255346 149.575114,76.1813079 C147.401004,78.3514706 144.079493,79.0312329 141.179635,77.8994808 C138.367651,76.8020242 136.497874,74.214162 136.387771,71.3060996 L136.382629,71.0325664 C136.382629,66.9276733 139.831209,63.6 144.085248,63.6 Z M218.170429,64.2621741 C219.098986,64.6669878 219.947301,65.2248985 220.677281,65.9108525 L219.024719,67.7487234 C217.939239,66.6715055 216.463546,66.0418652 214.90732,65.991935 C213.587024,65.9649105 212.319655,66.492548 211.434139,67.437907 C210.567568,68.3373002 210.072133,69.5079575 210.034653,70.7295549 L210.033663,70.9920251 C210.003314,72.3155281 210.505226,73.5989625 211.434139,74.5731708 C212.308768,75.5361333 213.580687,76.0755629 214.90732,76.0461703 C215.675932,76.0565191 216.437067,75.8994669 217.134076,75.5867025 C217.863392,75.2349334 218.533773,74.7793863 219.122752,74.2353268 L220.803324,75.8569777 C220.054967,76.6398134 219.162127,77.2813839 218.170429,77.7489037 C217.112849,78.1786433 215.969778,78.3770901 214.823291,78.3299952 C212.817344,78.3786483 210.882045,77.6140239 209.487477,76.2218491 C208.141516,74.914637 207.375819,73.1578855 207.343702,71.3228974 L207.344749,71.0325664 C207.299491,69.0898877 208.072656,67.2125523 209.487477,65.8297699 C210.906391,64.4115012 212.879273,63.6362776 214.921324,63.6945963 C216.033423,63.6644138 217.139877,63.8576973 218.170429,64.2621741 Z M307.800894,64.2621741 C308.733859,64.6665908 309.586847,65.2244583 310.321751,65.9108525 L308.655184,67.7487234 C307.569704,66.6715055 306.094011,66.0418652 304.537785,65.991935 C303.221607,65.9652549 301.958681,66.4931712 301.078609,67.437907 C300.212037,68.3373002 299.716603,69.5079575 299.679123,70.7295549 L299.678133,70.9920251 C299.647784,72.3155281 300.149695,73.5989625 301.078609,74.5731708 C301.947715,75.5355547 303.215233,76.0752939 304.537785,76.0461703 C305.306397,76.0565191 306.067532,75.8994669 306.764541,75.5867025 C307.498363,75.2353882 308.173431,74.7798633 308.767222,74.2353268 L310.433789,75.8569777 C309.690463,76.6394051 308.802283,77.2810402 307.814898,77.7489037 C306.752346,78.1784598 305.604768,78.376859 304.453756,78.3299952 C302.447809,78.3786483 300.51251,77.6140239 299.117942,76.2218491 C297.771981,74.914637 297.006284,73.1578855 296.974167,71.3228974 L296.975214,71.0325664 C296.929956,69.0898877 297.703121,67.2125523 299.117942,65.8297699 C300.542166,64.4108142 302.519552,63.6358186 304.565794,63.6945963 C305.673357,63.6643155 306.775261,63.8576376 307.800894,64.2621741 Z M241.376316,63.8973027 L241.376316,75.8569777 L249.106944,75.8569777 L249.106944,78.1272889 L238.79944,78.0867476 L238.79944,63.8973027 L241.376316,63.8973027 Z M254.778872,63.8973027 L254.778872,75.8569777 L262.509499,75.8569777 L262.509499,78.1272889 L252.201996,78.0867476 L252.201996,63.8973027 L254.778872,63.8973027 Z M166.282792,65.3162472 C167.044872,66.0845715 167.47817,67.0988027 167.502323,68.1566049 L167.501207,68.38387 C167.526634,69.3630972 167.194499,70.3197852 166.562888,71.0866214 C165.886934,71.8324703 164.993863,72.3645952 164.000016,72.613676 L167.963364,78.0191788 L164.924331,78.0191788 L161.353117,73.1542263 L158.118017,73.1542263 L158.118017,78.1002614 L155.527137,78.0867476 L155.527137,63.8973027 L162.081364,63.8973027 C163.621053,63.8165196 165.131367,64.3265966 166.282792,65.3162472 Z M133.973811,63.8973027 L133.973811,66.1676138 L125.570955,66.1676138 L125.570955,70.0460621 L132.979473,70.0460621 L132.979473,72.3163733 L125.654983,72.3163733 L125.654983,78.0867476 L123.064103,78.0867476 L123.064103,63.8973027 L133.973811,63.8973027 Z M188.970504,63.8973027 L188.970504,66.1270726 L180.651676,66.1270726 L180.651676,69.8163283 L188.032185,69.8163283 L188.032185,72.0460982 L180.651676,72.0460982 L180.651676,75.8569777 L189.054532,75.8569777 L189.054532,78.0867476 L178.0748,78.0867476 L178.0748,63.8973027 L188.970504,63.8973027 Z M195.04857,63.8973027 L198.703812,68.9919891 L202.387064,63.8973027 L205.398087,63.8973027 L200.272345,70.82986 L205.608159,78.0867476 L202.569126,78.0867476 L198.703812,72.6812448 L194.810489,78.0867476 L191.799465,78.0867476 L197.149284,70.8704013 L192.009537,63.8973027 L195.04857,63.8973027 Z M234.920122,63.8973027 L234.920122,66.1270726 L226.601294,66.1270726 L226.601294,69.8163283 L233.967798,69.8163283 L233.967798,72.0460982 L226.601294,72.0460982 L226.601294,75.8569777 L235.00415,75.8569777 L235.00415,78.0867476 L224.010414,78.0867476 L224.010414,63.8973027 L234.920122,63.8973027 Z M276.528264,63.8973027 L276.528264,66.1270726 L268.209437,66.1270726 L268.209437,69.8163283 L275.575941,69.8163283 L275.575941,72.0460982 L268.209437,72.0460982 L268.209437,75.8569777 L276.612293,75.8569777 L276.612293,78.0867476 L265.618556,78.0867476 L265.618556,63.8973027 L276.528264,63.8973027 Z M282.774387,63.8973027 L290.659067,73.7082903 L290.659067,63.8973027 L293.193929,63.8973027 L293.193929,78.0867476 L291.037196,78.0867476 L282.92844,67.9919711 L282.92844,78.0867476 L280.379573,78.0867476 L280.379573,63.8973027 L282.774387,63.8973027 Z M324.550587,63.8973027 L324.550587,66.1270726 L316.231759,66.1270726 L316.231759,69.8163283 L323.598263,69.8163283 L323.598263,72.0460982 L316.231759,72.0460982 L316.231759,75.8569777 L324.634615,75.8569777 L324.634615,78.0867476 L313.640879,78.0867476 L313.640879,63.8973027 L324.550587,63.8973027 Z M144.338898,65.9781819 L144.085248,65.9784212 C142.734939,65.9434632 141.434179,66.4701366 140.514034,67.4243933 C139.647462,68.3237865 139.152028,69.4944438 139.114548,70.7160411 L139.113558,70.9785114 C139.069002,72.3083523 139.572617,73.6010008 140.514034,74.5731708 C141.448584,75.5096905 142.7379,76.0388424 144.085248,76.0388424 C145.432595,76.0388424 146.721911,75.5096905 147.656461,74.5731708 C148.524232,73.6744971 149.019926,72.5034316 149.056223,71.2815756 L149.056937,71.0190526 C149.097095,69.6979779 148.593577,68.4152947 147.656461,67.4514208 C146.803721,66.5404355 145.603305,66.0103527 144.338898,65.9781819 Z M161.871293,66.2081551 L158.118017,66.2081551 L158.118017,70.9379701 L161.899302,70.9379701 C162.688602,70.9790543 163.467501,70.7492684 164.09805,70.2893098 C164.594377,69.9047321 164.892815,69.3345118 164.922848,68.726266 L164.924331,68.5595489 C164.963483,67.888532 164.666574,67.2401392 164.126059,66.8162742 C163.466637,66.3748505 162.672345,66.1606269 161.871293,66.2081551 Z" id="type2" fill="#F2F2F2" fill-rule="nonzero"></path>
                <g id="logos/isotype">
                    <mask id="mask-2" fill="white">
                        <use xlink:href="#path-1"></use>
                    </mask>
                    <use id="Mask" fill-opacity="0" fill="#FFFFFF" fill-rule="nonzero" xlink:href="#path-1"></use>
                    <rect id="background-color" fill="#FFFFFF" fill-rule="nonzero" mask="url(#mask-2)" x="2.12179487" y="2.12" width="101.846154" height="101.76" rx="1.7"></rect>
                    <rect id="Color-stripe" fill="#FFE525" fill-rule="nonzero" mask="url(#mask-2)" x="2.12179487" y="86.92" width="101.846154" height="16.96"></rect>
                    <g id="Group" mask="url(#mask-2)">
                        <g transform="translate(-14.852564, 4.240000)" id="logos/isotype">
                            <g transform="translate(0.000000, 3.735717)" fill="#0D59F2" fill-rule="nonzero" id="Icon">
                                <g>
                                    <path d="M91.0266966,5.81732547 C97.423178,9.36624183 102.873356,14.3934609 106.920137,20.4773616 C107.0592,20.7031774 106.993448,20.9983389 106.7716,21.1441478 L100.607322,25.1170825 C100.498368,25.1892274 100.364735,25.2141906 100.236995,25.1862611 C100.109255,25.1583316 99.9983392,25.0798992 99.9296227,24.9689078 C92.8825363,14.3979253 80.9181364,8.1416357 68.1941588,8.37415554 L67.7520698,8.3841068 C63.6385017,8.95771081 59.6548314,12.4233524 56.4176155,18.2917845 C55.9788501,19.0874091 55.5615936,19.9129596 55.1664459,20.7660294 L55.6470807,20.7366674 C59.8896639,20.4958835 64.215799,20.3662306 68.4862329,20.3662306 C71.9582812,20.3662306 75.4767473,20.4495789 78.9673628,20.6162754 C79.0473105,20.6207447 79.1217771,20.6582389 79.1728651,20.7197466 C79.2239532,20.7812543 79.2470433,20.8612138 79.2365858,20.9404076 L79.2365858,20.9404076 L78.4567675,27.8120102 C78.4134849,28.2277254 78.0587283,28.5414022 77.6398149,28.5343619 C75.1146888,28.4787964 70.3429432,28.3861872 68.4862329,28.3861872 C64.3643359,28.3861872 60.2053047,28.5065791 56.1205419,28.7473631 C54.8302548,28.8223874 53.5409511,28.9091685 52.2527906,29.0076807 C51.4172732,32.2185462 50.830546,35.6412458 50.5126562,39.195382 C52.2408348,39.0505073 53.9709317,38.9267073 55.7027821,38.8232439 C59.9267981,38.58246 64.215799,38.4528071 68.4769493,38.4528071 C74.5298251,38.4528071 80.6755363,38.7121128 86.7562628,39.2029416 L87.517514,39.267768 L89.2721053,39.4159427 L89.402075,39.4159427 C93.2268983,39.7678577 97.1724079,40.2494255 101.145768,40.8328635 L103.578059,41.1755175 C104.506414,41.3144313 105.434769,41.462606 106.363124,41.6200417 L106.418825,41.6200417 L110.670692,42.388698 L113.901368,42.8702659 C114.007458,42.8931227 114.102437,42.9409111 114.180964,43.0064624 L114.254143,43.0184406 C114.359085,43.0360938 114.436861,43.1253181 114.439816,43.2314417 L114.439816,45.5281499 C114.445845,69.1444532 96.310295,88.8259293 72.7195325,90.8047871 C55.4933009,92.2556962 39.1044341,83.8606423 30.1695844,69.4511452 C24.8760376,70.4344501 19.6188521,71.6203519 14.4095437,73.0052991 C14.2615782,73.0474616 14.1046994,72.9770382 14.0382017,72.8386025 L10.6404217,65.9762609 C10.6103231,65.911587 10.6093348,65.8371709 10.6377052,65.7717243 C10.6660756,65.7062776 10.7211058,65.6560267 10.7889585,65.6336069 C15.9600759,64.2192723 21.178104,62.9948016 26.4324733,61.9619414 C25.0824534,58.4946815 24.1833335,54.9230387 23.7208366,51.3263066 C17.1874754,52.7330443 10.7156326,54.4470043 4.32760651,56.4652962 C4.1635315,56.5221894 3.98235702,56.4514679 3.90056313,56.2985997 L0.10359045,49.677042 C0.0725769252,49.6186871 0.0680240877,49.5498968 0.0910775837,49.487981 C0.11413108,49.4260653 0.162595882,49.3769192 0.224276623,49.3529098 C2.63057324,48.5675838 5.08440165,47.8178197 7.55248959,47.1036175 L9.40570933,46.5746338 L10.6589888,46.2319798 C14.8817718,45.0797136 19.1356531,44.053659 23.4149134,43.1547567 C23.5996686,39.6634184 24.187736,36.2033829 25.1662431,32.8469079 C21.5614011,33.5960122 17.9743725,34.4403974 14.4095437,35.3781817 C14.3358726,35.3955611 14.2596923,35.3613635 14.2238727,35.2948334 L14.2238727,35.2948334 L10.6682724,28.2380125 C10.6500622,28.2028676 10.6489339,28.161352 10.6652084,28.1252745 C10.681483,28.089197 10.7133792,28.0625062 10.7518243,28.0527941 C16.7163844,26.4383845 22.7423151,25.0751152 28.8135857,23.9655985 C30.8787143,20.1482002 33.5150525,16.5859262 36.6993516,13.4112798 C51.0793943,-0.932782627 73.2483752,-4.0315946 91.0266966,5.81732547 Z M69.0989473,65.855869 C64.7820957,65.855869 60.4095428,65.9947828 56.1019748,66.2540885 C55.2692028,66.3051487 54.4368547,66.3610934 53.6049732,66.4219156 C54.4038159,68.6655017 55.3378621,70.7661514 56.3990484,72.6904278 C59.9546488,79.1730717 64.4107536,82.6922213 68.9504104,82.6922213 C73.4900673,82.6922213 77.9554557,79.1360281 81.511056,72.6904278 C82.5880715,70.7585203 83.5332518,68.6467878 84.3395359,66.3897271 C79.2689371,66.0311846 74.1856402,65.8534272 69.0989473,65.855869 Z M45.3889716,67.1841164 L44.0613107,67.335999 C42.4467531,67.5273928 40.8345944,67.737246 39.2251516,67.9655073 C40.2409466,69.3032199 41.3543368,70.5793443 42.5617219,71.7845314 C44.783579,74.0023438 47.2464433,75.9027752 49.8825495,77.4667366 C49.7130814,77.1750468 49.5458471,76.8797457 49.3806833,76.5800142 C47.7977135,73.7376149 46.4619882,70.5774894 45.3889716,67.1841164 Z M92.5512205,67.1251827 L92.5402156,67.161935 C91.468033,70.5483716 90.1372533,73.7053852 88.5665554,76.5522314 C88.4107681,76.8358071 88.2531387,77.1154145 88.0937046,77.3910275 L88.2973324,77.2653222 L88.2973324,77.2653222 C92.3714125,74.7763124 95.8604226,71.5757478 98.6433936,67.8790192 C96.6162143,67.5978074 94.585188,67.3469906 92.5512205,67.1251827 Z M42.2673096,48.1836085 L42.0238966,48.2132421 C38.631674,48.6395317 35.2503086,49.1472158 31.8827456,49.73584 C32.3128955,53.445311 33.2998313,57.0693693 34.8083941,60.4837515 C37.6794765,60.0324383 40.5590847,59.6390428 43.4460572,59.3026218 C42.7911554,55.7312135 42.393917,51.9990719 42.2673096,48.1836085 Z M95.6738809,48.2631491 L95.669193,48.4461574 C95.5310049,52.1608838 95.1337185,55.7924049 94.4930986,59.2725735 C97.3367527,59.5969452 100.17527,59.9776411 103.006412,60.4129236 C104.488359,57.0282978 105.470001,53.4115043 105.889733,49.6736901 C105.543014,49.6131586 105.189717,49.5524911 104.831338,49.4918236 L102.139108,49.1862132 C100.876545,48.982473 99.5489971,48.7879937 97.9336591,48.5657316 C97.1266925,48.4530317 96.3758419,48.3527716 95.6738809,48.2631491 Z M68.6162026,46.546851 C62.4813603,46.5478101 56.3567938,46.8131199 50.2593732,47.3401776 C50.357655,51.2074309 50.7655846,54.9660322 51.4603425,58.5183585 C52.8449412,58.4063725 54.2315151,58.3090732 55.6192301,58.224871 C60.0846185,57.9470434 64.6149918,57.8173905 69.0989473,57.8173905 C74.9011541,57.8188293 80.6989373,58.0462021 86.4790946,58.4984899 C87.1647203,54.9798963 87.5675978,51.2525427 87.6686279,47.4101038 C81.3340427,46.8417847 74.9771519,46.554207 68.6162026,46.546851 Z M43.8298947,29.8211467 L42.5767183,29.9708444 C39.8720886,30.3027356 37.1743386,30.6866041 34.484971,31.122211 C33.7194389,32.9425601 33.1121114,34.8277365 32.6702901,36.7580587 C32.2867559,38.3497255 32.0114893,39.9520635 31.8417731,41.5554508 C35.3524487,40.9581367 38.8775106,40.4465093 42.4138386,40.0201623 C42.6565209,36.5111874 43.1335328,33.0914777 43.8298947,29.8211467 Z M49.8731206,13.5608481 L49.5265801,13.7680668 C45.8566139,15.9902043 42.5672082,18.8461738 39.8301321,22.2379935 C41.9492201,21.959479 44.0718905,21.7121676 46.1981715,21.4955557 C47.1116073,18.9818483 48.1755238,16.6142989 49.3806833,14.4299809 C49.5428381,14.1360084 49.7069984,13.846287 49.8731206,13.5608481 Z" id="G"></path>
                                </g>
                            </g>
                        </g>
                    </g>
                </g>
            </g>
        </g>
    </g>
</svg>