<?xml version="1.0" encoding="UTF-8"?>
<svg width="1202px" height="1200px" viewBox="0 0 1202 1200" version="1.1" xmlns="http://www.w3.org/2000/svg" xmlns:xlink="http://www.w3.org/1999/xlink">
    <title>Combined Shape</title>
    <defs>
        <rect id="path-1" x="0.5" y="0" width="1200" height="1200"></rect>
        <radialGradient cx="50%" cy="0%" fx="50%" fy="0%" r="100%" id="radialGradient-3">
            <stop stop-color="#FFFFFF" offset="0%"></stop>
            <stop stop-color="#C2DEFF" offset="100%"></stop>
        </radialGradient>
    </defs>
    <g id="Badges" stroke="none" stroke-width="1" fill="none" fill-rule="evenodd">
        <g id="Facebook-post" transform="translate(1.000000, 0.000000)">
            <g id="Combined-Shape" transform="translate(-0.500000, 0.000000)">
                <mask id="mask-2" fill="white">
                    <use xlink:href="#path-1"></use>
                </mask>
                <use id="Mask" fill="#1F377A" fill-rule="nonzero" xlink:href="#path-1"></use>
                <path d="M633.5,-299 L604.374,554.722 L797.760777,-277.150356 L855.41812,-261.701117 L605.611,560.277 L1010.02583,-197.636964 L1061.72277,-167.78972 L607.746,561.508 L1194.4846,-65.8785291 L1236.69808,-23.6650495 L609.49,563.25 L1338.56652,109.145828 L1368.41815,160.850371 L610.72,565.387 L1432.45265,315.508487 L1447.90582,373.180515 L616.594,566.55 L1470,537.5 L1470,598.5 L606.526,569.107 L1447.90582,764.819485 L1432.45265,822.491513 L610.717,572.611 L1368.41815,977.149629 L1338.56652,1028.85417 L609.491,574.749 L1236.69808,1161.66505 L1194.4846,1203.87853 L607.747,576.492 L1061.72277,1305.78972 L1010.02583,1335.63696 L605.612,577.724 L855.41812,1399.70112 L797.760777,1415.15036 L604.375,583.282 L633.5,1437 L572.5,1437 L601.97,573.19 L406.239223,1415.15036 L348.58188,1399.70112 L598.389,577.72 L193.97417,1335.63696 L142.277228,1305.78972 L596.251,576.492 L9.51540337,1203.87853 L-32.6980762,1161.66505 L594.508,574.749 L-134.566517,1028.85417 L-164.418149,977.149629 L593.28,572.612 L-228.452647,822.491513 L-243.90582,764.819485 L597.474,569.107 L-266,598.5 L-266,537.5 L587.405,566.55 L-243.90582,373.180515 L-228.452647,315.508487 L593.279,565.386 L-164.418149,160.850371 L-134.566517,109.145828 L594.509,563.25 L-32.6980762,-23.6650495 L9.51540337,-65.8785291 L596.253,561.508 L142.277228,-167.78972 L193.97417,-197.636964 L598.388,560.277 L348.58188,-261.701117 L406.239223,-277.150356 L601.97,564.812 L572.5,-299 L633.5,-299 Z" fill="url(#radialGradient-3)" fill-rule="nonzero" style="mix-blend-mode: multiply;" mask="url(#mask-2)"></path>
            </g>
        </g>
    </g>
</svg>