<?xml version="1.0" encoding="UTF-8"?>
<svg width="830px" height="315px" viewBox="0 0 830 315" version="1.1" xmlns="http://www.w3.org/2000/svg" xmlns:xlink="http://www.w3.org/1999/xlink">
    <title>Combined Shape</title>
    <defs>
        <rect id="path-1" x="0.5" y="0" width="828" height="315"></rect>
        <radialGradient cx="50%" cy="0%" fx="50%" fy="0%" r="100%" gradientTransform="translate(0.500000,0.000000),scale(0.999543,1.000000),rotate(90.000000),translate(-0.500000,-0.000000)" id="radialGradient-3">
            <stop stop-color="#FFFFFF" offset="0%"></stop>
            <stop stop-color="#C2DEFF" offset="100%"></stop>
        </radialGradient>
    </defs>
    <g id="Badges" stroke="none" stroke-width="1" fill="none" fill-rule="evenodd">
        <g id="Banner-(Landscape)" transform="translate(1.000000, 0.000000)">
            <g id="Combined-Shape" transform="translate(-0.500000, 0.000000)">
                <mask id="mask-2" fill="white">
                    <use xlink:href="#path-1"></use>
                </mask>
                <use id="Mask" fill="#1F377A" fill-rule="nonzero" xlink:href="#path-1"></use>
                <path d="M433.25,-408 L415.268,133.387 L538.00762,-394.227983 L574.382312,-384.481413 L416.78,133.746 L671.925969,-344.093408 L704.539485,-325.271396 L418.125,134.526 L788.302123,-261.023358 L814.930948,-234.405014 L419.223,135.626 L879.20428,-150.675341 L898.033703,-118.074659 L420.002,136.972 L938.441187,-20.5703489 L948.184435,15.7919451 L421.663,138.181 L962,120.25 L962,157.75 L419.149,139.734 L948.184435,262.708055 L938.441187,299.070349 L420.004,141.528 L898.033703,396.574659 L879.20428,429.175341 L419.224,142.874 L814.930948,512.905014 L788.302123,539.523358 L418.124,143.971 L704.539485,603.771396 L671.925969,622.593408 L416.78,144.751 L574.382312,662.981413 L538.00762,672.727983 L415.268,145.112 L433.25,686.5 L395.75,686.5 L413.733,145.105 L290.99238,672.727983 L254.617688,662.981413 L412.218,144.754 L157.074031,622.593408 L124.460515,603.771396 L410.874,143.972 L40.6978768,539.523358 L14.0690524,512.905014 L409.778,142.871 L-50.2042802,429.175341 L-69.0337025,396.574659 L408.998,141.527 L-109.441187,299.070349 L-119.184435,262.708055 L409.847,139.735 L-133,157.75 L-133,120.25 L407.341,138.181 L-119.184435,15.7919451 L-109.441187,-20.5703489 L408.994,136.97 L-69.0337025,-118.074659 L-50.2042802,-150.675341 L409.776,135.627 L14.0690524,-234.405014 L40.6978768,-261.023358 L410.874,134.526 L124.460515,-325.271396 L157.074031,-344.093408 L412.219,133.746 L254.617688,-384.481413 L290.99238,-394.227983 L413.732,133.392 L395.75,-408 L433.25,-408 Z" fill="url(#radialGradient-3)" fill-rule="nonzero" style="mix-blend-mode: multiply;" mask="url(#mask-2)"></path>
            </g>
        </g>
    </g>
</svg>