<?xml version="1.0" encoding="UTF-8"?>
<svg width="385px" height="306px" viewBox="0 0 385 306" version="1.1" xmlns="http://www.w3.org/2000/svg" xmlns:xlink="http://www.w3.org/1999/xlink">
    <title>logo-watermark</title>
    <g id="Badges" stroke="none" stroke-width="1" fill="none" fill-rule="evenodd" opacity="0.118071057">
        <g id="Certificate" transform="translate(-266.000000, -133.000000)" fill-rule="nonzero" stroke="#9EBDFA" stroke-width="4">
            <g id="Group" transform="translate(268.000000, 123.000000)">
                <g id="Icon" transform="translate(0.000000, 12.360190)">
                    <path d="M302.415473,19.2475111 C323.666326,30.9896437 341.773301,47.622967 355.21781,67.752483 C355.679815,68.4996291 355.46137,69.4762162 354.72433,69.9586472 L334.244919,83.1037091 C333.882944,83.3424116 333.438978,83.4250063 333.014591,83.3325972 C332.590205,83.2401881 332.221712,82.9806826 331.993418,82.6134504 C308.581077,47.6377379 268.832083,26.937847 226.559565,27.7071745 C226.058372,27.7162958 225.557644,27.7284201 225.057405,27.7435347 C211.403438,29.6561514 198.181063,41.1199626 187.434681,60.5211669 C185.977358,63.152936 184.591456,65.883669 183.278967,68.7054088 L184.874755,68.6104358 C198.969771,67.8137653 213.34237,67.384789 227.529914,67.384789 C239.065004,67.384789 250.754307,67.6605595 262.351082,68.2121006 C262.61669,68.2268879 262.864088,68.3509432 263.033817,68.5544508 C263.203545,68.7579584 263.280257,69.0225168 263.245514,69.2845415 L263.245514,69.2845415 L260.654745,92.0202895 C260.510949,93.395747 259.332351,94.4335946 257.940606,94.4103008 C249.55145,94.2264538 233.698412,93.9200421 227.529914,93.9200421 C213.83585,93.9200421 200.018416,94.3183773 186.447722,95.1150477 C182.161044,95.3632769 177.877633,95.6504047 173.598021,95.9763469 C170.822483,106.598607 168.873205,117.922659 167.817009,129.681576 C173.557626,129.204623 179.305805,128.794984 185.05981,128.452641 C199.093141,127.65597 213.34237,127.226994 227.499072,127.226994 C247.608373,127.226994 268.0261,128.084946 288.227929,129.708928 L290.757012,129.923417 L296.586243,130.413675 L297.018037,130.413675 C309.725142,131.57804 322.833199,133.171381 336.033783,135.101774 L344.114515,136.235498 C347.198764,136.695115 350.283012,137.185374 353.367261,137.706274 L353.552316,137.706274 L367.678175,140.249491 L378.41136,141.842832 C378.766211,141.91897 379.083644,142.07872 379.345552,142.297878 L379.583375,142.33309 C379.932022,142.391499 380.190415,142.686711 380.20023,143.037837 L380.20023,150.636848 C380.220262,228.774999 319.969025,293.894174 241.594088,300.441527 C184.362711,305.242178 129.913399,277.46465 100.229792,229.786874 C82.6447877,233.043193 65.1790782,236.966913 47.872428,241.549199 C47.3808463,241.6887 46.859652,241.455693 46.6387285,240.997657 L35.3503783,218.292551 C35.2503827,218.078567 35.2470991,217.83235 35.3413534,217.61581 C35.4356076,217.39927 35.6184328,217.233007 35.8438581,217.158827 C53.0234695,212.479353 70.3589266,208.428054 87.8151159,205.010709 C83.3303254,193.536633 80.3437646,181.721217 78.8073195,169.822803 C57.1012428,174.475404 35.6001356,180.146277 14.3774872,186.824069 C13.8323854,187.012309 13.2304744,186.778316 12.9587328,186.272528 L0.344155682,164.364092 C0.241120308,164.171016 0.225994542,163.943413 0.302584534,163.738555 C0.379174525,163.533697 0.540187796,163.37109 0.745108012,163.291651 C9.7387772,160.368483 18.9323057,157.594232 28.1683043,154.968896 L31.2483276,154.0993 L35.4120633,152.965576 C49.4417687,149.153 63.5747979,145.758041 77.7921481,142.783814 C78.4048373,131.22993 80.3588161,119.781606 83.6100056,108.675967 C71.631783,111.157794 59.7152319,113.951461 47.872428,117.054125 C47.6276723,117.111628 47.3745808,116.99848 47.2555783,116.778355 L47.2555783,116.778355 L35.4429058,93.4297834 C35.3824066,93.3135013 35.3786581,93.1761404 35.4327265,93.0567725 C35.486795,92.9374047 35.592763,92.8490939 35.7204882,92.81696 C55.5376407,87.4750995 75.5587093,82.9642805 95.7304252,79.2931482 C102.587652,66.6631933 111.346224,54.8769807 121.925239,44.3732704 C169.699657,-3.086254 243.351048,-13.3391474 302.415473,19.2475111 Z M229.565518,217.894215 C215.223762,217.894215 200.696951,218.353833 186.386037,219.211786 C183.61875,219.380762 180.852871,219.565907 178.088544,219.767196 C180.743542,227.188638 183.847021,234.139868 187.372996,240.507399 C199.185669,261.956218 213.990063,273.599862 229.072039,273.599862 C244.154015,273.599862 258.989251,261.833653 270.801923,240.507399 C274.380457,234.114681 277.520902,227.126854 280.199791,219.658093 C263.353543,218.474293 246.465172,217.886136 229.565518,217.894215 Z M150.793111,222.284477 L150.778068,222.286528 C143.943317,223.050305 137.121018,223.91316 130.313346,224.874741 C133.689702,229.298385 137.389457,233.52165 141.40163,237.510102 C148.783563,244.848391 156.966257,251.136485 165.724547,256.311217 C165.161545,255.347472 164.605364,254.369426 164.056076,253.37669 C158.796325,243.970935 154.358204,233.513657 150.793111,222.284477 Z M307.481495,222.094058 L307.430433,222.257548 C303.870658,233.44619 299.453977,243.877315 294.242214,253.284767 C293.723808,254.224539 293.199263,255.151138 292.668703,256.064479 L293.347781,255.644137 L293.347781,255.644137 C306.883792,247.408376 318.475809,236.818047 327.721868,224.58593 C320.986234,223.657796 314.23875,222.827939 307.481495,222.094058 Z M140.423442,159.420747 L139.219794,159.570437 C128.082701,160.970586 116.98095,162.633754 105.923987,164.55849 C107.351927,176.830153 110.630329,188.820072 115.641475,200.116388 C125.179033,198.626859 134.74551,197.325264 144.336452,196.212164 C142.163648,184.393631 140.843974,172.045028 140.423442,159.420747 Z M317.859466,159.686619 L317.86032,159.706059 C317.421757,172.199291 316.0942,184.412173 313.932538,196.108403 C323.381274,197.185876 332.811327,198.445455 342.21688,199.885632 C347.139346,188.684909 350.400294,176.718765 351.794613,164.352253 C350.640094,164.15229 349.467595,163.951779 348.278251,163.751268 L339.333929,162.74011 C335.139351,162.066004 330.728876,161.422539 325.362283,160.687151 C322.683152,160.314521 320.1902,159.982994 317.859466,159.686619 Z M227.961709,154.007376 C207.579307,154.01055 187.231047,154.888435 166.972982,156.63242 C167.301744,169.425344 168.656671,181.859814 170.964301,193.612003 C175.565447,193.246405 180.171942,192.924482 184.782227,192.645891 C199.617464,191.726656 214.668597,191.29768 229.565518,191.29768 C248.842071,191.30244 268.103927,192.054741 287.307224,193.551211 C289.585413,181.906039 290.92373,169.573073 291.259166,156.859342 C270.214638,154.983245 249.094916,154.031715 227.961709,154.007376 Z M145.615057,98.666834 L143.73141,98.8882403 C133.981301,100.047733 124.257584,101.40962 114.566629,102.972891 C112.025413,108.99471 110.007543,115.23249 108.5396,121.61966 C107.265669,126.884801 106.351277,132.185234 105.787405,137.489144 C117.450148,135.516346 129.159053,133.823858 140.905373,132.413422 C141.716539,120.802947 143.301392,109.487741 145.615057,98.666834 Z M165.69192,44.8684263 L165.205842,45.1555435 C152.746318,52.5631091 141.586501,62.1503952 132.32856,73.5753159 C139.365956,72.6564012 146.416777,71.8382671 153.479589,71.1216704 C156.517556,62.8044197 160.05219,54.970982 164.056076,47.7437991 C164.594744,46.7712442 165.140074,45.8127521 165.69192,44.8684263 Z" id="G"></path>
                </g>
            </g>
        </g>
    </g>
</svg>