<?xml version="1.0" encoding="UTF-8"?>
<svg width="110px" height="230px" viewBox="0 0 110 230" version="1.1" xmlns="http://www.w3.org/2000/svg" xmlns:xlink="http://www.w3.org/1999/xlink">
    <title>logo-tall</title>
    <g id="Badges" stroke="none" stroke-width="1" fill="none" fill-rule="evenodd">
        <g id="Certificate" transform="translate(-656.000000, -347.000000)" fill-rule="nonzero">
            <g id="logo-tall" transform="translate(657.000000, 348.000000)">
                <g id="award-trophy" transform="translate(12.000000, 0.000000)">
                    <path d="M77.5510245,40.445547 C78.2747264,40.6668049 78.6820377,41.4328461 78.4607798,42.156548 C78.4410533,42.2210704 78.4165882,42.2840478 78.3875841,42.3449661 L48.5355205,105.044253 C48.4041038,105.362965 48.2717392,105.677799 48.1384268,105.988754 L47.7356457,106.909982 L47.7356457,106.909982 L47.3271773,107.807938 C40.8832881,121.693617 32.3455073,127.011242 21.713835,123.760814 C11.8738831,120.752438 7.57807684,112.647977 8.8264164,99.4474291 L8.92129855,98.528967 C8.9385772,98.3745435 8.95658834,98.2194466 8.97533195,98.0636765 L9.0965834,97.1209762 C9.11825694,96.962513 9.14066296,96.8033764 9.16380146,96.6435666 L9.31142221,95.6766281 C9.38962747,95.1891192 9.47442506,94.6955507 9.56581497,94.1959226 L9.75738456,93.1885871 L9.75738456,93.1885871 L19.0322808,36.2751862 C19.1645788,35.4633685 19.9299358,34.9125088 20.7417535,35.0448067 C20.8080043,35.0556033 20.8734494,35.0708665 20.9376411,35.0904918 C21.8742846,35.3768525 22.4590878,36.3069488 22.31127,37.2751706 L13.59584,94.3621207 C12.2471203,103.570799 16.4607603,112.439239 24.4302679,114.875762 C31.7954208,117.127515 38.9406661,114.732711 44.8834984,103.927718 L75.3354477,41.4095913 C75.7361804,40.5868833 76.6758958,40.1779933 77.5510245,40.445547 Z M32.8957859,87.6466261 C38.4413875,89.3420867 41.5625435,95.2121274 39.867083,100.757729 C38.1716224,106.303331 32.3015817,109.424487 26.7559801,107.729026 C21.2103786,106.033565 18.0892226,100.163525 19.7846831,94.6179232 C21.4801437,89.0723216 27.3501844,85.9511656 32.8957859,87.6466261 Z M49.7309179,3.55895778 C65.6280945,3.55895778 77.2720792,14.7771068 77.2720792,30.220273 C77.2720792,45.6634392 65.6280945,56.8815883 49.7309179,56.8815883 C33.8337412,56.8815883 22.1897566,45.6634392 22.1897566,30.220273 C22.1897566,14.7771068 33.8337412,3.55895778 49.7309179,3.55895778 Z M60.811914,30.3936655 C60.811914,22.5230231 55.9125181,17.757313 49.8232688,17.757313 C43.7340196,17.757313 38.8346237,22.5230231 38.8346237,30.3936655 C38.8346237,38.264308 43.7340196,43.0300181 49.8232688,43.0300181 C55.9125181,43.0300181 60.811914,38.264308 60.811914,30.3936655 Z" fill="#FFE525"></path>
                    <path d="M88.889595,23.8495695 L89.3245022,26.0241052 L82.1499665,27.4590123 L81.7150593,25.2844766 L88.889595,23.8495695 Z M85.5952745,10.7302801 L86.9258345,12.5043601 L81.1517545,16.8349201 L79.8211945,15.0608401 L85.5952745,10.7302801 Z M75.9583883,-0.874700378 L77.94187,0.117040491 L74.9501291,6.10052223 L72.9666474,5.10878136 L75.9583883,-0.874700378 Z" id="sparkles" fill="#FFE525"></path>
                    <polygon id="base" fill-opacity="0" fill="#FFFFFF" points="5.58789062 128.631125 49.4121094 128.631125 55 135.631125 0 135.631125"></polygon>
                </g>
                <g id="Group-3" transform="translate(0.000000, 139.000000)" fill="#FFFFFF">
                    <path d="M23.9990868,89 L23.9990868,82.1181945 L15.1241901,82.1181945 L18.8847396,78.6960945 C20.664733,77.0915934 21.8618412,75.656317 22.4760643,74.3902654 C23.0902874,73.1242137 23.3973989,71.7641484 23.3973989,70.3100692 C23.3973989,68.6804978 22.946133,67.2389538 22.0436011,65.9854374 C21.1410692,64.7319209 19.8875527,63.7667132 18.2830516,63.0898143 C16.6785505,62.4129154 14.8358813,62.0744659 12.755044,62.0744659 C10.022378,62.0744659 7.69083736,62.6197456 5.76042198,63.7103049 C3.83000659,64.8008643 2.36339231,66.2862813 1.36057912,68.166556 L1.36057912,68.166556 L8.05435714,71.5134451 C8.43041209,70.7362648 8.96942418,70.1345769 9.67139341,69.7083813 C10.3733626,69.2821857 11.1254725,69.0690879 11.9277231,69.0690879 C12.755044,69.0690879 13.3880698,69.2508478 13.8268005,69.6143676 C14.2655313,69.9778874 14.4848967,70.4855615 14.4848967,71.1373901 C14.4848967,71.663867 14.3470099,72.2028791 14.0712363,72.7544264 C13.7954626,73.3059736 13.2439154,73.9703374 12.4165945,74.7475176 L12.4165945,74.7475176 L2.9024044,83.5472033 L2.9024044,89 L23.9990868,89 Z M38.5085402,89.6016879 C40.8400808,89.6016879 42.9021154,89.0564082 44.694644,87.9658489 C46.4871726,86.8752896 47.891111,85.2958588 48.9064594,83.2275566 C49.9218078,81.1592544 50.4294819,78.6960945 50.4294819,75.8380769 C50.4294819,72.9800593 49.9218078,70.5168995 48.9064594,68.4485973 C47.891111,66.3802951 46.4871726,64.8008643 44.694644,63.7103049 C42.9021154,62.6197456 40.8400808,62.0744659 38.5085402,62.0744659 C36.1769995,62.0744659 34.1149649,62.6197456 32.3224363,63.7103049 C30.5299078,64.8008643 29.1259693,66.3802951 28.1106209,68.4485973 C27.0952726,70.5168995 26.5875984,72.9800593 26.5875984,75.8380769 C26.5875984,78.6960945 27.0952726,81.1592544 28.1106209,83.2275566 C29.1259693,85.2958588 30.5299078,86.8752896 32.3224363,87.9658489 C34.1149649,89.0564082 36.1769995,89.6016879 38.5085402,89.6016879 Z M38.5085402,82.4942495 C36.5029138,82.4942495 35.5001006,80.2755253 35.5001006,75.8380769 C35.5001006,71.4006286 36.5029138,69.1819044 38.5085402,69.1819044 C40.5141665,69.1819044 41.5169797,71.4006286 41.5169797,75.8380769 C41.5169797,80.2755253 40.5141665,82.4942495 38.5085402,82.4942495 Z M74.0770704,89 L74.0770704,82.1181945 L65.2021737,82.1181945 L68.9627232,78.6960945 C70.7427166,77.0915934 71.9398248,75.656317 72.5540479,74.3902654 C73.168271,73.1242137 73.4753825,71.7641484 73.4753825,70.3100692 C73.4753825,68.6804978 73.0241166,67.2389538 72.1215847,65.9854374 C71.2190529,64.7319209 69.9655364,63.7667132 68.3610353,63.0898143 C66.7565342,62.4129154 64.913865,62.0744659 62.8330276,62.0744659 C60.1003617,62.0744659 57.768821,62.6197456 55.8384056,63.7103049 C53.9079902,64.8008643 52.4413759,66.2862813 51.4385628,68.166556 L51.4385628,68.166556 L58.1323408,71.5134451 C58.5083957,70.7362648 59.0474078,70.1345769 59.749377,69.7083813 C60.4513463,69.2821857 61.2034562,69.0690879 62.0057067,69.0690879 C62.8330276,69.0690879 63.4660534,69.2508478 63.9047842,69.6143676 C64.343515,69.9778874 64.5628803,70.4855615 64.5628803,71.1373901 C64.5628803,71.663867 64.4249935,72.2028791 64.1492199,72.7544264 C63.8734463,73.3059736 63.321899,73.9703374 62.4945781,74.7475176 L62.4945781,74.7475176 L52.980388,83.5472033 L52.980388,89 L74.0770704,89 Z M88.5865238,89.6016879 C90.9180645,89.6016879 92.9800991,89.0564082 94.7726277,87.9658489 C96.5651562,86.8752896 97.9690947,85.2958588 98.984443,83.2275566 C99.9997914,81.1592544 100.507466,78.6960945 100.507466,75.8380769 C100.507466,72.9800593 99.9997914,70.5168995 98.984443,68.4485973 C97.9690947,66.3802951 96.5651562,64.8008643 94.7726277,63.7103049 C92.9800991,62.6197456 90.9180645,62.0744659 88.5865238,62.0744659 C86.2549831,62.0744659 84.1929485,62.6197456 82.40042,63.7103049 C80.6078914,64.8008643 79.2039529,66.3802951 78.1886046,68.4485973 C77.1732562,70.5168995 76.665582,72.9800593 76.665582,75.8380769 C76.665582,78.6960945 77.1732562,81.1592544 78.1886046,83.2275566 C79.2039529,85.2958588 80.6078914,86.8752896 82.40042,87.9658489 C84.1929485,89.0564082 86.2549831,89.6016879 88.5865238,89.6016879 Z M88.5865238,82.4942495 C86.5808974,82.4942495 85.5780842,80.2755253 85.5780842,75.8380769 C85.5780842,71.4006286 86.5808974,69.1819044 88.5865238,69.1819044 C90.5921502,69.1819044 91.5949634,71.4006286 91.5949634,75.8380769 C91.5949634,80.2755253 90.5921502,82.4942495 88.5865238,82.4942495 Z" id="2020"></path>
                    <path d="M3.69327034,52.576923 L4.77374836,49.9051955 L10.5886846,49.9051955 L11.6691627,52.576923 L15.716044,52.576923 L9.62607695,38.8253845 L5.79529122,38.8253845 L-0.27503077,52.576923 L3.69327034,52.576923 Z M9.44927145,47.0370175 L5.91316155,47.0370175 L7.6812165,42.6365252 L9.44927145,47.0370175 Z M24.1268064,52.576923 L26.8771141,44.2081296 L29.5095515,52.576923 L33.6743031,52.576923 L38.1337306,38.8253845 L34.4208152,38.8253845 L31.5329922,47.6853043 L28.7630394,38.8253845 L25.1876394,38.8253845 L22.2801712,47.6067241 L19.5102185,38.8253845 L15.5026273,38.8253845 L19.9620548,52.576923 L24.1268064,52.576923 Z M41.888615,52.576923 L42.969093,49.9051955 L48.7840293,49.9051955 L49.8645073,52.576923 L53.9113887,52.576923 L47.8214216,38.8253845 L43.9906359,38.8253845 L37.9203139,52.576923 L41.888615,52.576923 Z M47.6446161,47.0370175 L44.1085062,47.0370175 L45.8765612,42.6365252 L47.6446161,47.0370175 Z M59.4146829,52.576923 L59.4146829,48.9229428 L61.5363489,48.9229428 L64.0312709,52.576923 L68.1960225,52.576923 L65.2296192,48.2550109 C66.0940016,47.8359164 66.7586593,47.2563873 67.2235923,46.5164235 C67.6885253,45.7764598 67.9209918,44.9088032 67.9209918,43.9134537 C67.9209918,42.8788142 67.6721544,41.9784158 67.1744797,41.2122587 C66.6768049,40.4461015 65.969583,39.8567499 65.0528137,39.4442037 C64.1360445,39.0316576 63.0555665,38.8253845 61.8113797,38.8253845 L61.8113797,38.8253845 L55.5249621,38.8253845 L55.5249621,52.576923 L59.4146829,52.576923 Z M61.575639,45.9172494 L59.4146829,45.9172494 L59.4146829,41.8900131 L61.575639,41.8900131 C62.3745379,41.8900131 62.9769863,42.0668186 63.3829841,42.4204296 C63.7889819,42.7740406 63.9919808,43.2717153 63.9919808,43.9134537 C63.9919808,44.5551922 63.7889819,45.0495928 63.3829841,45.3966554 C62.9769863,45.743718 62.3745379,45.9172494 61.575639,45.9172494 L61.575639,45.9172494 Z M77.0782663,52.576923 C78.5843872,52.576923 79.9202509,52.2953439 81.0858575,51.7321856 C82.2514641,51.1690274 83.1551366,50.3701285 83.7968751,49.3354889 C84.4386135,48.3008494 84.7594828,47.0894043 84.7594828,45.7011538 C84.7594828,44.3129032 84.4386135,43.1014581 83.7968751,42.0668186 C83.1551366,41.032179 82.2514641,40.2332801 81.0858575,39.6701219 C79.9202509,39.1069636 78.5843872,38.8253845 77.0782663,38.8253845 L77.0782663,38.8253845 L70.5757531,38.8253845 L70.5757531,52.576923 L77.0782663,52.576923 Z M76.9211058,49.4730043 L74.465474,49.4730043 L74.465474,41.9293032 L76.9211058,41.9293032 C78.0998091,41.9293032 79.0460459,42.2632691 79.7598163,42.931201 C80.4735866,43.5991329 80.8304718,44.5224505 80.8304718,45.7011538 C80.8304718,46.8798571 80.4735866,47.8031746 79.7598163,48.4711065 C79.0460459,49.1390384 78.0998091,49.4730043 76.9211058,49.4730043 L76.9211058,49.4730043 Z M92.1487023,52.8519538 C93.4583727,52.8519538 94.5715924,52.652229 95.4883617,52.2527796 C96.4051309,51.8533301 97.0927078,51.3196395 97.5510925,50.6517076 C98.0094771,49.9837757 98.2386694,49.2372637 98.2386694,48.4121713 C98.2386694,47.456112 97.9865578,46.6997774 97.4823348,46.1431675 C96.9781117,45.5865576 96.3822117,45.1805598 95.6946348,44.9251741 C95.0070578,44.6697884 94.1394012,44.4307735 93.091665,44.2081296 C92.161799,44.011679 91.4873188,43.8217768 91.0682243,43.638423 C90.6491298,43.4550691 90.4395825,43.1800384 90.4395825,42.8133307 C90.4395825,42.446623 90.616388,42.148673 90.969999,41.9194807 C91.32361,41.6902884 91.8867683,41.5756922 92.6594738,41.5756922 C93.8905639,41.5756922 95.1609441,41.9293032 96.4706144,42.6365252 L96.4706144,42.6365252 L97.6689628,39.7487021 C97.0010309,39.355801 96.2283254,39.057851 95.3508463,38.8548521 C94.4733672,38.6518532 93.5827913,38.5503537 92.6791188,38.5503537 C91.3563518,38.5503537 90.2398578,38.7468043 89.3296369,39.1397054 C88.4194161,39.5326065 87.7351133,40.0662971 87.2767287,40.7407774 C86.8183441,41.4152576 86.5891518,42.1715922 86.5891518,43.0097812 C86.5891518,43.9658406 86.8379891,44.7254494 87.3356639,45.2886076 C87.8333386,45.8517658 88.4292386,46.2610378 89.1233639,46.5164235 C89.8174891,46.7718092 90.6818716,47.0108241 91.7165111,47.233468 C92.6594738,47.4430153 93.3437765,47.64274 93.7694194,47.8326422 C94.1950622,48.0225444 94.4078837,48.3139461 94.4078837,48.7068472 C94.4078837,49.4533593 93.6613716,49.8266153 92.1683474,49.8266153 C91.3825452,49.8266153 90.5836463,49.7021966 89.7716507,49.4533593 C88.9596551,49.2045219 88.2458847,48.8771043 87.6303397,48.4711065 L87.6303397,48.4711065 L86.3534111,51.3392845 C87.0082463,51.7976692 87.859532,52.1643768 88.9072683,52.4394076 C89.9550045,52.7144384 91.0354825,52.8519538 92.1487023,52.8519538 Z" id="AWARDS"></path>
                    <path d="M7.04085824,12.8099538 C8.27259231,12.8099538 9.37948846,12.5491812 10.3615467,12.0276362 C11.3436049,11.5060911 12.1148258,10.7848054 12.6752093,9.86377904 C13.2355929,8.94275267 13.5157846,7.90521091 13.5157846,6.75115377 C13.5157846,5.59709663 13.2355929,4.55955487 12.6752093,3.63852849 C12.1148258,2.71750212 11.3436049,1.99621641 10.3615467,1.47467135 C9.37948846,0.953126297 8.27259231,0.692353769 7.04085824,0.692353769 C5.80912418,0.692353769 4.70222802,0.953126297 3.72016978,1.47467135 C2.73811154,1.99621641 1.96689066,2.71750212 1.40650714,3.63852849 C0.846123626,4.55955487 0.565931868,5.59709663 0.565931868,6.75115377 C0.565931868,7.90521091 0.846123626,8.94275267 1.40650714,9.86377904 C1.96689066,10.7848054 2.73811154,11.5060911 3.72016978,12.0276362 C4.70222802,12.5491812 5.80912418,12.8099538 7.04085824,12.8099538 Z M7.04085824,10.0801648 C6.45273297,10.0801648 5.92009121,9.94145597 5.44293297,9.66403838 C4.96577473,9.3866208 4.58848681,8.99546201 4.31106923,8.49056201 C4.03365165,7.98566201 3.89494286,7.40585926 3.89494286,6.75115377 C3.89494286,6.09644827 4.03365165,5.51664553 4.31106923,5.01174553 C4.58848681,4.50684553 4.96577473,4.11568674 5.44293297,3.83826915 C5.92009121,3.56085157 6.45273297,3.42214278 7.04085824,3.42214278 C7.62898352,3.42214278 8.16162527,3.56085157 8.63878352,3.83826915 C9.11594176,4.11568674 9.49322967,4.50684553 9.77064725,5.01174553 C10.0480648,5.51664553 10.1867736,6.09644827 10.1867736,6.75115377 C10.1867736,7.40585926 10.0480648,7.98566201 9.77064725,8.49056201 C9.49322967,8.99546201 9.11594176,9.3866208 8.63878352,9.66403838 C8.16162527,9.94145597 7.62898352,10.0801648 7.04085824,10.0801648 Z M18.9776324,12.576923 L18.9776324,9.53087795 L21.0083291,9.53087795 C22.0625159,9.53087795 22.977994,9.35610487 23.7547632,9.00655871 C24.5315324,8.65701256 25.1307544,8.16043509 25.5524291,7.5168263 C25.9741039,6.87321751 26.1849412,6.11309333 26.1849412,5.23645377 C26.1849412,4.35981421 25.9741039,3.59691586 25.5524291,2.94775871 C25.1307544,2.29860157 24.5315324,1.79924992 23.7547632,1.44970377 C22.977994,1.10015762 22.0625159,0.925384538 21.0083291,0.925384538 L21.0083291,0.925384538 L15.6819115,0.925384538 L15.6819115,12.576923 L18.9776324,12.576923 Z M20.8085885,6.93424937 L18.9776324,6.93424937 L18.9776324,3.52201311 L20.8085885,3.52201311 C21.4854874,3.52201311 21.9959357,3.6718186 22.3399335,3.97142959 C22.6839313,4.27104058 22.8559302,4.69271531 22.8559302,5.23645377 C22.8559302,5.78019223 22.6839313,6.19909278 22.3399335,6.49315542 C21.9959357,6.78721805 21.4854874,6.93424937 20.8085885,6.93424937 L20.8085885,6.93424937 Z M37.5724286,12.576923 L37.5724286,10.0302296 L31.4803385,10.0302296 L31.4803385,7.89966256 L36.6569506,7.89966256 L36.6569506,5.43619443 L31.4803385,5.43619443 L31.4803385,3.47207795 L37.3560429,3.47207795 L37.3560429,0.925384538 L28.2179077,0.925384538 L28.2179077,12.576923 L37.5724286,12.576923 Z M43.0675665,12.576923 L43.0675665,6.36831751 L48.2108885,12.576923 L50.9240324,12.576923 L50.9240324,0.925384538 L47.6948918,0.925384538 L47.6948918,7.13399003 L42.5515698,0.925384538 L39.8384258,0.925384538 L39.8384258,12.576923 L43.0675665,12.576923 Z M10.5196747,30.153846 L10.5196747,27.6071526 L4.42758462,27.6071526 L4.42758462,25.4765856 L9.6041967,25.4765856 L9.6041967,23.0131174 L4.42758462,23.0131174 L4.42758462,21.0490009 L10.303289,21.0490009 L10.303289,18.5023075 L1.16515385,18.5023075 L1.16515385,30.153846 L10.5196747,30.153846 Z M18.2951852,30.153846 C19.571306,30.153846 20.7031698,29.9152669 21.6907764,29.4381086 C22.678383,28.9609504 23.4440555,28.2840515 23.987794,27.4074119 C24.5315324,26.5307724 24.8034017,25.5043273 24.8034017,24.3280768 C24.8034017,23.1518262 24.5315324,22.1253812 23.987794,21.2487416 C23.4440555,20.372102 22.678383,19.6952031 21.6907764,19.2180449 C20.7031698,18.7408867 19.571306,18.5023075 18.2951852,18.5023075 L18.2951852,18.5023075 L12.785672,18.5023075 L12.785672,30.153846 L18.2951852,30.153846 Z M18.1620247,27.5239273 L16.0813929,27.5239273 L16.0813929,21.1322262 L18.1620247,21.1322262 C19.160728,21.1322262 19.9624648,21.4151922 20.5672352,21.981124 C21.1720055,22.5470559 21.4743907,23.3293735 21.4743907,24.3280768 C21.4743907,25.3267801 21.1720055,26.1090976 20.5672352,26.6750295 C19.9624648,27.2409614 19.160728,27.5239273 18.1620247,27.5239273 L18.1620247,27.5239273 Z M32.3458813,30.3868768 C34.076967,30.3868768 35.4224423,29.9152669 36.3823072,28.9720471 C37.342172,28.0288273 37.8221044,26.6916746 37.8221044,24.9605889 L37.8221044,24.9605889 L37.8221044,18.5023075 L34.5763187,18.5023075 L34.5763187,24.8607185 C34.5763187,26.7249647 33.8439363,27.6570878 32.3791714,27.6570878 C30.9033099,27.6570878 30.1653791,26.7249647 30.1653791,24.8607185 L30.1653791,24.8607185 L30.1653791,18.5023075 L26.8696583,18.5023075 L26.8696583,24.9605889 C26.8696583,26.6916746 27.3495907,28.0288273 28.3094555,28.9720471 C29.2693203,29.9152669 30.6147956,30.3868768 32.3458813,30.3868768 Z M46.2967072,30.3868768 C47.3619907,30.3868768 48.3218555,30.1982328 49.1763017,29.8209449 C50.0307478,29.443657 50.7409368,28.8999185 51.3068687,28.1897295 L51.3068687,28.1897295 L49.2095918,26.2921933 C48.4550159,27.2021229 47.5395379,27.6570878 46.4631577,27.6570878 C45.8306456,27.6570878 45.2674879,27.518379 44.7736846,27.2409614 C44.2798813,26.9635438 43.8970451,26.572385 43.6251758,26.067485 C43.3533066,25.562585 43.217372,24.9827823 43.217372,24.3280768 C43.217372,23.6733713 43.3533066,23.0935685 43.6251758,22.5886685 C43.8970451,22.0837685 44.2798813,21.6926097 44.7736846,21.4151922 C45.2674879,21.1377746 45.8306456,20.9990658 46.4631577,20.9990658 C47.5395379,20.9990658 48.4550159,21.4540306 49.2095918,22.3639603 L49.2095918,22.3639603 L51.3068687,20.466424 C50.7409368,19.756235 50.0307478,19.2124965 49.1763017,18.8352086 C48.3218555,18.4579207 47.3619907,18.2692768 46.2967072,18.2692768 C45.0760698,18.2692768 43.9802703,18.5272751 43.0093088,19.0432718 C42.0383473,19.5592685 41.2754489,20.2777801 40.7206137,21.1988064 C40.1657786,22.1198328 39.888361,23.1629229 39.888361,24.3280768 C39.888361,25.4932306 40.1657786,26.5363207 40.7206137,27.4573471 C41.2754489,28.3783735 42.0383473,29.096885 43.0093088,29.6128817 C43.9802703,30.1288784 45.0760698,30.3868768 46.2967072,30.3868768 Z M54.9710506,30.153846 L55.8865286,27.8901185 L60.8134649,27.8901185 L61.7289429,30.153846 L65.1578242,30.153846 L59.9978572,18.5023075 L56.7520714,18.5023075 L51.6087495,30.153846 L54.9710506,30.153846 Z M59.8480517,25.4599405 L56.8519418,25.4599405 L58.3499967,21.7314482 L59.8480517,25.4599405 Z M71.7182456,30.153846 L71.7182456,21.1155812 L75.2802874,21.1155812 L75.2802874,18.5023075 L64.8438379,18.5023075 L64.8438379,21.1155812 L68.4225247,21.1155812 L68.4225247,30.153846 L71.7182456,30.153846 Z M80.2427835,30.153846 L80.2427835,18.5023075 L76.9470627,18.5023075 L76.9470627,30.153846 L80.2427835,30.153846 Z M88.9004819,30.3868768 C90.132216,30.3868768 91.2391121,30.1261042 92.2211704,29.6045592 C93.2032286,29.0830141 93.9744495,28.3617284 94.534833,27.440702 C95.0952165,26.5196757 95.3754083,25.4821339 95.3754083,24.3280768 C95.3754083,23.1740196 95.0952165,22.1364779 94.534833,21.2154515 C93.9744495,20.2944251 93.2032286,19.5731394 92.2211704,19.0515944 C91.2391121,18.5300493 90.132216,18.2692768 88.9004819,18.2692768 C87.6687478,18.2692768 86.5618517,18.5300493 85.5797934,19.0515944 C84.5977352,19.5731394 83.8265143,20.2944251 83.2661308,21.2154515 C82.7057473,22.1364779 82.4255555,23.1740196 82.4255555,24.3280768 C82.4255555,25.4821339 82.7057473,26.5196757 83.2661308,27.440702 C83.8265143,28.3617284 84.5977352,29.0830141 85.5797934,29.6045592 C86.5618517,30.1261042 87.6687478,30.3868768 88.9004819,30.3868768 Z M88.9004819,27.6570878 C88.3123566,27.6570878 87.7797149,27.518379 87.3025566,27.2409614 C86.8253984,26.9635438 86.4481105,26.572385 86.1706929,26.067485 C85.8932753,25.562585 85.7545665,24.9827823 85.7545665,24.3280768 C85.7545665,23.6733713 85.8932753,23.0935685 86.1706929,22.5886685 C86.4481105,22.0837685 86.8253984,21.6926097 87.3025566,21.4151922 C87.7797149,21.1377746 88.3123566,20.9990658 88.9004819,20.9990658 C89.4886072,20.9990658 90.0212489,21.1377746 90.4984072,21.4151922 C90.9755654,21.6926097 91.3528533,22.0837685 91.6302709,22.5886685 C91.9076885,23.0935685 92.0463973,23.6733713 92.0463973,24.3280768 C92.0463973,24.9827823 91.9076885,25.562585 91.6302709,26.067485 C91.3528533,26.572385 90.9755654,26.9635438 90.4984072,27.2409614 C90.0212489,27.518379 89.4886072,27.6570878 88.9004819,27.6570878 Z M100.770676,30.153846 L100.770676,23.9452405 L105.913998,30.153846 L108.627142,30.153846 L108.627142,18.5023075 L105.398001,18.5023075 L105.398001,24.710913 L100.254679,18.5023075 L97.5415352,18.5023075 L97.5415352,30.153846 L100.770676,30.153846 Z" id="OPENEDUCATION"></path>
                </g>
            </g>
        </g>
    </g>
</svg>