<?xml version="1.0" encoding="UTF-8"?>
<svg width="205px" height="124px" viewBox="0 0 205 124" version="1.1" xmlns="http://www.w3.org/2000/svg" xmlns:xlink="http://www.w3.org/1999/xlink">
    <title>logo-wide</title>
    <g id="Badges" stroke="none" stroke-width="1" fill="none" fill-rule="evenodd">
        <g id="Banner-(Landscape)" transform="translate(-564.000000, -95.000000)" fill-rule="nonzero">
            <g id="logo-wide" transform="translate(564.000000, 96.000000)">
                <g id="Group-3" transform="translate(77.400000, 41.400000)" fill="#FFFFFF">
                    <path d="M17.9993151,55.6664835 L17.9993151,50.5051294 L11.3431426,50.5051294 L14.1635547,47.9385544 C15.4985497,46.7351786 16.3963809,45.6587213 16.8570482,44.7091826 C17.3177155,43.7596438 17.5480492,42.7395948 17.5480492,41.6490354 C17.5480492,40.4268569 17.2095997,39.3456989 16.5327008,38.4055615 C15.8558019,37.4654242 14.9156646,36.7415184 13.7122887,36.2338442 C12.5089129,35.7261701 11.126911,35.472333 9.56628297,35.472333 C7.51678352,35.472333 5.76812802,35.8812927 4.32031648,36.6992122 C2.87250495,37.5171317 1.77254423,38.6311945 1.02043434,40.0414005 L1.02043434,40.0414005 L6.04076786,42.5515673 C6.32280907,41.9686821 6.72706813,41.5174162 7.25354505,41.1977695 C7.78002198,40.8781228 8.3441044,40.7182995 8.94579231,40.7182995 C9.56628297,40.7182995 10.0410523,40.8546194 10.3701004,41.1272592 C10.6991485,41.399899 10.8636725,41.7806547 10.8636725,42.2695261 C10.8636725,42.6643838 10.7602574,43.0686429 10.5534272,43.4823033 C10.346597,43.8959637 9.93293654,44.3942365 9.31244588,44.9771217 L9.31244588,44.9771217 L2.1768033,51.576886 L2.1768033,55.6664835 L17.9993151,55.6664835 Z M28.8814051,56.1177495 C30.6300606,56.1177495 32.1765866,55.7087897 33.520983,54.8908702 C34.8653794,54.0729507 35.9183333,52.8883776 36.6798446,51.337151 C37.4413558,49.7859243 37.8221114,47.9385544 37.8221114,45.7950412 C37.8221114,43.651528 37.4413558,41.8041581 36.6798446,40.2529315 C35.9183333,38.7017048 34.8653794,37.5171317 33.520983,36.6992122 C32.1765866,35.8812927 30.6300606,35.472333 28.8814051,35.472333 C27.1327496,35.472333 25.5862237,35.8812927 24.2418272,36.6992122 C22.8974308,37.5171317 21.844477,38.7017048 21.0829657,40.2529315 C20.3214544,41.8041581 19.9406988,43.651528 19.9406988,45.7950412 C19.9406988,47.9385544 20.3214544,49.7859243 21.0829657,51.337151 C21.844477,52.8883776 22.8974308,54.0729507 24.2418272,54.8908702 C25.5862237,55.7087897 27.1327496,56.1177495 28.8814051,56.1177495 Z M28.8814051,50.7871706 C27.3771853,50.7871706 26.6250755,49.1231275 26.6250755,45.7950412 C26.6250755,42.4669549 27.3771853,40.8029118 28.8814051,40.8029118 C30.3856249,40.8029118 31.1377348,42.4669549 31.1377348,45.7950412 C31.1377348,49.1231275 30.3856249,50.7871706 28.8814051,50.7871706 Z M55.5578028,55.6664835 L55.5578028,50.5051294 L48.9016303,50.5051294 L51.7220424,47.9385544 C53.0570375,46.7351786 53.9548686,45.6587213 54.4155359,44.7091826 C54.8762032,43.7596438 55.1065369,42.7395948 55.1065369,41.6490354 C55.1065369,40.4268569 54.7680875,39.3456989 54.0911886,38.4055615 C53.4142896,37.4654242 52.4741523,36.7415184 51.2707765,36.2338442 C50.0674006,35.7261701 48.6853987,35.472333 47.1247707,35.472333 C45.0752712,35.472333 43.3266157,35.8812927 41.8788042,36.6992122 C40.4309927,37.5171317 39.331032,38.6311945 38.5789221,40.0414005 L38.5789221,40.0414005 L43.5992556,42.5515673 C43.8812968,41.9686821 44.2855559,41.5174162 44.8120328,41.1977695 C45.3385097,40.8781228 45.9025921,40.7182995 46.50428,40.7182995 C47.1247707,40.7182995 47.5995401,40.8546194 47.9285881,41.1272592 C48.2576362,41.399899 48.4221603,41.7806547 48.4221603,42.2695261 C48.4221603,42.6643838 48.3187451,43.0686429 48.1119149,43.4823033 C47.9050847,43.8959637 47.4914243,44.3942365 46.8709336,44.9771217 L46.8709336,44.9771217 L39.735291,51.576886 L39.735291,55.6664835 L55.5578028,55.6664835 Z M66.4398929,56.1177495 C68.1885483,56.1177495 69.7350743,55.7087897 71.0794707,54.8908702 C72.4238672,54.0729507 73.476821,52.8883776 74.2383323,51.337151 C74.9998435,49.7859243 75.3805992,47.9385544 75.3805992,45.7950412 C75.3805992,43.651528 74.9998435,41.8041581 74.2383323,40.2529315 C73.476821,38.7017048 72.4238672,37.5171317 71.0794707,36.6992122 C69.7350743,35.8812927 68.1885483,35.472333 66.4398929,35.472333 C64.6912374,35.472333 63.1447114,35.8812927 61.800315,36.6992122 C60.4559185,37.5171317 59.4029647,38.7017048 58.6414534,40.2529315 C57.8799422,41.8041581 57.4991865,43.651528 57.4991865,45.7950412 C57.4991865,47.9385544 57.8799422,49.7859243 58.6414534,51.337151 C59.4029647,52.8883776 60.4559185,54.0729507 61.800315,54.8908702 C63.1447114,55.7087897 64.6912374,56.1177495 66.4398929,56.1177495 Z M66.4398929,50.7871706 C64.9356731,50.7871706 64.1835632,49.1231275 64.1835632,45.7950412 C64.1835632,42.4669549 64.9356731,40.8029118 66.4398929,40.8029118 C67.9441126,40.8029118 68.6962225,42.4669549 68.6962225,45.7950412 C68.6962225,49.1231275 67.9441126,50.7871706 66.4398929,50.7871706 Z" id="2020"></path>
                    <path d="M5.28064368,14.3574654 C6.20444423,14.3574654 7.03461635,14.161886 7.77116003,13.7707272 C8.50770371,13.3795684 9.08611937,12.8386041 9.50640701,12.1478343 C9.92669464,11.4570646 10.1368385,10.6789082 10.1368385,9.81336538 C10.1368385,8.94782253 9.92669464,8.16966621 9.50640701,7.47889643 C9.08611937,6.78812665 8.50770371,6.24716236 7.77116003,5.85600357 C7.03461635,5.46484478 6.20444423,5.26926538 5.28064368,5.26926538 C4.35684313,5.26926538 3.52667102,5.46484478 2.79012734,5.85600357 C2.05358365,6.24716236 1.47516799,6.78812665 1.05488036,7.47889643 C0.63459272,8.16966621 0.424448901,8.94782253 0.424448901,9.81336538 C0.424448901,10.6789082 0.63459272,11.4570646 1.05488036,12.1478343 C1.47516799,12.8386041 2.05358365,13.3795684 2.79012734,13.7707272 C3.52667102,14.161886 4.35684313,14.3574654 5.28064368,14.3574654 Z M5.28064368,12.3101236 C4.83954973,12.3101236 4.44006841,12.206092 4.08219973,11.9980288 C3.72433104,11.7899657 3.44136511,11.4965966 3.23330192,11.1179216 C3.02523874,10.7392466 2.92120714,10.3043945 2.92120714,9.81336538 C2.92120714,9.32233626 3.02523874,8.8874842 3.23330192,8.5088092 C3.44136511,8.1301342 3.72433104,7.83676511 4.08219973,7.62870192 C4.44006841,7.42063874 4.83954973,7.31660714 5.28064368,7.31660714 C5.72173764,7.31660714 6.12121896,7.42063874 6.47908764,7.62870192 C6.83695632,7.83676511 7.11992225,8.1301342 7.32798544,8.5088092 C7.53604863,8.8874842 7.64008022,9.32233626 7.64008022,9.81336538 C7.64008022,10.3043945 7.53604863,10.7392466 7.32798544,11.1179216 C7.11992225,11.4965966 6.83695632,11.7899657 6.47908764,11.9980288 C6.12121896,12.206092 5.72173764,12.3101236 5.28064368,12.3101236 Z M14.2332243,14.1826923 L14.2332243,11.8981585 L15.7562468,11.8981585 C16.546887,11.8981585 17.2334955,11.7670787 17.8160724,11.5049191 C18.3986493,11.2427595 18.8480658,10.8703264 19.1643218,10.3876198 C19.4805779,9.90491319 19.6387059,9.33482005 19.6387059,8.67734038 C19.6387059,8.01986071 19.4805779,7.44768695 19.1643218,6.96081909 C18.8480658,6.47395124 18.3986493,6.0994375 17.8160724,5.83727788 C17.2334955,5.57511827 16.546887,5.44403846 15.7562468,5.44403846 L15.7562468,5.44403846 L11.7614337,5.44403846 L11.7614337,14.1826923 L14.2332243,14.1826923 Z M15.6064413,9.95068709 L14.2332243,9.95068709 L14.2332243,7.39150989 L15.6064413,7.39150989 C16.1141155,7.39150989 16.4969518,7.50386401 16.7549501,7.72857225 C17.0129485,7.95328049 17.1419477,8.26953654 17.1419477,8.67734038 C17.1419477,9.08514423 17.0129485,9.39931964 16.7549501,9.61986662 C16.4969518,9.8404136 16.1141155,9.95068709 15.6064413,9.95068709 L15.6064413,9.95068709 Z M28.1793214,14.1826923 L28.1793214,12.2726723 L23.6102539,12.2726723 L23.6102539,10.674747 L27.4927129,10.674747 L27.4927129,8.82714588 L23.6102539,8.82714588 L23.6102539,7.35405852 L28.0170321,7.35405852 L28.0170321,5.44403846 L21.1634308,5.44403846 L21.1634308,14.1826923 L28.1793214,14.1826923 Z M32.3006749,14.1826923 L32.3006749,9.52623819 L36.1581664,14.1826923 L38.1930243,14.1826923 L38.1930243,5.44403846 L35.7711688,5.44403846 L35.7711688,10.1004926 L31.9136773,5.44403846 L29.8788194,5.44403846 L29.8788194,14.1826923 L32.3006749,14.1826923 Z M51.2419908,14.1826923 L51.2419908,12.2726723 L46.6729232,12.2726723 L46.6729232,10.674747 L50.5553823,10.674747 L50.5553823,8.82714588 L46.6729232,8.82714588 L46.6729232,7.35405852 L51.0797015,7.35405852 L51.0797015,5.44403846 L44.2261002,5.44403846 L44.2261002,14.1826923 L51.2419908,14.1826923 Z M57.0736236,14.1826923 C58.0307143,14.1826923 58.8796121,14.003758 59.6203171,13.6458893 C60.361022,13.2880206 60.9352764,12.7803464 61.3430802,12.1228668 C61.7508841,11.4653871 61.954786,10.6955533 61.954786,9.81336538 C61.954786,8.93117747 61.7508841,8.16134368 61.3430802,7.50386401 C60.9352764,6.84638434 60.361022,6.33871016 59.6203171,5.98084148 C58.8796121,5.6229728 58.0307143,5.44403846 57.0736236,5.44403846 L57.0736236,5.44403846 L52.9414888,5.44403846 L52.9414888,14.1826923 L57.0736236,14.1826923 Z M56.9737533,12.2102533 L55.4132794,12.2102533 L55.4132794,7.41647747 L56.9737533,7.41647747 C57.7227808,7.41647747 58.3240834,7.62870192 58.7776611,8.05315082 C59.2312389,8.47759973 59.4580278,9.06433791 59.4580278,9.81336538 C59.4580278,10.5623929 59.2312389,11.149131 58.7776611,11.5735799 C58.3240834,11.9980288 57.7227808,12.2102533 56.9737533,12.2102533 L56.9737533,12.2102533 Z M67.6116458,14.3574654 C68.90996,14.3574654 69.9190665,14.003758 70.6389651,13.2963431 C71.3588638,12.5889283 71.7188131,11.5860637 71.7188131,10.2877495 L71.7188131,10.2877495 L71.7188131,5.44403846 L69.2844738,5.44403846 L69.2844738,10.2128467 C69.2844738,11.6110313 68.735187,12.3101236 67.6366133,12.3101236 C66.5297172,12.3101236 65.9762691,11.6110313 65.9762691,10.2128467 L65.9762691,10.2128467 L65.9762691,5.44403846 L63.5044785,5.44403846 L63.5044785,10.2877495 C63.5044785,11.5860637 63.8644278,12.5889283 64.5843264,13.2963431 C65.304225,14.003758 66.3133315,14.3574654 67.6116458,14.3574654 Z M78.0747651,14.3574654 C78.8737278,14.3574654 79.5936264,14.2159824 80.234461,13.9330165 C80.8752956,13.6500505 81.4079374,13.2422467 81.8323863,12.7096049 L81.8323863,12.7096049 L80.2594286,11.2864527 C79.6934967,11.9689 79.0068882,12.3101236 78.199603,12.3101236 C77.725219,12.3101236 77.3028507,12.206092 76.9324982,11.9980288 C76.5621458,11.7899657 76.2750186,11.4965966 76.0711166,11.1179216 C75.8672147,10.7392466 75.7652638,10.3043945 75.7652638,9.81336538 C75.7652638,9.32233626 75.8672147,8.8874842 76.0711166,8.5088092 C76.2750186,8.1301342 76.5621458,7.83676511 76.9324982,7.62870192 C77.3028507,7.42063874 77.725219,7.31660714 78.199603,7.31660714 C79.0068882,7.31660714 79.6934967,7.65783077 80.2594286,8.34027802 L80.2594286,8.34027802 L81.8323863,6.91712582 C81.4079374,6.38448407 80.8752956,5.97668022 80.234461,5.69371429 C79.5936264,5.41074835 78.8737278,5.26926538 78.0747651,5.26926538 C77.1592871,5.26926538 76.3374375,5.46276415 75.6092164,5.84976168 C74.8809952,6.2367592 74.3088215,6.77564286 73.8926951,7.46641264 C73.4765687,8.15718242 73.2685055,8.9395 73.2685055,9.81336538 C73.2685055,10.6872308 73.4765687,11.4695484 73.8926951,12.1603181 C74.3088215,12.8510879 74.8809952,13.3899716 75.6092164,13.7769691 C76.3374375,14.1639666 77.1592871,14.3574654 78.0747651,14.3574654 Z M84.5805227,14.1826923 L85.2671312,12.4848967 L88.9623334,12.4848967 L89.6489419,14.1826923 L92.2206029,14.1826923 L88.3506276,5.44403846 L85.9162884,5.44403846 L82.0587969,14.1826923 L84.5805227,14.1826923 Z M88.2382735,10.6622632 L85.9911911,10.6622632 L87.1147323,7.86589396 L88.2382735,10.6622632 Z M97.140919,14.1826923 L97.140919,7.40399368 L99.8124503,7.40399368 L99.8124503,5.44403846 L91.9851132,5.44403846 L91.9851132,7.40399368 L94.6691283,7.40399368 L94.6691283,14.1826923 L97.140919,14.1826923 Z M103.534322,14.1826923 L103.534322,5.44403846 L101.062532,5.44403846 L101.062532,14.1826923 L103.534322,14.1826923 Z M110.027596,14.3574654 C110.951397,14.3574654 111.781569,14.161886 112.518113,13.7707272 C113.254656,13.3795684 113.833072,12.8386041 114.25336,12.1478343 C114.673647,11.4570646 114.883791,10.6789082 114.883791,9.81336538 C114.883791,8.94782253 114.673647,8.16966621 114.25336,7.47889643 C113.833072,6.78812665 113.254656,6.24716236 112.518113,5.85600357 C111.781569,5.46484478 110.951397,5.26926538 110.027596,5.26926538 C109.103796,5.26926538 108.273624,5.46484478 107.53708,5.85600357 C106.800536,6.24716236 106.222121,6.78812665 105.801833,7.47889643 C105.381545,8.16966621 105.171401,8.94782253 105.171401,9.81336538 C105.171401,10.6789082 105.381545,11.4570646 105.801833,12.1478343 C106.222121,12.8386041 106.800536,13.3795684 107.53708,13.7707272 C108.273624,14.161886 109.103796,14.3574654 110.027596,14.3574654 Z M110.027596,12.3101236 C109.586502,12.3101236 109.187021,12.206092 108.829152,11.9980288 C108.471284,11.7899657 108.188318,11.4965966 107.980254,11.1179216 C107.772191,10.7392466 107.66816,10.3043945 107.66816,9.81336538 C107.66816,9.32233626 107.772191,8.8874842 107.980254,8.5088092 C108.188318,8.1301342 108.471284,7.83676511 108.829152,7.62870192 C109.187021,7.42063874 109.586502,7.31660714 110.027596,7.31660714 C110.46869,7.31660714 110.868171,7.42063874 111.22604,7.62870192 C111.583909,7.83676511 111.866875,8.1301342 112.074938,8.5088092 C112.283001,8.8874842 112.387033,9.32233626 112.387033,9.81336538 C112.387033,10.3043945 112.283001,10.7392466 112.074938,11.1179216 C111.866875,11.4965966 111.583909,11.7899657 111.22604,11.9980288 C110.868171,12.206092 110.46869,12.3101236 110.027596,12.3101236 Z M118.930242,14.1826923 L118.930242,9.52623819 L122.787733,14.1826923 L124.822591,14.1826923 L124.822591,5.44403846 L122.400736,5.44403846 L122.400736,10.1004926 L118.543244,5.44403846 L116.508386,5.44403846 L116.508386,14.1826923 L118.930242,14.1826923 Z M2.99888407,30.3653846 L3.87621717,28.1959791 L8.59786442,28.1959791 L9.47519753,30.3653846 L12.7612088,30.3653846 L7.81624038,19.1993269 L4.70569574,19.1993269 L-0.223321154,30.3653846 L2.99888407,30.3653846 Z M7.67267679,25.8670585 L4.80140481,25.8670585 L6.2370408,22.2939201 L7.67267679,25.8670585 Z M19.5906307,30.3653846 L21.8238422,23.5700409 L23.9613447,30.3653846 L27.343065,30.3653846 L30.964058,19.1993269 L27.9492225,19.1993269 L25.6043503,26.3934584 L23.3551873,19.1993269 L20.4520123,19.1993269 L18.0911887,26.3296523 L15.8420256,19.1993269 L12.5879174,19.1993269 L16.2089104,30.3653846 L19.5906307,30.3653846 Z M34.0129718,30.3653846 L34.890305,28.1959791 L39.6119522,28.1959791 L40.4892853,30.3653846 L43.7752966,30.3653846 L38.8303282,19.1993269 L35.7197835,19.1993269 L30.7907666,30.3653846 L34.0129718,30.3653846 Z M38.6867646,25.8670585 L35.8154926,25.8670585 L37.2511286,22.2939201 L38.6867646,25.8670585 Z M48.2438949,30.3653846 L48.2438949,27.3984036 L49.966658,27.3984036 L51.9924999,30.3653846 L55.3742203,30.3653846 L52.9655421,26.8560522 C53.6674086,26.5157533 54.2071014,26.0451837 54.5846205,25.4443435 C54.9621396,24.8435032 55.1508991,24.1389782 55.1508991,23.3307683 C55.1508991,22.4906554 54.9488466,21.7595444 54.5447417,21.1374355 C54.1406368,20.5153266 53.5663824,20.0367813 52.8219785,19.7017995 C52.0775747,19.3668178 51.2002416,19.1993269 50.1899792,19.1993269 L50.1899792,19.1993269 L45.0854957,19.1993269 L45.0854957,30.3653846 L48.2438949,30.3653846 Z M49.9985611,24.9578224 L48.2438949,24.9578224 L48.2438949,21.6877626 L49.9985611,21.6877626 C50.6472559,21.6877626 51.1364355,21.8313262 51.4661001,22.1184534 C51.7957646,22.4055806 51.9605969,22.8096856 51.9605969,23.3307683 C51.9605969,23.851851 51.7957646,24.2532973 51.4661001,24.5351073 C51.1364355,24.8169174 50.6472559,24.9578224 49.9985611,24.9578224 L49.9985611,24.9578224 Z M62.5864785,30.3653846 C63.8094276,30.3653846 64.8941304,30.1367463 65.8405867,29.6794696 C66.787043,29.222193 67.5208125,28.5734982 68.0418952,27.7333853 C68.5629779,26.8932724 68.8235192,25.9095959 68.8235192,24.7823558 C68.8235192,23.6551157 68.5629779,22.6714391 68.0418952,21.8313262 C67.5208125,20.9912133 66.787043,20.3425185 65.8405867,19.8852419 C64.8941304,19.4279652 63.8094276,19.1993269 62.5864785,19.1993269 L62.5864785,19.1993269 L57.3065283,19.1993269 L57.3065283,30.3653846 L62.5864785,30.3653846 Z M62.4588664,27.8450459 L60.4649275,27.8450459 L60.4649275,21.7196657 L62.4588664,21.7196657 C63.415957,21.7196657 64.1842881,21.9908413 64.7638597,22.5331927 C65.3434313,23.0755441 65.633217,23.8252651 65.633217,24.7823558 C65.633217,25.7394464 65.3434313,26.4891674 64.7638597,27.0315188 C64.1842881,27.5738702 63.415957,27.8450459 62.4588664,27.8450459 L62.4588664,27.8450459 Z M74.8234626,30.5887058 C75.8868967,30.5887058 76.7908156,30.4265321 77.5352195,30.1021847 C78.2796233,29.7778373 78.8379262,29.3444879 79.2101281,28.8021365 C79.58233,28.2597852 79.768431,27.6536277 79.768431,26.9836643 C79.768431,26.2073574 79.5637199,25.5932242 79.1542978,25.1412648 C78.7448757,24.6893053 78.2610132,24.3596407 77.7027103,24.1522711 C77.1444074,23.9449014 76.4398824,23.7508247 75.5891351,23.5700409 C74.8340969,23.4105258 74.2864284,23.2563279 73.9461295,23.1074471 C73.6058306,22.9585663 73.4356811,22.7352452 73.4356811,22.4374837 C73.4356811,22.1397221 73.5792447,21.8977909 73.8663719,21.7116899 C74.1534991,21.5255889 74.6107758,21.4325385 75.2382019,21.4325385 C76.2378299,21.4325385 77.2693609,21.7196657 78.332795,22.2939201 L78.332795,22.2939201 L79.3058372,19.9490479 C78.7634858,19.6300177 78.1360597,19.3880865 77.4235589,19.2232542 C76.7110581,19.0584219 75.9879229,18.9760058 75.2541534,18.9760058 C74.180085,18.9760058 73.2735074,19.1355209 72.5344208,19.4545511 C71.7953341,19.7735813 71.2396898,20.2069307 70.8674879,20.7545992 C70.4952859,21.3022678 70.309185,21.916401 70.309185,22.5969988 C70.309185,23.3733056 70.5112375,23.9900974 70.9153424,24.447374 C71.3194473,24.9046507 71.8033098,25.2369738 72.3669299,25.4443435 C72.93055,25.6517131 73.6324164,25.8457898 74.4725293,26.0265736 C75.2382019,26.1967231 75.7938462,26.3588968 76.1394622,26.5130947 C76.4850783,26.6672927 76.6578864,26.9039067 76.6578864,27.222937 C76.6578864,27.8290944 76.0517289,28.1321731 74.8394141,28.1321731 C74.2013537,28.1321731 73.5526589,28.0311468 72.8933298,27.8290944 C72.2340006,27.6270419 71.6544291,27.3611834 71.1546151,27.0315188 L71.1546151,27.0315188 L70.1177668,29.3604394 C70.6494839,29.7326413 71.340716,30.0304029 72.1914633,30.253724 C73.0422105,30.4770452 73.9195436,30.5887058 74.8234626,30.5887058 Z" id="OPENEDUCATIONAWARDS"></path>
                </g>
                <g id="award-trophy">
                    <path d="M69.795922,36.4009923 C70.4472537,36.6001244 70.8138339,37.2895615 70.6147019,37.9408932 C70.596948,37.9989634 70.5749294,38.055643 70.5488257,38.1104695 L43.6819684,94.5398277 C43.5636934,94.8266687 43.4445653,95.1100189 43.3245841,95.3898782 L42.9620811,96.2189836 L42.9620811,96.2189836 L42.5944596,97.027144 C36.7949592,109.524255 29.1109566,114.310118 19.5424515,111.384732 C10.6864947,108.677195 6.82026915,101.383179 7.94377476,89.5026861 L8.02916869,88.6760703 C8.04471948,88.5370891 8.0609295,88.397502 8.07779876,88.2573088 L8.18692506,87.4088786 C8.20643125,87.2662617 8.22659666,87.1230388 8.24742131,86.9792099 L8.38027999,86.1089653 C8.45066473,85.6702072 8.52698255,85.2259956 8.60923347,84.7763304 L8.78164611,83.8697284 L8.78164611,83.8697284 L17.1290527,32.6476676 C17.2481209,31.9170316 17.9369422,31.4212579 18.6675782,31.5403261 C18.7272039,31.550043 18.7861045,31.5637798 18.843877,31.5814427 C19.6868562,31.8391673 20.213179,32.6762539 20.080143,33.5476535 L12.236256,84.9259087 C11.0224082,93.2137195 14.8146842,101.195315 21.9872411,103.388186 C28.6158787,105.414764 35.0465995,103.25944 40.3951485,93.5349461 L67.8019029,37.2686322 C68.1625624,36.528195 69.0083062,36.160194 69.795922,36.4009923 Z M29.6062074,78.8819635 C34.5972488,80.407878 37.4062892,85.6909146 35.8803747,90.6819561 C34.3544602,95.6729975 29.0714236,98.4820379 24.0803821,96.9561234 C19.0893407,95.4302089 16.2803003,90.1471723 17.8062148,85.1561308 C19.3321293,80.1650894 24.6151659,77.356049 29.6062074,78.8819635 Z M44.7578261,3.203062 C59.0652851,3.203062 69.5448713,13.2993961 69.5448713,27.1982457 C69.5448713,41.0970953 59.0652851,51.1934295 44.7578261,51.1934295 C30.4503671,51.1934295 19.9707809,41.0970953 19.9707809,27.1982457 C19.9707809,13.2993961 30.4503671,3.203062 44.7578261,3.203062 Z M54.7307226,27.354299 C54.7307226,20.2707208 50.3212663,15.9815817 44.8409419,15.9815817 C39.3606176,15.9815817 34.9511613,20.2707208 34.9511613,27.354299 C34.9511613,34.4378772 39.3606176,38.7270163 44.8409419,38.7270163 C50.3212663,38.7270163 54.7307226,34.4378772 54.7307226,27.354299 Z" fill="#FFE525"></path>
                    <path d="M80.0006355,21.4646125 L80.392052,23.4216947 L73.9349698,24.7131111 L73.5435534,22.756029 L80.0006355,21.4646125 Z M77.0357471,9.65725206 L78.2332511,11.2539241 L73.0365791,15.1514281 L71.8390751,13.5547561 L77.0357471,9.65725206 Z M68.3625494,-0.78723034 L70.147683,0.105336442 L67.4551162,5.49047001 L65.6699826,4.59790322 L68.3625494,-0.78723034 Z" id="sparkles" fill="#FFE525"></path>
                    <polygon id="base" fill-opacity="0" fill="#FFFFFF" points="5.02910156 115.768013 44.4708984 115.768013 49.5 122.068013 0 122.068013"></polygon>
                </g>
            </g>
        </g>
    </g>
</svg>