<?xml version="1.0" encoding="UTF-8"?>
<svg width="423px" height="84px" viewBox="0 0 423 84" version="1.1" xmlns="http://www.w3.org/2000/svg" xmlns:xlink="http://www.w3.org/1999/xlink">
    <!-- Generator: Sketch 56.3 (81716) - https://sketch.com -->
    <title>logo-primary</title>
    <desc>Created with Sketch.</desc>
    <g id="Badges" stroke="none" stroke-width="1" fill="none" fill-rule="evenodd">
        <g id="logo/mobile/primary" transform="translate(0.000000, -1.000000)">
            <g transform="translate(0.000000, 1.000000)">
                <path d="M57.0503265,3.37248561 C57.036898,3.36769222 57.0129184,3.36289883 57.0023673,3.35906412 C57.596102,3.48369222 57.596102,3.48369222 58.0910408,3.69747734 L57.8886531,3.61982445 C57.6383061,3.53354346 57.4723673,3.47985751 57.0503265,3.37248561" id="Fill-1" fill="#7FB041"></path>
                <path d="M35.5483061,1.52607239 C35.5176122,1.53565916 35.4763673,1.54716329 35.4456735,1.55483272 C40.0535918,0.199262468 40.2521429,0.199262468 42.1503673,0.191593046 L42.7584898,0.201179823 L42.6040612,0.201179823 C41.3580816,0.258700484 39.5442653,0.457146765 35.5483061,1.52607239 M47.6340204,0.635460815 C47.5054898,0.612452551 47.3337959,0.590402964 47.2023878,0.569312055 C47.8277755,0.671890567 48.666102,0.797477344 49.2895714,0.918270732 L49.9072857,1.04673354 C51.2789184,1.38322941 52.8347143,1.76670048 55.9232857,2.99093189 C54.8202245,2.56336164 51.4630816,1.26722941 47.6340204,0.635460815" id="Fill-2" fill="#7FB041"></path>
                <path d="M28.5894286,2.41189057 C28.5740816,2.41668396 28.5520204,2.42435338 28.5347551,2.43106412 C28.9788571,2.28342776 29.5697143,2.08977486 30.0176531,1.94597321 L30.0608163,1.93542776 C30.6344082,1.85489883 30.6344082,1.85489883 33.9205714,1.80313024 C32.7570816,1.85873354 30.0320408,1.98240296 28.5894286,2.41189057" id="Fill-3" fill="#7FB041"></path>
                <path d="M65.0978776,7.72967569 C66.4033265,8.7305352 69.3758367,11.1636592 69.3988571,11.1837914 C66.4704694,8.6528823 66.3572857,8.55317982 64.3266939,7.1621385 L64.2135102,7.08640296 C64.3669796,7.19185751 64.5962245,7.34812197 65.0978776,7.72967569" id="Fill-4" fill="#7FB041"></path>
                <path d="M56.4182245,3.21909718 L56.4182245,3.21909718 C56.5333265,3.261279 56.6513061,3.30633685 56.7683265,3.35235338 C56.6474694,3.31879966 56.5333265,3.26415503 56.4182245,3.21909718 M57.1922857,3.53641949 C57.0752653,3.48656825 56.9198776,3.4242542 56.8057347,3.37632032 C59.8684082,4.53440296 67.5553061,7.99810544 73.4581224,15.792155 C78.8199592,22.8777418 81.2534082,29.4092129 82.0965306,37.5042873 C81.0913061,27.850403 76.7625102,23.4069319 73.2221633,22.5354939 C70.7618571,21.9286509 68.5029796,22.8010476 65.424,23.3781716 C77.8646122,18.6662707 66.1779184,7.93387404 58.9945918,4.36855172 C58.8478367,4.29569222 58.0785714,3.91701453 57.1922857,3.53641949" id="Fill-5" fill="#26548D"></path>
                <path d="M44.1627347,2.09456825 C45.0480612,3.36769222 49.7777959,3.98028726 50.1163878,2.86438643 C50.2995918,2.25466743 48.6891224,1.37651867 46.3304898,1.15985751 C44.310449,1.04098148 43.7905714,1.56154346 44.1627347,2.09456825" id="Fill-6" fill="#7FB041"></path>
                <path d="M34.3445306,1.85106412 L34.3445306,1.85106412 C34.4433265,1.83955999 34.5402041,1.83284924 34.6380408,1.82134511 C34.5507551,1.84435338 34.5507551,1.84435338 34.3445306,1.85106412 M34.9670408,1.83284924 C34.8682449,1.83284924 34.7339592,1.83668396 34.6332449,1.83955999 C36.1334082,1.67850214 43.8471633,1.10808891 48.478102,5.45760958 C50.2497143,1.57208891 56.3194286,3.21909718 57.0052449,3.42137817 C52.9124082,2.48666743 50.8894898,5.65222115 54.3041837,11.2892459 C56.8920612,15.5591964 64.2221429,22.2546013 65.424,23.3781716 C53.5608163,14.0895435 50.8156327,11.2892459 49.5686939,9.73522941 C48.8560204,11.1952955 46.3803673,14.5794278 34.7013469,21.2825021 C47.3491429,12.7694443 47.574551,4.23529553 38.7797959,2.23261784 C38.2397755,2.1099071 36.7885306,1.82709718 34.9670408,1.83284924" id="Fill-7" fill="#7FB041"></path>
                <path d="M20.1150408,7.35675007 C19.7889184,7.8322542 19.9567755,8.06521288 20.5639388,7.98084924 C22.4324286,7.71337817 26.2077755,4.97347734 25.4356327,4.44812197 C25.1325306,4.23721288 24.2011633,4.62547734 23.850102,4.77119635 C21.9921633,5.60716329 20.5639388,6.70389057 20.1150408,7.35675007" id="Fill-8" fill="#26548D"></path>
                <path d="M15.3152857,10.0621385 L15.4505306,9.94709718 L15.4668367,9.93463437 C15.6346939,9.79850214 19.5769388,6.64061784 20.6752041,9.97489883 C24.8745102,4.48838643 32.0520816,2.39846908 34.9411429,1.75615503 C25.5344286,4.33979139 18.3856327,12.4156922 27.7923469,18.2703368 C29.4066531,19.2750311 32.5393469,20.8050806 34.4203061,21.3822046 C22.4362653,18.7151633 20.3346939,15.7969484 19.6575102,14.5957253 C16.5046735,20.5519897 11.7883673,26.7460063 8.33338776,32.4913616 C14.3167755,20.7303038 15.343102,18.8119897 16.2073265,16.1315269 C18.5602041,8.83119635 15.9358776,9.69017156 15.9090204,9.69784098 C15.6481224,9.79275007 15.3968163,9.99694842 15.3152857,10.0621385" id="Fill-9" fill="#26548D"></path>
                <path d="M1.83779592,52.6187997 C-1.128,40.3180063 1.3687551,32.9333121 2.64063265,28.5742046 C2.38644898,30.2490145 1.81957143,33.3666344 7.64373469,32.6025683 C-1.12032653,31.6918245 6.34595918,20.4187335 8.84463265,16.9857087 L8.62689796,17.2771468 C6.63755102,20.1934443 6.03997959,21.0744691 4.11106122,24.9446509 C2.61953061,28.5233947 2.60706122,29.4820724 1.56442857,33.4193616 C0.602367347,37.56756 1.23063265,48.0238575 1.83779592,52.6187997 C1.83779592,52.6187997 1.21240816,46.8303038 1.20473469,46.7008823" id="Fill-10" fill="#7FB041"></path>
                <path d="M73.9003061,31.017874 C74.0077347,34.3358575 76.3251224,37.4256757 77.6564694,36.0231302 C78.8276327,34.7893121 78.2252653,30.6037253 76.1735714,28.7611468 C74.516102,27.5551302 73.8465918,29.3564856 73.9003061,31.017874" id="Fill-11" fill="#26548D"></path>
                <path d="M65.5266327,23.5382707 C65.4076939,23.4318575 65.6839388,23.5382707 65.5266327,23.5382707 C66.2373878,23.5382707 74.657102,28.7400559 75.142449,40.3122542 C78.782551,33.8699402 81.4471633,36.5369815 82.0936531,37.6720559 C82.087898,37.6643864 82.1013265,37.6797253 82.0936531,37.6720559 C81.8567347,37.4697749 80.1445918,36.151593 77.011898,43.6983038 C76.1572653,45.7556261 75.9328163,46.5407831 71.3862857,65.0576426 C72.2332449,59.4407501 72.4883878,52.9600889 73.1204898,47.3259402 C71.8572449,48.9537749 69.1216531,52.3302377 60.0381837,55.4718245 C78.0027347,46.3097418 72.7099592,29.9106013 65.6311837,23.561279" id="Fill-12" fill="#26548D"></path>
                <path d="M47.4421837,23.8948988 C47.9889184,27.3125848 52.499,28.7410145 54.3396735,26.08356 C55.8129796,23.9543368 54.3310408,20.4848823 50.9930816,20.0649815 C48.106898,19.9882873 47.1793673,22.258436 47.4421837,23.8948988" id="Fill-13" fill="#7FB041"></path>
                <path d="M34.4222245,21.3822046 L34.4203061,21.3822046 C34.5584286,21.3860393 34.7013469,21.3946674 34.8413878,21.4080889 C34.8174082,21.4157583 34.7915102,21.4253451 34.7675306,21.4368492 C34.758898,21.4397253 34.7493061,21.446436 34.7397143,21.446436 C34.6821633,21.44356 34.6313265,21.4224691 34.5756939,21.4090476 C34.5248571,21.4004195 34.472102,21.389874 34.4222245,21.3822046 M35.3344082,21.5911964 C35.1876531,21.5518906 34.9929388,21.5068327 34.8461837,21.4713385 C34.9670408,21.4684856 47.2100612,21.7158245 51.2530204,32.1232294 C55.1003061,22.7646178 65.1017143,23.504717 65.5266327,23.5382707 C59.1221633,24.3646509 49.2799796,34.0204526 59.8818367,55.374998 C57.0129184,51.258436 52.6332857,44.6627335 51.0621429,39.7610145 C50.1681837,41.8077914 48.0560612,46.1122542 39.3821633,53.8545352 C53.8178776,36.9166178 45.6811224,24.3914939 35.3344082,21.5911964" id="Fill-14" fill="#7FB041"></path>
                <path d="M17.0485306,30.5471633 C17.7947755,33.4366178 21.2507143,33.305279 22.9196939,30.3209154 C24.5829184,27.3461385 22.8448776,24.0914278 20.0565306,24.9628658 C19.9558163,24.9973782 19.8157755,25.0529815 19.7169796,25.0913286 C17.2202245,26.3213121 16.6543061,29.0238245 17.0485306,30.5471633" id="Fill-15" fill="#26548D"></path>
                <path d="M8.64128571,32.8153947 C8.54920408,32.8211468 8.42642857,32.8374443 8.33338776,32.8489484 C8.40340816,32.8058079 16.121,29.1244856 21.6554898,36.9319567 C22.805551,26.3769154 32.5086531,22.1759897 34.5756939,21.4090476 C23.3129592,27.5877253 21.2238571,44.0463038 39.1500408,53.92356 C36.1650612,52.7760228 27.8086531,49.2519236 23.735,44.206403 C23.7043061,46.4640889 23.196898,47.3633286 20.6752041,61.8211468 C21.6861837,35.4939402 12.7485102,32.4951964 8.64128571,32.8153947" id="Fill-16" fill="#26548D"></path>
                <path d="M1.0925102,48.00756 C1.43685714,49.3046509 2.00661224,49.6727831 2.44687755,48.8914608 C3.42908163,47.1447501 2.88618367,41.7895765 1.75434694,42.0723864 C1.5155102,42.1308658 1.35628571,42.4548988 1.25940816,42.6485517 C0.604285714,44.3156922 0.769265306,46.7852459 1.0925102,48.00756" id="Fill-17" fill="#7FB041"></path>
                <path d="M15.3383061,72.5228658 C13.1456122,69.1444856 13.1676735,69.8884195 7.14687755,58.7706344 C8.05426531,60.4483203 12.3753878,61.781841 20.6752041,62.0349319 C3.29383673,58.8463699 2.89577551,41.3917253 8.02069388,32.9045517 C7.34255102,33.7280559 0.808591837,48.1916261 3.75904082,53.4835269 C2.24065306,50.7551302 1.57018367,49.7686509 1.56634694,49.8012459 C1.54236735,49.9805187 1.97591837,55.6204195 4.3767551,60.5106344 C7.53726531,66.9500724 13.4563878,71.1500393 15.3383061,72.5228658" id="Fill-18" fill="#7FB041"></path>
                <path d="M20.0881837,74.5015765 C20.972551,75.264684 21.4818776,75.2809815 21.2986735,74.5408823 C20.8862245,72.8919567 17.7055714,69.3640228 17.2442041,70.0456426 C17.144449,70.1913616 17.2317347,70.4885517 17.2864082,70.6630311 C17.8312245,72.1192625 19.2517755,73.7806509 20.0881837,74.5015765" id="Fill-19" fill="#7FB041"></path>
                <path d="M42.8371429,83.4843864 C39.939449,83.2360889 35.6355918,83.589841 30.9566939,80.2373451 C32.2602245,81.1720559 39.114551,82.8823368 43.746449,79.500122 C32.6141633,84.7220393 22.4784694,70.1971137 20.6752041,62.0349319 C20.7519388,62.9034939 18.9716939,71.3916261 26.2691633,77.9796592 C21.714,76.2147335 17.0015306,75.1496426 17.0216091,75.1688162 C17.6317143,75.6625352 17.1645918,75.2493451 17.2739388,75.3710972 L18.0393673,75.990403 C18.7242245,76.5598575 23.5911224,80.1654443 28.1482041,81.5056757 C34.4366122,83.3597583 41.1374694,83.797874 42.8371429,83.4843864" id="Fill-20" fill="#7FB041"></path>
                <path d="M46.2067551,82.9945021 C48.8166939,82.6196592 52.6515102,82.144155 57.4483878,79.2777087 C56.1084082,80.0753286 48.666102,81.9533782 45.239898,79.6573451 C54.0480816,82.9417749 68.1768571,71.7194939 71.3805306,65.350998 C71.1426531,66.0182377 69.7815714,71.7271633 62.0361633,77.2491468 C66.4100408,75.6030972 70.1988163,71.2228988 70.1777143,71.6111633 C70.160449,71.9026013 70.2976122,71.5133782 70.1777143,71.6111633 C69.6252245,72.4605517 65.5266327,76.8100724 59.5585918,79.6640559 C53.464898,82.578436 47.6445714,83.1267997 46.2067551,82.9945021" id="Fill-21" fill="#7FB041"></path>
                <path d="M71.3805306,70.2833947 C73.6135102,68.0372129 74.7491837,66.9500724 78.6837551,58.3804526 C78.0967347,59.6612459 75.7141224,62.9504691 71.3862857,65.0576426 C79.5460612,61.0839236 83.2015102,44.2936426 82.0936531,37.6720559 C82.2193061,38.4159897 83.9362449,47.513841 79.0002857,58.8348658 C77.0032653,63.4154278 72.9065918,69.4225021 71.3805306,70.2833947" id="Fill-22" fill="#7FB041"></path>
                <path d="M63.5756531,61.5536757 C62.4725918,63.4173451 61.8769388,65.8849815 63.6945918,65.469874 C66.092551,64.9186344 68.9806531,60.5911633 67.4248571,59.0294773 C66.1788776,58.2213121 64.4417959,60.0964856 63.5756531,61.5536757" id="Fill-23" fill="#26548D"></path>
                <path d="M60.0468163,55.7306674 C59.9940612,55.6376757 60.0468163,55.7306674 59.9902245,55.6376757 C60.0535306,55.6836922 65.4796327,60.4588658 59.6420408,68.8587997 C66.5011633,63.4614443 69.9475102,64.3309649 71.3862857,65.3327831 C71.3862857,65.3404526 71.3834082,65.3471633 71.3805306,65.350998 C67.6876735,64.5169484 61.8587143,69.0275269 58.0047143,72.0176426 C53.4342041,75.556122 49.4881224,78.6085517 44.6049184,79.8222377 C44.7833265,79.7752625 45.0221633,79.7100724 45.2005714,79.6573451 C48.6584286,78.5318575 50.7446531,76.9692129 54.1123469,73.8861054 C50.9767755,75.9213782 47.5975714,77.5357914 44.6049184,79.8222377 L44.7823673,79.6822707 C47.6407347,77.4571798 50.7436939,75.5954278 53.4936735,73.2150311 C56.4489184,70.6582377 57.8147959,68.7236261 58.2684898,68.0084526 C61.8021224,62.4174443 61.3369184,58.09956 60.0468163,55.7306674" id="Fill-24" fill="#26548D"></path>
                <path d="M47.2944521,57.168684 C47.3002245,59.6133121 48.7879184,61.81156 50.6055714,59.9076261 C52.4759796,57.959593 52.8922653,53.4835269 50.1355714,53.0569154 C48.2843469,53.0617087 47.2896735,55.1823038 47.2944521,57.168684" id="Fill-25" fill="#7FB041"></path>
                <path d="M39.4857551,54.1277583 C39.3821633,54.0759897 39.4857551,54.1277583 39.3821633,54.0779071 C39.4684898,54.0874939 47.9313673,55.2762542 48.3639592,64.9914939 C51.772898,56.4410476 58.5581633,55.6913616 59.8818367,55.6242542 C52.2227551,57.864684 49.3643878,67.7198906 48.2872245,71.4309319 C47.2254082,75.0892459 46.4609388,77.7275269 44.6049184,79.8222377 C44.6893265,79.7167831 44.8063469,79.5729815 44.8965102,79.4694443 C46.457102,77.2606509 46.6508571,75.324122 47.0354898,71.4606509 C44.4744694,78.1368823 44.4744694,78.1368823 44.6049184,79.8222377 C44.5982041,79.7733451 44.5876531,79.708155 44.581898,79.6573451 C44.158898,74.199593 47.1716939,69.0888823 46.0542449,63.5630641 C45.1679592,59.1828658 42.9608776,55.7996922 39.4857551,54.1277583" id="Fill-26" fill="#7FB041"></path>
                <path d="M28.5894286,61.264155 C29.9821633,63.3243534 32.534551,64.5476261 32.9287755,62.1106674 C33.3316327,59.6497418 31.1283878,55.6769815 28.6604082,56.5091137 C27.1487347,57.317279 27.4393673,59.5605848 28.5894286,61.264155" id="Fill-27" fill="#26548D"></path>
                <path d="M21.6209592,61.9822046 C21.5212041,61.9774112 20.9610408,62.040684 20.8603265,62.0349319 C20.9207551,62.0100063 27.4921224,59.7590311 34.3867347,67.2645187 C31.2665102,58.7399567 37.9980612,54.7834939 39.3821633,54.0779071 C37.907898,55.2810476 34.6265306,58.7763864 35.9300612,65.2033616 C37.140551,71.1730476 42.2117551,74.6271633 44.6049184,79.8222377 C44.5473673,79.7167831 44.4744694,79.5748988 44.4226735,79.4723203 C43.8836122,78.5903368 43.8836122,78.5903368 38.268551,72.8852459 C40.1466327,76.0114939 41.5048367,78.2720559 44.6049184,79.8222377 L44.3900612,79.7254112 C35.7353469,75.3116592 32.8012041,62.8392625 21.6209592,61.9822046" id="Fill-28" fill="#26548D"></path>
                <path d="M15.112898,10.2423699 L15.112898,10.2423699 C15.1646939,10.1992294 15.2097755,10.1560889 15.2606122,10.1119897 C15.2097755,10.1560889 15.159898,10.1982707 15.112898,10.2423699 M15.3056939,10.0717253 L15.2164898,10.1493782 C15.296102,10.0822707 15.3709184,10.0142046 15.4505306,9.94709718 C15.4073673,9.98544429 15.3498163,10.0343368 15.3056939,10.0717253" id="Fill-29" fill="#7FB041"></path>
                <path d="M7.73965306,20.2720559 C6.97326531,21.1214443 6.51765306,21.4569815 6.48983673,21.1952625 C6.36993878,20.078403 10.4301633,14.8574443 10.9203061,15.497841 C10.9999184,15.6023368 10.8924898,15.8678906 10.8263061,16.0299071 C10.141449,17.4746344 8.21732653,19.7438245 7.73965306,20.2720559" id="Fill-30" fill="#7FB041"></path>
                <path d="M9.69063265,23.5219732 C7.22073469,22.5527501 3.74657143,23.4615765 1.22391837,33.3119897 C2.32697959,29.3411468 2.52553061,28.6240559 4.11106122,24.9446509 C5.81457143,21.5701054 6.22126531,20.7676922 8.62689796,17.2771468 L8.84463265,16.9857087 C10.8454898,14.3272955 13.0324286,12.0044195 15.5330204,9.87998974 C9.21679592,15.2591302 5.8807551,21.556684 4.62806122,23.9284526 C5.49804082,22.5354939 6.815,20.4216096 9.73283673,23.5421054 C9.72228571,23.5382707 9.70118367,23.5296426 9.69063265,23.5219732" id="Fill-31" fill="#7FB041"></path>
                <path d="M104.464694,25.8994939 C104.464694,28.9730145 105.496776,31.5000889 107.561898,33.480717 C109.611673,35.4623038 111.984694,36.4535765 114.669449,36.4535765 C117.584408,36.4535765 120.045673,35.4440889 122.049408,33.4279897 C124.051224,31.3869649 125.05549,28.9011137 125.05549,25.9713947 C125.05549,23.0052459 124.064653,20.5213121 122.085857,18.5157583 C120.117612,16.4987005 117.680327,15.4901716 114.777837,15.4901716 C111.884939,15.4901716 109.446694,16.4987005 107.452551,18.5157583 C105.459367,20.5098079 104.464694,22.9697749 104.464694,25.8994939 Z M100.234694,25.854436 C100.234694,21.9363203 101.668673,18.5713616 104.535673,15.7605187 C107.392122,12.9477583 110.825041,11.5423368 114.83251,11.5423368 C118.791061,11.5423368 122.187531,12.9602211 125.02,15.7959897 C127.86302,18.632717 129.28549,22.0398575 129.28549,26.0174112 C129.28549,30.0179732 127.856306,33.4126509 125.002735,36.2014443 C122.132857,39.0007831 118.671163,40.4004526 114.616694,40.4004526 C111.029347,40.4004526 107.80649,39.1560889 104.950041,36.6702377 C101.806796,33.9188327 100.234694,30.3122873 100.234694,25.854436 L100.234694,25.854436 Z" id="Fill-32" fill="#3B5767"></path>
                <path d="M138.01502,24.7011468 L139.581367,24.7011468 C143.433449,24.7011468 145.35949,23.2171137 145.35949,20.2490476 C145.35949,17.3768492 143.37398,15.9407501 139.401041,15.9407501 L138.01502,15.9407501 L138.01502,24.7011468 Z M138.01502,28.5943368 L138.01502,39.8952294 L133.823388,39.8952294 L133.823388,12.0667335 L138.571347,12.0667335 C140.900245,12.0667335 142.659388,12.2287501 143.846857,12.5527831 C145.046796,12.8768162 146.100939,13.4894112 147.014082,14.3905683 C148.609204,15.9522542 149.408204,17.9232955 149.408204,20.3027335 C149.408204,22.8508988 148.55549,24.8689154 146.85102,26.3596592 C145.14751,27.8494443 142.850265,28.5943368 139.960245,28.5943368 L138.01502,28.5943368 L138.01502,28.5943368 Z" id="Fill-33" fill="#3B5767"></path>
                <polyline id="Fill-34" fill="#3B5767" points="168.325224 16.0136096 157.184306 16.0136096 157.184306 22.7003864 167.999102 22.7003864 167.999102 26.6472625 157.184306 26.6472625 157.184306 35.9483534 168.325224 35.9483534 168.325224 39.8952294 152.989796 39.8952294 152.989796 12.0667335 168.325224 12.0667335 168.325224 16.0136096"></polyline>
                <polyline id="Fill-35" fill="#3B5767" points="173.093327 39.8952294 173.093327 10.1733451 193.359918 31.4061385 193.359918 12.0667335 197.554429 12.0667335 197.554429 41.5901716 177.287837 20.4110641 177.287837 39.8952294 173.093327 39.8952294"></polyline>
                <polyline id="Fill-36" fill="#3B5767" points="229.448245 16.0136096 218.309245 16.0136096 218.309245 22.7003864 229.125 22.7003864 229.125 26.6472625 218.309245 26.6472625 218.309245 35.9483534 229.448245 35.9483534 229.448245 39.8952294 214.115694 39.8952294 214.115694 12.0667335 229.448245 12.0667335 229.448245 16.0136096"></polyline>
                <path d="M238.411816,35.9483534 L240.303327,35.9483534 C242.185245,35.9483534 243.751592,35.7499071 245.000449,35.3530145 C246.248347,34.932155 247.376347,34.265874 248.384449,33.3522542 C250.447653,31.4655765 251.480694,29.0084856 251.480694,25.9809815 C251.480694,22.9285517 250.460122,20.4532459 248.420898,18.5541054 C246.584061,16.860122 243.878204,16.0136096 240.303327,16.0136096 L238.411816,16.0136096 L238.411816,35.9483534 Z M234.220184,39.8952294 L234.220184,12.0667335 L240.05202,12.0667335 C242.845163,12.0667335 245.054163,12.341874 246.674224,12.8950311 C248.413224,13.4357253 249.991082,14.3541385 251.406837,15.6541054 C254.276714,18.2722542 255.709735,21.7148658 255.709735,25.9809815 C255.709735,30.2586013 254.215327,33.7184691 251.228429,36.3625021 C249.727306,37.6845187 248.158082,38.6038906 246.513082,39.1196592 C244.97551,39.6373451 242.797204,39.8952294 239.979122,39.8952294 L234.220184,39.8952294 L234.220184,39.8952294 Z" id="Fill-37" fill="#3B5767"></path>
                <path d="M264.438306,12.0667335 L264.438306,28.8157914 C264.438306,31.2048162 264.828694,32.9524856 265.60851,34.057841 C266.772,35.6540393 268.409327,36.4535765 270.521449,36.4535765 C272.646041,36.4535765 274.290082,35.6540393 275.454531,34.057841 C276.232429,32.9879567 276.623776,31.2412459 276.623776,28.8157914 L276.623776,12.0667335 L280.817327,12.0667335 L280.817327,29.9815435 C280.817327,32.9141385 279.904184,35.3290476 278.080776,37.2281881 C276.028122,39.3420724 273.508347,40.4004526 270.521449,40.4004526 C267.534551,40.4004526 265.019571,39.3420724 262.981306,37.2281881 C261.157898,35.3290476 260.244755,32.9141385 260.244755,29.9815435 L260.244755,12.0667335 L264.438306,12.0667335" id="Fill-38" fill="#3B5767"></path>
                <path d="M307.278327,13.552684 L307.278327,18.5186344 C304.85351,16.4871964 302.344286,15.4729154 299.752571,15.4729154 C296.896122,15.4729154 294.488571,16.4996592 292.534714,18.5541054 C290.568388,20.5970476 289.583306,23.0963203 289.583306,26.0519236 C289.583306,28.9730145 290.568388,31.4368162 292.534714,33.4433286 C294.502959,35.4488823 296.914347,36.4535765 299.768878,36.4535765 C301.245061,36.4535765 302.500633,36.2119897 303.531755,35.7316922 C304.108224,35.4920228 304.704837,35.1670311 305.321592,34.7586344 C305.942184,34.3502377 306.591551,33.8574773 307.278327,33.2803534 L307.278327,38.3536757 C304.876531,39.717874 302.356755,40.4004526 299.717082,40.4004526 C295.745102,40.4004526 292.352469,39.0113286 289.547816,36.2359567 C286.750837,33.4366178 285.353306,30.060155 285.353306,26.1065683 C285.353306,22.5623368 286.522551,19.4015765 288.865837,16.6262046 C291.741469,13.2248162 295.467898,11.524122 300.042245,11.524122 C302.536122,11.524122 304.948469,12.2009484 307.278327,13.552684" id="Fill-39" fill="#3B5767"></path>
                <path d="M327.10849,29.188717 L322.989755,19.7265683 L318.670551,29.188717 L327.10849,29.188717 Z M328.820633,33.135593 L316.921959,33.135593 L313.829551,39.8952294 L309.311796,39.8952294 L323.060735,10.3171468 L336.327204,39.8952294 L331.73751,39.8952294 L328.820633,33.135593 L328.820633,33.135593 Z" id="Fill-40" fill="#3B5767"></path>
                <polyline id="Fill-41" fill="#3B5767" points="345.184306 16.0136096 345.184306 39.8952294 340.987878 39.8952294 340.987878 16.0136096 334.599714 16.0136096 334.599714 12.0667335 351.554245 12.0667335 351.554245 16.0136096 345.184306 16.0136096"></polyline>
                <polygon id="Fill-42" fill="#3B5767" points="354.560327 39.8952294 358.752918 39.8952294 358.752918 12.0667335 354.560327 12.0667335"></polygon>
                <path d="M367.535204,25.8994939 C367.535204,28.9730145 368.570163,31.5000889 370.631449,33.480717 C372.685061,35.4623038 375.054245,36.4535765 377.742837,36.4535765 C380.656837,36.4535765 383.117143,35.4440889 385.119918,33.4279897 C387.125571,31.3869649 388.127918,28.9011137 388.127918,25.9713947 C388.127918,23.0052459 387.136122,20.5213121 385.155408,18.5157583 C383.188122,16.4987005 380.752755,15.4901716 377.850265,15.4901716 C374.958327,15.4901716 372.517204,16.4987005 370.52402,18.5157583 C368.532755,20.5098079 367.535204,22.9697749 367.535204,25.8994939 Z M363.307122,25.854436 C363.307122,21.9363203 364.742061,18.5713616 367.61002,15.7605187 C370.462633,12.9477583 373.897469,11.5423368 377.90398,11.5423368 C381.86349,11.5423368 385.258041,12.9602211 388.09051,15.7959897 C390.93449,18.632717 392.356,22.0398575 392.356,26.0174112 C392.356,30.0179732 390.927776,33.4126509 388.072286,36.2014443 C385.206245,39.0007831 381.742633,40.4004526 377.688163,40.4004526 C374.100816,40.4004526 370.877,39.1560889 368.022469,36.6702377 C364.880184,33.9188327 363.307122,30.3122873 363.307122,25.854436 L363.307122,25.854436 Z" id="Fill-43" fill="#3B5767"></path>
                <polyline id="Fill-44" fill="#3B5767" points="396.892939 39.8952294 396.892939 10.1733451 417.158571 31.4061385 417.158571 12.0667335 421.351163 12.0667335 421.351163 41.5901716 401.08649 20.4110641 401.08649 39.8952294 396.892939 39.8952294"></polyline>
                <path d="M117.751306,49.2826013 L117.751306,53.1019732 C115.883776,51.5393286 113.957735,50.7599236 111.964551,50.7599236 C109.767061,50.7599236 107.916796,51.5489154 106.412796,53.1297749 C104.899204,54.7000889 104.144327,56.6231964 104.144327,58.8962211 C104.144327,61.142403 104.899204,63.0357914 106.412796,64.5811798 C107.925429,66.1246509 109.78049,66.8954278 111.97798,66.8954278 C113.112694,66.8954278 114.076673,66.710403 114.871837,66.3403534 C115.312102,66.1562873 115.77251,65.9060724 116.248265,65.5925848 C116.722102,65.2790972 117.222796,64.9004195 117.751306,64.455593 L117.751306,68.3583699 C115.903918,69.4071633 113.966367,69.93156 111.935776,69.93156 C108.883653,69.93156 106.272755,68.8626344 104.117469,66.7305352 C101.964102,64.5754278 100.888857,61.9802873 100.888857,58.938403 C100.888857,56.2119236 101.788571,53.7826344 103.588,51.6457418 C105.803714,49.0314278 108.668796,47.7228327 112.186122,47.7228327 C114.105449,47.7228327 115.959551,48.2433947 117.751306,49.2826013" id="Fill-45" fill="#3B5767"></path>
                <path d="M138.044755,58.7783038 C138.044755,61.142403 138.838,63.0866013 140.422571,64.6099402 C142.004265,66.1342377 143.824796,66.8954278 145.893755,66.8954278 C148.135367,66.8954278 150.027837,66.1188988 151.568286,64.5696757 C153.109694,62.9993616 153.879918,61.0877583 153.879918,58.8348658 C153.879918,56.5532129 153.119286,54.6425683 151.597061,53.1000559 C150.08251,51.5489154 148.207306,50.7743038 145.977204,50.7743038 C143.74998,50.7743038 141.872857,51.5489154 140.342,53.1000559 C138.808265,54.6329815 138.044755,56.5273286 138.044755,58.7783038 Z M134.789286,58.7447501 C134.789286,55.7316261 135.895224,53.1431964 138.098469,50.9823368 C140.294041,48.8186013 142.933714,47.7362542 146.01749,47.7362542 C149.062898,47.7362542 151.672837,48.8281881 153.849224,51.0091798 C156.037122,53.1901716 157.133469,55.8102377 157.133469,58.8693782 C157.133469,61.9448162 156.034245,64.5581716 153.838673,66.7017749 C151.63351,68.8549649 148.972735,69.93156 145.851551,69.93156 C143.092939,69.93156 140.614408,68.9747997 138.419796,67.0603203 C135.998816,64.946436 134.789286,62.1729815 134.789286,58.7447501 L134.789286,58.7447501 Z" id="Fill-46" fill="#3B5767"></path>
                <polyline id="Fill-47" fill="#3B5767" points="175.362755 69.5432955 175.362755 46.6845848 190.950449 63.0137418 190.950449 48.1398575 194.175224 48.1398575 194.175224 70.8470972 178.586571 54.5572459 178.586571 69.5432955 175.362755 69.5432955"></polyline>
                <path d="M225.557796,51.3140393 L222.941143,52.8661385 C222.451959,52.0167501 221.984837,51.4616757 221.541694,51.2037914 C221.082245,50.9066013 220.484673,50.7599236 219.756653,50.7599236 C218.860776,50.7599236 218.119327,51.0139732 217.52751,51.5220724 C216.938571,52.0215435 216.641224,52.6494773 216.641224,53.4077914 C216.641224,54.4546674 217.416245,55.2944691 218.968204,55.9339071 L221.09951,56.8063038 C222.833714,57.5118906 224.102714,58.3679897 224.90651,59.3803534 C225.710306,60.3936757 226.112204,61.6351633 226.112204,63.1057749 C226.112204,65.0748988 225.457082,66.7046509 224.144918,67.989279 C222.824122,69.2834939 221.187755,69.93156 219.232939,69.93156 C217.375,69.93156 215.845102,69.3793616 214.636531,68.2740063 C213.445224,67.1724856 212.701857,65.6194278 212.403551,63.6263368 L215.673408,62.9034939 C215.821122,64.1593616 216.077224,65.0269649 216.448429,65.5091798 C217.113143,66.4323864 218.081918,66.8954278 219.354755,66.8954278 C220.35998,66.8954278 221.197347,66.5589319 221.858224,65.8849815 C222.525816,65.2110311 222.856735,64.3539732 222.856735,63.3214773 C222.856735,62.9054112 222.800143,62.5257749 222.682163,62.1796922 C222.569939,61.8326509 222.388653,61.5134112 222.143102,61.2229319 C221.899469,60.9314939 221.584857,60.6582707 221.197347,60.4061385 C220.806959,60.1520889 220.346551,59.9085848 219.812286,59.6775435 L217.750041,58.8195269 C214.823571,57.5828327 213.361776,55.7728492 213.361776,53.3876592 C213.361776,51.7828327 213.973735,50.4378079 215.202449,49.3592955 C216.431163,48.2673616 217.957224,47.7228327 219.785429,47.7228327 C222.248612,47.7228327 224.173694,48.9211798 225.557796,51.3140393" id="Fill-48" fill="#3B5767"></path>
                <path d="M246.360571,58.7783038 C246.360571,61.142403 247.157653,63.0866013 248.743184,64.6099402 C250.322,66.1342377 252.14349,66.8954278 254.210531,66.8954278 C256.453102,66.8954278 258.346531,66.1188988 259.887939,64.5696757 C261.42551,62.9993616 262.199571,61.0877583 262.199571,58.8348658 C262.199571,56.5532129 261.43702,54.6425683 259.914796,53.1000559 C258.400245,51.5489154 256.526959,50.7743038 254.294939,50.7743038 C252.068673,50.7743038 250.19251,51.5489154 248.658776,53.1000559 C247.126,54.6329815 246.360571,56.5273286 246.360571,58.7783038 Z M243.108939,58.7447501 C243.108939,55.7316261 244.212,53.1431964 246.416204,50.9823368 C248.611776,48.8186013 251.253367,47.7362542 254.337143,47.7362542 C257.38351,47.7362542 259.991531,48.8281881 262.170796,51.0091798 C264.355816,53.1901716 265.451204,55.8102377 265.451204,58.8693782 C265.451204,61.9448162 264.35198,64.5581716 262.157367,66.7017749 C259.952204,68.8549649 257.288551,69.93156 254.169286,69.93156 C251.408755,69.93156 248.932143,68.9747997 246.734653,67.0603203 C244.318469,64.946436 243.108939,62.1729815 243.108939,58.7447501 L243.108939,58.7447501 Z" id="Fill-49" fill="#3B5767"></path>
                <path d="M286.907184,57.9682211 L287.932551,57.9682211 C290.987551,57.9682211 292.513612,56.7986344 292.513612,54.4604195 C292.513612,52.269841 291.028796,51.1750311 288.057245,51.1750311 L286.907184,51.1750311 L286.907184,57.9682211 Z M290.923286,60.422436 L297.539735,69.5432955 L293.594612,69.5432955 L287.490367,60.7809815 L286.907184,60.7809815 L286.907184,69.5432955 L283.683367,69.5432955 L283.683367,48.1398575 L287.461592,48.1398575 C290.284469,48.1398575 292.324653,48.6700063 293.580224,49.7331798 C294.965286,50.9171468 295.657816,52.477874 295.657816,54.4191964 C295.657816,55.9339071 295.223306,57.2386674 294.356204,58.328684 C293.488143,59.4206178 292.343837,60.1166178 290.923286,60.422436 L290.923286,60.422436 Z" id="Fill-50" fill="#3B5767"></path>
                <polyline id="Fill-51" fill="#3B5767" points="320.573571 51.1750311 320.573571 69.5432955 317.348796 69.5432955 317.348796 51.1750311 312.433939 51.1750311 312.433939 48.1398575 325.474041 48.1398575 325.474041 51.1750311 320.573571 51.1750311"></polyline>
                <polygon id="Fill-52" fill="#3B5767" points="342.527367 69.5432955 345.752143 69.5432955 345.752143 48.1398575 342.527367 48.1398575"></polygon>
                <path d="M368.289122,48.1398575 L368.289122,61.0225683 C368.289122,62.8593947 368.588388,64.2053782 369.187878,65.0538079 C370.083755,66.281874 371.343163,66.8954278 372.967061,66.8954278 C374.600551,66.8954278 375.864755,66.281874 376.758714,65.0538079 C377.360122,64.2312625 377.659388,62.8891137 377.659388,61.0225683 L377.659388,48.1398575 L380.884163,48.1398575 L380.884163,61.9198906 C380.884163,64.1737418 380.183,66.0316592 378.781633,67.492684 C377.203776,69.1186013 375.266224,69.93156 372.967061,69.93156 C370.667898,69.93156 368.735143,69.1186013 367.167837,67.492684 C365.766469,66.0316592 365.065306,64.1737418 365.065306,61.9198906 L365.065306,48.1398575 L368.289122,48.1398575" id="Fill-53" fill="#3B5767"></path>
                <polyline id="Fill-54" fill="#3B5767" points="399.434776 69.5432955 403.935265 46.5302377 411.270143 63.1671302 418.869755 46.5302377 422.912714 69.5432955 419.601612 69.5432955 417.539367 56.6231964 411.21451 70.5288162 405.068061 56.6088162 402.769857 69.5432955 399.434776 69.5432955"></polyline>
            </g>
        </g>
    </g>
</svg>