<?xml version="1.0" encoding="UTF-8"?>
<svg width="445px" height="434px" viewBox="0 0 445 434" version="1.1" xmlns="http://www.w3.org/2000/svg" xmlns:xlink="http://www.w3.org/1999/xlink">
    <!-- Generator: Sketch 55.1 (78136) - https://sketchapp.com -->
    <title>logo-icon</title>
    <desc>Created with Sketch.</desc>
    <g id="Badges" stroke="none" stroke-width="1" fill="none" fill-rule="evenodd" opacity="0.47265625">
        <g id="Certificate" transform="translate(-315.000000, -87.000000)" fill="#EDEAEA">
            <g id="logo-icon" style="mix-blend-mode: multiply;" transform="translate(315.000000, 87.000000)">
                <path d="M306.90115,16.5559709 C306.828344,16.5310222 306.698334,16.5060735 306.64113,16.4861145 C309.860173,17.1347812 309.860173,17.1347812 312.543576,18.2474942 L311.446293,17.8433249 C310.088991,17.3942479 309.189323,17.1148223 306.90115,16.5559709" id="Fill-1"></path>
                <path d="M190.32393,6.94572379 C190.157518,6.99562123 189.933901,7.05549816 189.767488,7.09541611 C214.750178,0.0399179528 215.82666,0.0399179528 226.118238,-1.10134124e-13 L229.415288,0.049897441 L228.578024,0.049897441 C221.822713,0.349282087 211.988769,1.38215912 190.32393,6.94572379 M255.848887,2.31025152 C255.152035,2.19049766 254.221164,2.07573355 253.50871,1.96595918 C256.899367,2.49986179 261.444511,3.15351827 264.824766,3.78222603 L268.17382,4.45085174 C275.610382,6.20225192 284.04542,8.19814956 300.790687,14.5700528 C294.810235,12.3446269 276.608858,5.59849288 255.848887,2.31025152" id="Fill-2"></path>
                <path d="M152.595076,11.5562473 C152.51187,11.5811961 152.392261,11.621114 152.298654,11.6560422 C154.706436,10.8876216 157.909878,9.87969332 160.338462,9.1312317 L160.57248,9.07634452 C163.682315,8.65720601 163.682315,8.65720601 181.498863,8.38775983 C175.190786,8.67716499 160.416468,9.32084198 152.595076,11.5562473" id="Fill-3"></path>
                <path d="M350.53245,39.2343579 C357.610186,44.4436507 373.726205,57.1076212 373.851014,57.2124059 C357.974213,44.0394814 357.360567,43.520548 346.351334,36.2804294 L345.737688,35.8862396 C346.56975,36.4351114 347.812644,37.2484397 350.53245,39.2343579" id="Fill-4"></path>
                <path d="M303.47409,15.7576119 L303.47409,15.7576119 C304.098137,15.9771606 304.737786,16.2116786 305.372234,16.4511863 C304.716984,16.2765453 304.098137,15.9921298 303.47409,15.7576119 M307.670808,17.4092172 C307.03636,17.1497505 306.193896,16.8254171 305.575049,16.5759299 C322.179905,22.6035408 363.855858,40.6314862 395.859079,81.1981057 C424.929278,118.077304 438.122676,152.072431 442.693822,194.20583 C437.24381,143.959107 413.774434,120.831643 394.579782,116.295966 C381.240773,113.137458 368.993847,117.678125 352.300584,120.681951 C419.749687,96.1573586 356.388093,40.2971734 317.442347,21.740315 C316.646687,21.3610945 312.475971,19.3901456 307.670808,17.4092172" id="Fill-5"></path>
                <path d="M237.028664,9.90464204 C241.828627,16.5310222 267.471767,19.7194687 269.307506,13.9114066 C270.300781,10.7379293 261.56932,6.16732371 248.781553,5.03964154 C237.829524,4.42091327 235.010911,7.13034432 237.028664,9.90464204" id="Fill-6"></path>
                <path d="M183.797437,8.63724704 L183.797437,8.63724704 C184.333077,8.57737011 184.858317,8.5424419 185.388757,8.48256497 C184.915521,8.60231883 184.915521,8.60231883 183.797437,8.63724704 M187.172492,8.5424419 C186.636852,8.5424419 185.908796,8.56240088 185.362755,8.57737011 C193.49617,7.7390931 235.317734,4.77019536 260.425234,27.4086643 C270.03036,7.1852315 302.93845,15.7576119 306.656731,16.8104479 C284.466652,11.9454474 273.499023,28.4215824 292.012423,57.7612777 C306.043085,79.9855979 345.784491,114.833971 352.300584,120.681951 C287.982118,72.3363202 273.098592,57.7612777 266.338081,49.6729025 C262.474189,57.2722828 249.051973,74.8860795 185.731983,109.77437 C254.304371,65.4654426 255.526463,21.0467406 207.844056,10.6231652 C204.916234,9.98447794 197.048039,8.51250344 187.172492,8.5424419" id="Fill-7"></path>
                <path d="M106.6496,37.2933474 C104.881467,39.7682605 105.791536,40.9807683 109.083385,40.5416708 C119.213751,39.1495322 139.682499,24.8888436 135.496183,22.1544638 C133.852858,21.0567201 128.803276,23.0775665 126.899932,23.8360076 C116.82677,28.1870644 109.083385,33.8953317 106.6496,37.2933474" id="Fill-8"></path>
                <path d="M80.6268318,51.3744053 L81.3600873,50.775636 L81.448494,50.7107693 C82.3585628,50.0022256 103.73218,33.5660086 109.68663,50.9203385 C132.453953,22.3640331 171.368496,11.4863909 187.032081,8.14326237 C136.031823,21.5906227 97.2732911,63.624227 148.273549,94.0965942 C157.025811,99.3258461 174.010296,107.289478 184.208268,110.293304 C119.234553,96.4118355 107.840491,81.2230545 104.169013,74.9709051 C87.0753197,105.972185 61.5049853,138.210922 42.7731682,168.114458 C75.2132223,106.900278 80.7776432,96.9157997 85.4631977,82.9644752 C98.2197627,44.9675738 83.9914864,49.4383845 83.8458754,49.4783025 C82.4313684,49.9722872 81.0688653,51.0351027 80.6268318,51.3744053" id="Fill-9"></path>
                <path d="M7.55610403,272.874136 C-8.5235124,208.850729 5.01311165,170.41473 11.9088333,147.726364 C10.5307291,156.443447 7.45729655,172.670095 39.0340853,168.693269 C-8.48190925,163.953012 31.9979531,105.278611 45.5449779,87.4103372 L44.3644886,88.9272194 C33.5788727,104.106021 30.3390276,108.691596 19.8810364,128.835193 C11.7944247,147.461907 11.7268195,152.451651 6.07399191,172.944531 C0.857997317,194.535153 4.264255,248.958292 7.55610403,272.874136 C7.55610403,272.874136 4.16544753,242.746061 4.12384438,242.072445" id="Fill-10"></path>
                <path d="M398.256461,160.445222 C398.838905,177.714726 411.403055,193.796671 418.621201,186.496675 C424.970882,180.074875 421.705034,158.289652 410.581393,148.699364 C401.595113,142.422266 397.965239,151.797995 398.256461,160.445222" id="Fill-11"></path>
                <path d="M352.857026,121.515238 C352.212177,120.961376 353.709891,121.515238 352.857026,121.515238 C356.710518,121.515238 402.359571,148.58959 404.99097,208.820791 C424.726463,175.28971 439.173156,189.171178 442.678221,195.079035 C442.647019,195.039117 442.719824,195.118953 442.678221,195.079035 C441.393724,194.026199 432.111022,187.165301 415.126537,226.444567 C410.492986,237.152558 409.276094,241.239158 384.626229,337.616065 C389.218177,308.381155 390.601481,274.650485 394.028541,245.325758 C387.179623,253.798344 372.348101,271.372223 323.100375,287.723614 C420.498543,240.03663 391.802772,154.682067 353.423869,121.634992" id="Fill-12"></path>
                <path d="M254.808809,123.371423 C257.773033,141.159861 282.225283,148.594579 292.204838,134.763009 C300.192642,123.680787 292.158034,105.622903 274.060665,103.437395 C258.412681,103.038216 253.383901,114.85393 254.808809,123.371423" id="Fill-13"></path>
                <path d="M184.218669,110.293304 L184.208268,110.293304 C184.957124,110.313263 185.731983,110.35817 186.49124,110.428027 C186.361231,110.467945 186.22082,110.517842 186.09081,110.577719 C186.044007,110.592688 185.992003,110.627616 185.939999,110.627616 C185.627975,110.612647 185.352354,110.502873 185.050732,110.433016 C184.775111,110.388109 184.489089,110.333222 184.218669,110.293304 M189.164243,111.381068 C188.368583,111.176488 187.312903,110.94197 186.517242,110.757229 C187.172492,110.742381 253.550314,112.029735 275.469972,166.198396 C296.32875,117.488515 350.553252,121.340597 352.857026,121.515238 C318.133999,125.816397 264.772762,176.0731 322.252711,287.21965 C306.698334,265.793689 282.953338,231.464249 274.435093,205.951688 C269.588327,216.604791 258.137061,239.008742 211.109903,279.305916 C289.375824,191.147117 245.260886,125.95611 189.164243,111.381068" id="Fill-14"></path>
                <path d="M90.0239427,157.995257 C94.0698488,173.034346 112.806866,172.350751 121.855551,156.817678 C130.873033,141.334502 121.44992,124.39432 106.332376,128.929998 C105.786335,129.109629 105.027078,129.399034 104.491437,129.598624 C90.9548132,136.000465 87.886581,150.066554 90.0239427,157.995257" id="Fill-15"></path>
                <path d="M44.4424945,169.800992 C43.9432567,169.83093 43.2776064,169.915756 42.7731682,169.975633 C43.1527969,169.751094 84.9951623,150.590477 115.001432,191.226953 C121.236704,136.28987 173.843884,114.424812 185.050732,110.433016 C123.987712,142.591917 112.661255,228.255844 209.851408,279.665177 C193.667783,273.692454 148.361956,255.350154 126.275885,229.089131 C126.109473,240.839978 123.358464,245.520358 109.68663,320.770689 C115.167845,183.742337 66.7105791,168.134417 44.4424945,169.800992" id="Fill-16"></path>
                <path d="M3.51539835,248.873466 C5.38233958,255.62459 8.47137327,257.540652 10.8583538,253.474011 C16.1835567,244.382697 13.240134,216.509986 7.1036698,217.981961 C5.80877184,218.286335 4.94550654,219.972869 4.4202668,220.980797 C0.868398103,229.657962 1.76286577,242.511543 3.51539835,248.873466" id="Fill-17"></path>
                <path d="M80.7516413,376.471203 C68.8635419,358.887344 68.983151,362.759386 36.3402816,304.893324 C41.2598537,313.625376 64.687626,320.56611 109.68663,321.883402 C15.4503012,305.287513 13.292138,214.439242 41.07784,170.265038 C37.4011618,174.551228 1.9760819,249.831497 17.972492,277.374885 C9.74026926,263.174073 6.10519427,258.039626 6.08439269,258.209278 C5.95438286,259.14236 8.30496068,288.497024 21.3215454,313.949709 C38.4568417,347.46582 70.5484694,369.325889 80.7516413,376.471203" id="Fill-18"></path>
                <path d="M106.503989,386.770034 C111.298752,390.741871 114.060161,390.826696 113.066886,386.974614 C110.830717,378.392254 93.5862122,360.029996 91.084823,363.577704 C90.5439821,364.336145 91.0172179,365.882966 91.3136403,366.791099 C94.2674638,374.37052 101.969246,383.017747 106.503989,386.770034" id="Fill-19"></path>
                <path d="M229.84172,433.523937 C214.131331,432.231593 190.797166,434.072809 165.429647,416.623673 C172.496982,421.488674 209.658993,430.390377 234.771693,412.78656 C174.415927,439.965696 119.46337,364.366083 109.68663,321.883402 C110.102662,326.40411 100.450732,370.583305 140.015325,404.872826 C115.318656,395.686707 89.7691235,390.143101 89.8779829,390.242896 C93.1857819,392.812615 90.6531903,390.662035 91.2460352,391.295732 L95.3959491,394.519107 C99.10903,397.483015 125.495826,416.249443 150.202895,423.225105 C184.296674,432.87527 220.626623,435.155583 229.84172,433.523937" id="Fill-20"></path>
                <path d="M248.110702,430.974177 C262.260972,429.023187 283.052145,426.548274 309.059313,411.62894 C301.794363,415.780407 261.444511,425.555315 242.868705,413.604878 C290.623918,430.699742 367.225713,372.289797 384.595027,339.142927 C383.30533,342.615789 375.925971,372.329715 333.932794,401.070641 C357.646588,392.50325 378.188142,369.70511 378.073734,371.725956 C377.980127,373.242838 378.723783,371.217002 378.073734,371.725956 C375.078307,376.146869 352.857026,398.785338 320.500178,413.639806 C287.462079,428.808628 255.906092,431.662762 248.110702,430.974177" id="Fill-21"></path>
                <path d="M384.595027,364.81516 C396.701543,353.12419 402.858809,347.46582 424.190822,302.862498 C421.008182,309.528796 408.090404,326.648608 384.626229,337.616065 C428.865976,316.933576 448.684675,229.543198 442.678221,195.079035 C443.359473,198.951077 452.668177,246.303748 425.906952,305.227636 C415.079733,329.068634 392.868853,360.33437 384.595027,364.81516" id="Fill-22"></path>
                <path d="M342.279426,319.378551 C336.298973,329.078613 333.069529,341.922214 342.924275,339.761655 C355.925258,336.892552 371.583643,314.368848 363.148605,306.240554 C356.393294,302.0342 346.975381,311.79414 342.279426,319.378551" id="Fill-23"></path>
                <path d="M323.147179,289.070845 C322.861157,288.58684 323.147179,289.070845 322.840355,288.58684 C323.183581,288.826348 352.602207,313.680263 320.952613,357.400401 C358.140626,329.308141 376.825639,333.833839 384.626229,339.048122 C384.626229,339.08804 384.610628,339.122968 384.595027,339.142927 C364.573512,334.80185 332.970722,358.278596 312.075541,373.841607 C287.295666,392.258753 265.901248,408.146098 239.426045,414.463114 C240.393318,414.218617 241.688216,413.879314 242.655489,413.604878 C261.402908,407.746919 272.713763,399.613636 290.972345,383.566619 C273.972258,394.159845 255.651272,402.562575 239.426045,414.463114 L240.388118,413.734612 C255.88529,402.153416 272.708563,392.463332 287.618091,380.073798 C303.640503,366.76615 311.045863,356.696847 313.505649,352.974498 C332.663898,323.87431 330.141708,301.400503 323.147179,289.070845" id="Fill-24"></path>
                <path d="M254.007855,296.555461 C254.039151,309.279309 262.104961,320.720792 271.959706,310.81116 C282.100473,300.672 284.357444,277.374885 269.411513,275.154449 C259.374754,275.179397 253.981946,286.216711 254.007855,296.555461" id="Fill-25"></path>
                <path d="M211.671545,280.727993 C211.109903,280.458547 211.671545,280.727993 211.109903,280.468526 C211.577938,280.518424 257.461009,286.705706 259.806387,337.271773 C278.288585,292.768245 315.076168,288.866265 322.252711,288.516983 C280.727569,300.178015 265.230397,351.472585 259.390355,370.787884 C253.63352,389.828748 249.488806,403.560523 239.426045,414.463114 C239.88368,413.914242 240.518128,413.165781 241.006965,412.626888 C249.468005,401.130518 250.518484,391.051235 252.603842,370.942566 C238.718792,405.691144 238.718792,405.691144 239.426045,414.463114 C239.389642,414.208637 239.332438,413.869335 239.301236,413.604878 C237.007862,385.198265 253.342298,358.597939 247.283839,329.837054 C242.478676,307.038913 230.512571,289.430107 211.671545,280.727993" id="Fill-26"></path>
                <path d="M152.595076,317.871648 C160.146047,328.594608 173.984294,334.961521 176.121656,322.277592 C178.305821,309.468919 166.360518,288.791419 152.979905,293.122517 C144.784085,297.328871 146.359805,309.004873 152.595076,317.871648" id="Fill-27"></path>
                <path d="M114.814218,321.608966 C114.273377,321.584018 111.236347,321.913341 110.690306,321.883402 C111.017931,321.753669 146.645826,310.03775 184.026254,349.102456 C167.109374,304.733652 203.605735,284.140978 211.109903,280.468526 C203.116898,286.730655 185.326352,304.923262 192.393687,338.374506 C198.956583,369.445643 226.451063,387.423691 239.426045,414.463114 C239.114021,413.914242 238.718792,413.17576 238.43797,412.641858 C235.515349,408.051293 235.515349,408.051293 205.072246,378.357326 C215.254616,394.628881 222.618374,406.394698 239.426045,414.463114 L238.261157,413.95915 C191.338007,390.986368 175.430004,326.069797 114.814218,321.608966" id="Fill-28"></path>
                <path d="M79.5295488,52.3124771 L79.5295488,52.3124771 C79.8103701,52.0879387 80.0547886,51.8634002 80.3304094,51.633872 C80.0547886,51.8634002 79.7843681,52.0829489 79.5295488,52.3124771 M80.5748279,51.4243027 L80.0911913,51.828472 C80.522824,51.4791899 80.9284547,51.1249181 81.3600873,50.775636 C81.1260696,50.9752257 80.814046,51.2297027 80.5748279,51.4243027" id="Fill-29"></path>
                <path d="M39.5541247,104.51518 C35.3990103,108.936093 32.9288235,110.682504 32.7780121,109.320303 C32.1279629,103.507252 54.1412282,76.3331052 56.7986292,79.6662543 C57.2302619,80.2101364 56.6478178,81.5922955 56.2889907,82.4355623 C52.5759098,89.9551066 42.1439206,101.765831 39.5541247,104.51518" id="Fill-30"></path>
                <path d="M50.1317249,121.430412 C36.7407118,116.385781 17.9048869,121.116059 4.22785225,172.385679 C10.2083047,151.718159 11.2847861,147.985831 19.8810364,128.835193 C29.1169351,111.271293 31.3219019,107.094878 44.3644886,88.9272194 L45.5449779,87.4103372 C56.3929985,73.5737768 68.2498955,61.4836268 81.8073211,50.4263539 C47.5627305,78.423808 29.4757623,111.201437 22.6840485,123.546064 C27.4008053,116.295966 34.5409454,105.29358 50.3605422,121.535197 C50.3033379,121.515238 50.1889292,121.47033 50.1317249,121.430412" id="Fill-31"></path>
            </g>
        </g>
    </g>
</svg>