<?xml version="1.0" encoding="UTF-8"?>
<svg width="113px" height="145px" viewBox="0 0 113 145" version="1.1" xmlns="http://www.w3.org/2000/svg" xmlns:xlink="http://www.w3.org/1999/xlink">
    <!-- Generator: Sketch 55.1 (78136) - https://sketchapp.com -->
    <title>oeawards-vertical</title>
    <desc>Created with Sketch.</desc>
    <defs>
        <filter x="-11.2%" y="-8.8%" width="122.4%" height="117.5%" filterUnits="objectBoundingBox" id="filter-1">
            <feOffset dx="0" dy="2" in="SourceAlpha" result="shadowOffsetOuter1"></feOffset>
            <feGaussianBlur stdDeviation="2" in="shadowOffsetOuter1" result="shadowBlurOuter1"></feGaussianBlur>
            <feColorMatrix values="0 0 0 0 0   0 0 0 0 0   0 0 0 0 0  0 0 0 0.5 0" type="matrix" in="shadowBlurOuter1" result="shadowMatrixOuter1"></feColorMatrix>
            <feMerge>
                <feMergeNode in="shadowMatrixOuter1"></feMergeNode>
                <feMergeNode in="SourceGraphic"></feMergeNode>
            </feMerge>
        </filter>
    </defs>
    <g id="Badges" stroke="none" stroke-width="1" fill="none" fill-rule="evenodd">
        <g id="Certificate" transform="translate(-645.000000, -44.000000)" fill="#FFFFFF" fill-rule="nonzero">
            <g id="oeawards-vertical" filter="url(#filter-1)" transform="translate(648.000000, 46.000000)">
                <g id="oeawards-icon">
                    <g id="Group-4" transform="translate(80.400000, 65.800000) scale(-1, 1) translate(-80.400000, -65.800000) translate(54.400000, 36.800000)">
                        <path d="M26.0059482,36.5529679 C20.9370239,49.1317605 11.1901415,57.6 0,57.6 L0,57.5819233 C12.8477965,52.4604099 22.2487562,36.0209559 22.2487562,16.5322455 C25.8988572,14.0394816 28.2525192,15.4885753 29.573141,16.5844015 C29.6313652,16.6231666 29.6907194,16.6631163 29.7512438,16.704277 C29.7512438,36.1113498 39.1522035,52.4819395 52,57.581999 L52,57.6 C40.8227607,57.6 31.0820012,49.1063926 26.0059482,36.5529679 Z" id="Shape"></path>
                        <ellipse id="Oval" cx="24.9803922" cy="5.55789474" rx="5.60784314" ry="5.55789474"></ellipse>
                    </g>
                    <g id="Group-4" transform="translate(0.000000, 31.200000)">
                        <path d="M28.4064972,39.9470977 C22.8696722,53.8442321 12.2230777,63.2 0,63.2 L0,63.1800287 C14.033747,57.5217464 24.3024876,39.3593274 24.3024876,17.8280694 C28.2895209,15.0740471 30.860444,16.6750156 32.3029694,17.8856916 C32.3665682,17.9285196 32.4314012,17.9726563 32.4975124,18.0181309 C32.4975124,39.4591952 42.766253,57.5455324 56.8,63.1801124 L56.8,63.2 C44.5910156,63.2 33.951109,53.8162056 28.4064972,39.9470977 Z" id="Shape"></path>
                        <ellipse id="Oval" cx="27.3857143" cy="6.11612903" rx="6.08571429" ry="6.11612903"></ellipse>
                    </g>
                    <g id="Group-4" transform="translate(23.200000, 23.200000)">
                        <path d="M32.0073208,45.3385183 C25.7686447,60.7946744 13.7724819,71.2 0,71.2 L0,71.1777883 C15.8126726,64.8847431 27.3830846,44.6848102 27.3830846,20.7381119 C31.8755165,17.6751352 34.7723313,19.4557051 36.397712,20.8021984 C36.4693726,20.8498309 36.5424239,20.898919 36.6169154,20.9494952 C36.6169154,44.7958814 48.1873274,64.9111975 64,71.1778813 L64,71.2 C50.2433978,71.2 38.2547707,60.7635038 32.0073208,45.3385183 Z" id="Shape"></path>
                        <ellipse id="Oval" cx="32.2031746" cy="6.61142857" rx="6.6031746" ry="6.61142857"></ellipse>
                    </g>
                    <path d="M27.2091388,-1.04360964e-14 C29.0486811,0.552988241 30.8409488,1.21518422 32.5784091,1.97905505 C19.2579598,10.322993 10.4,25.1312886 10.4,42.0084716 C10.4,50.042117 12.4070542,57.6069897 15.9470915,64.2290188 C10.9273888,56.7292813 8,47.7107406 8,38.0084716 C8,22.4190617 15.5577608,8.59486139 27.2091497,3.2624719e-06 Z" id="Combined-Shape"></path>
                    <path d="M28.2101083,16.0389577 C29.6253208,16.4727341 31.0030791,16.9879051 32.3375057,17.5787869 C21.7421684,23.702444 14.6583522,34.8276108 14.6583522,47.5359744 C14.6583522,53.4883995 16.2124413,59.0934937 18.9535397,64 C15.0667165,58.443167 12.8,51.7609965 12.8,44.5722264 C12.8,32.7941811 18.884634,22.3760204 28.2101083,16.0389577 Z" id="Combined-Shape"></path>
                    <path d="M93.0101083,16.0389577 C94.4253208,16.4727341 95.8030791,16.9879051 97.1375057,17.5787869 C86.5421684,23.702444 79.4583522,34.8276108 79.4583522,47.5359744 C79.4583522,53.4883995 81.0124413,59.0934937 83.7535397,64 C79.8667165,58.443167 77.6,51.7609965 77.6,44.5722264 C77.6,32.7941811 83.684634,22.3760204 93.0101083,16.0389577 Z" id="Combined-Shape" transform="translate(87.368753, 40.019479) scale(-1, 1) translate(-87.368753, -40.019479) "></path>
                    <path d="M96.8091388,-1.04360964e-14 C98.6486811,0.552988241 100.440949,1.21518422 102.178409,1.97905505 C88.8579598,10.322993 80,25.1312886 80,42.0084716 C80,50.042117 82.0070542,57.6069897 85.5470915,64.2290188 C80.5273888,56.7292813 77.6,47.7107406 77.6,38.0084716 C77.6,22.4190617 85.1577608,8.59486139 96.8091497,3.2624719e-06 Z" id="Combined-Shape" transform="translate(89.889205, 32.114509) scale(-1, 1) translate(-89.889205, -32.114509) "></path>
                </g>
                <g id="oeawards-icon-text" transform="translate(3.200000, 100.000000)">
                    <path d="M12.44864,36.6 L11.062848,33.31168 L4.744576,33.31168 L3.358784,36.6 L0.046976,36.6 L6.788032,20.933504 L9.183808,20.933504 L15.73696,36.6 L12.44864,36.6 Z M5.707584,30.821952 L10.170304,30.821952 L7.938944,25.184832 L5.707584,30.821952 Z M27.220608,26.664576 L23.626944,36.6 L21.32512,36.6 L15.875904,20.933504 L19.117248,20.933504 L22.61696,31.597056 L26.445504,20.792576 L28.13664,20.792576 L31.753792,31.597056 L35.511872,20.933504 L38.753216,20.933504 L32.95168,36.6 L30.649856,36.6 L27.220608,26.664576 Z M51.270336,36.6 L49.884544,33.31168 L43.566272,33.31168 L42.18048,36.6 L38.868672,36.6 L45.609728,20.933504 L48.005504,20.933504 L54.558656,36.6 L51.270336,36.6 Z M44.52928,30.821952 L48.992,30.821952 L46.76064,25.184832 L44.52928,30.821952 Z M57.39872,20.933504 L61.931904,20.933504 C64.0928,20.933504 65.196736,21.497216 65.924864,22.107904 C67.122752,23.117888 67.475072,24.456704 67.475072,25.631104 C67.475072,27.157824 66.864384,28.49664 65.643008,29.31872 C65.243712,29.600576 64.68,29.858944 63.928384,29.999872 L68.813888,36.6 L65.008832,36.6 L60.827968,30.305216 L60.45216,30.305216 L60.45216,36.6 L57.39872,36.6 L57.39872,20.933504 Z M60.45216,23.423232 L60.45216,28.14432 L61.321216,28.14432 C61.908416,28.14432 64.32768,28.073856 64.32768,25.772032 C64.32768,23.44672 61.931904,23.423232 61.368192,23.423232 L60.45216,23.423232 Z M71.888832,20.933504 L75.975744,20.933504 C78.160128,20.933504 80.062656,21.168384 81.800768,22.460224 C83.703296,23.892992 84.807232,26.171328 84.807232,28.778496 C84.807232,31.385664 83.726784,33.640512 81.65984,35.096768 C79.827776,36.388608 78.113152,36.6 75.928768,36.6 L71.888832,36.6 L71.888832,20.933504 Z M74.942272,23.56416 L74.942272,33.969344 L75.881792,33.969344 C76.656896,33.969344 78.348032,33.922368 79.710336,32.935872 C80.9552,32.043328 81.65984,30.446144 81.65984,28.778496 C81.65984,27.134336 80.978688,25.537152 79.733824,24.597632 C78.465472,23.658112 76.915264,23.56416 75.881792,23.56416 L74.942272,23.56416 Z M97.93504,22.413248 L96.337856,24.50368 C95.421824,23.282304 94.341376,23.164864 93.777664,23.164864 C92.133504,23.164864 91.616768,24.198336 91.616768,24.996928 C91.616768,25.372736 91.734208,25.725056 92.110016,26.053888 C92.485824,26.406208 93.00256,26.594112 93.989056,26.946432 C95.210432,27.369216 96.361344,27.792 97.159936,28.520128 C97.864576,29.154304 98.498752,30.211264 98.498752,31.808448 C98.498752,34.861888 96.29088,36.95232 93.049536,36.95232 C90.160512,36.95232 88.469376,35.19072 87.647296,33.992832 L89.643776,32.090304 C90.395392,33.617024 91.82816,34.180736 92.932096,34.180736 C94.317888,34.180736 95.35136,33.335168 95.35136,32.01984 C95.35136,31.456128 95.163456,31.009856 94.740672,30.61056 C94.153472,30.070336 93.213952,29.764992 92.321408,29.459648 C91.499328,29.177792 90.512832,28.801984 89.71424,28.097344 C89.197504,27.651072 88.469376,26.782016 88.469376,25.184832 C88.469376,22.883008 90.019584,20.581184 93.495808,20.581184 C94.482304,20.581184 96.337856,20.769088 97.93504,22.413248 Z" id="AWARDS"></path>
                    <path d="M6.148736,11.9458566 C3.159552,11.9458566 0.7744,9.66912061 0.7744,6.60249661 C0.7744,3.52038461 3.17504,1.25913661 6.148736,1.25913661 C9.122432,1.25913661 11.523072,3.52038461 11.523072,6.60249661 C11.523072,9.66912061 9.13792,11.9458566 6.148736,11.9458566 Z M6.148736,2.34329661 C3.825536,2.34329661 1.951488,4.23283261 1.951488,6.60249661 C1.951488,8.97216061 3.825536,10.8616966 6.148736,10.8616966 C8.471936,10.8616966 10.345984,8.97216061 10.345984,6.60249661 C10.345984,4.23283261 8.471936,2.34329661 6.148736,2.34329661 Z M14.521792,10.8616966 L14.521792,15.3222406 L13.406656,15.3222406 L13.406656,5.33248061 L14.521792,5.33248061 L14.521792,6.23078461 C15.280704,5.28601661 16.256448,5.17760061 16.721088,5.17760061 C18.734528,5.17760061 19.849664,6.85030461 19.849664,8.58496061 C19.849664,10.3505926 18.71904,11.9458566 16.767552,11.9458566 C15.729856,11.9458566 15.00192,11.4812166 14.521792,10.8616966 Z M16.612672,10.9546246 C17.913664,10.9546246 18.703552,9.87046461 18.703552,8.58496061 C18.703552,7.00518461 17.63488,6.16883261 16.597184,6.16883261 C15.559488,6.16883261 14.45984,7.02067261 14.45984,8.56947261 C14.45984,9.88595261 15.296192,10.9546246 16.612672,10.9546246 Z M26.379648,9.60716861 L27.308928,10.1182726 C27.123072,10.4744966 26.844288,10.8616966 26.51904,11.1559686 C25.930496,11.6825606 25.20256,11.9458566 24.381696,11.9458566 C22.832896,11.9458566 21.206656,10.9701126 21.206656,8.58496061 C21.206656,6.66444861 22.383744,5.17760061 24.319744,5.17760061 C25.574272,5.17760061 26.36416,5.79712061 26.75136,6.35468861 C27.154048,6.92774461 27.386368,7.91897661 27.355392,8.77081661 L22.352768,8.77081661 C22.368256,10.1027846 23.282048,10.9546246 24.397184,10.9546246 C24.923776,10.9546246 25.341952,10.7997446 25.713664,10.4899846 C26.007936,10.2421766 26.240256,9.91692861 26.379648,9.60716861 Z M22.430208,7.84153661 L26.20928,7.84153661 C26.023424,6.83481661 25.264512,6.16883261 24.319744,6.16883261 C23.374976,6.16883261 22.600576,6.88128061 22.430208,7.84153661 Z M29.115072,11.7600006 L29.115072,5.33248061 L30.230208,5.33248061 L30.230208,6.07590461 C30.431552,5.81260861 31.004608,5.17760061 32.07328,5.17760061 C32.832192,5.17760061 33.529152,5.48736061 33.916352,6.06041661 C34.2416,6.54054461 34.288064,7.06713661 34.288064,7.77958461 L34.288064,11.7600006 L33.172928,11.7600006 L33.172928,7.81056061 C33.172928,7.42336061 33.141952,6.97420861 32.878656,6.63347261 C32.661824,6.35468861 32.321088,6.16883261 31.825472,6.16883261 C31.438272,6.16883261 31.020096,6.27724861 30.694848,6.66444861 C30.261184,7.17555261 30.230208,7.93446461 30.230208,8.39910461 L30.230208,11.7600006 L29.115072,11.7600006 Z M45.752768,1.42950461 L45.752768,2.51366461 L41.540032,2.51366461 L41.540032,5.58028861 L45.628864,5.58028861 L45.628864,6.66444861 L41.540032,6.66444861 L41.540032,10.6758406 L45.752768,10.6758406 L45.752768,11.7600006 L40.39392,11.7600006 L40.39392,1.42950461 L45.752768,1.42950461 Z M52.561536,6.24627261 L52.561536,0.46924861 L53.676672,0.46924861 L53.676672,11.7600006 L52.561536,11.7600006 L52.561536,10.8616966 C52.189824,11.3418246 51.492864,11.9458566 50.36224,11.9458566 C48.736,11.9458566 47.233664,10.7997446 47.233664,8.53849661 C47.233664,6.32371261 48.720512,5.17760061 50.36224,5.17760061 C51.60128,5.17760061 52.267264,5.85907261 52.561536,6.24627261 Z M50.486144,6.16883261 C49.386496,6.16883261 48.379776,6.97420861 48.379776,8.53849661 C48.379776,9.91692861 49.154176,10.9546246 50.486144,10.9546246 C51.849088,10.9546246 52.623488,9.82400061 52.623488,8.55398461 C52.623488,6.89676861 51.477376,6.16883261 50.486144,6.16883261 Z M56.954176,5.33248061 L56.954176,9.08057661 C56.954176,9.52972861 56.954176,10.0563206 57.263936,10.4590086 C57.434304,10.6758406 57.77504,10.9546246 58.39456,10.9546246 C59.01408,10.9546246 59.354816,10.6758406 59.525184,10.4590086 C59.834944,10.0563206 59.834944,9.52972861 59.834944,9.08057661 L59.834944,5.33248061 L60.95008,5.33248061 L60.95008,9.20448061 C60.95008,9.99436861 60.87264,10.5829126 60.361536,11.1404806 C59.78848,11.7445126 59.029568,11.9458566 58.39456,11.9458566 C57.759552,11.9458566 57.00064,11.7445126 56.427584,11.1404806 C55.91648,10.5829126 55.83904,9.99436861 55.83904,9.20448061 L55.83904,5.33248061 L56.954176,5.33248061 Z M68.146048,5.79712061 L68.146048,7.12908861 C67.557504,6.38566461 66.705664,6.16883261 66.132608,6.16883261 C64.940032,6.16883261 63.855872,7.00518461 63.855872,8.56947261 C63.855872,10.1337606 64.971008,10.9546246 66.11712,10.9546246 C66.783104,10.9546246 67.603968,10.6603526 68.192512,9.94790461 L68.192512,11.2798726 C67.495552,11.7909766 66.752128,11.9458566 66.148096,11.9458566 C64.150144,11.9458566 62.70976,10.5209606 62.70976,8.58496061 C62.70976,6.61798461 64.165632,5.17760061 66.148096,5.17760061 C67.170304,5.17760061 67.836288,5.58028861 68.146048,5.79712061 Z M74.877376,6.24627261 L74.877376,5.33248061 L75.992512,5.33248061 L75.992512,11.7600006 L74.877376,11.7600006 L74.877376,10.8616966 C74.505664,11.3418246 73.808704,11.9458566 72.67808,11.9458566 C71.05184,11.9458566 69.549504,10.7997446 69.549504,8.53849661 C69.549504,6.32371261 71.036352,5.17760061 72.67808,5.17760061 C73.91712,5.17760061 74.583104,5.85907261 74.877376,6.24627261 Z M72.801984,6.16883261 C71.702336,6.16883261 70.695616,6.97420861 70.695616,8.53849661 C70.695616,9.91692861 71.470016,10.9546246 72.801984,10.9546246 C74.164928,10.9546246 74.939328,9.82400061 74.939328,8.55398461 C74.939328,6.89676861 73.793216,6.16883261 72.801984,6.16883261 Z M80.416128,6.35468861 L79.300992,6.35468861 L79.300992,11.7600006 L78.185856,11.7600006 L78.185856,6.35468861 L77.504384,6.35468861 L77.504384,5.33248061 L78.185856,5.33248061 L78.185856,3.00928061 L79.300992,3.00928061 L79.300992,5.33248061 L80.416128,5.33248061 L80.416128,6.35468861 Z M81.525312,5.33248061 L82.640448,5.33248061 L82.640448,11.7600006 L81.525312,11.7600006 L81.525312,5.33248061 Z M81.292992,2.90086461 C81.292992,2.46720061 81.649216,2.11097661 82.08288,2.11097661 C82.516544,2.11097661 82.872768,2.46720061 82.872768,2.90086461 C82.872768,3.33452861 82.516544,3.69075261 82.08288,3.69075261 C81.649216,3.69075261 81.292992,3.33452861 81.292992,2.90086461 Z M87.807488,11.9458566 C85.856,11.9458566 84.400128,10.5209606 84.400128,8.56947261 C84.400128,6.61798461 85.840512,5.17760061 87.807488,5.17760061 C89.774464,5.17760061 91.214848,6.61798461 91.214848,8.56947261 C91.214848,10.5209606 89.758976,11.9458566 87.807488,11.9458566 Z M87.807488,6.16883261 C86.6304,6.16883261 85.54624,7.00518461 85.54624,8.56947261 C85.54624,10.1492486 86.661376,10.9546246 87.807488,10.9546246 C88.969088,10.9546246 90.068736,10.1337606 90.068736,8.56947261 C90.068736,6.98969661 88.984576,6.16883261 87.807488,6.16883261 Z M92.974528,11.7600006 L92.974528,5.33248061 L94.089664,5.33248061 L94.089664,6.07590461 C94.291008,5.81260861 94.864064,5.17760061 95.932736,5.17760061 C96.691648,5.17760061 97.388608,5.48736061 97.775808,6.06041661 C98.101056,6.54054461 98.14752,7.06713661 98.14752,7.77958461 L98.14752,11.7600006 L97.032384,11.7600006 L97.032384,7.81056061 C97.032384,7.42336061 97.001408,6.97420861 96.738112,6.63347261 C96.52128,6.35468861 96.180544,6.16883261 95.684928,6.16883261 C95.297728,6.16883261 94.879552,6.27724861 94.554304,6.66444861 C94.12064,7.17555261 94.089664,7.93446461 94.089664,8.39910461 L94.089664,11.7600006 L92.974528,11.7600006 Z" id="OpenEducation"></path>
                </g>
            </g>
        </g>
    </g>
</svg>