<?xml version="1.0" encoding="UTF-8"?>
<svg width="280px" height="77px" viewBox="0 0 280 77" version="1.1" xmlns="http://www.w3.org/2000/svg" xmlns:xlink="http://www.w3.org/1999/xlink">
    <!-- Generator: Sketch 55.1 (78136) - https://sketchapp.com -->
    <title>oec-color-logo</title>
    <desc>Created with Sketch.</desc>
    <g id="Badges" stroke="none" stroke-width="1" fill="none" fill-rule="evenodd">
        <g id="Certificate" transform="translate(-58.000000, -50.000000)">
            <g id="oec-color-logo" transform="translate(58.480000, 49.567724)">
                <path d="M37.6532155,2.55811636 C37.6443527,2.55495273 37.6285261,2.55178909 37.6215624,2.54925818 C38.0134273,2.63151273 38.0134273,2.63151273 38.3400869,2.77261091 L38.206511,2.72136 C38.041282,2.66441455 37.9317624,2.62898182 37.6532155,2.55811636" id="Fill-1" fill="#7FB041"></path>
                <path d="M23.461882,1.33948364 C23.4416241,1.34581091 23.4144024,1.35340364 23.3941445,1.35846545 C26.4353706,0.463789091 26.5664143,0.463789091 27.8192424,0.458727273 L28.2206033,0.465054545 L28.1186804,0.465054545 C27.2963339,0.503018182 26.0992151,0.633992727 23.461882,1.33948364 M31.4384535,0.75168 C31.3536233,0.736494545 31.2403053,0.721941818 31.1535759,0.708021818 C31.5663318,0.775723636 32.1196273,0.858610909 32.5311171,0.938334545 L32.9388086,1.02312 C33.8440861,1.24520727 34.8709114,1.49829818 36.9093686,2.30629091 C36.1813482,2.02409455 33.9656339,1.16864727 31.4384535,0.75168" id="Fill-2" fill="#7FB041"></path>
                <path d="M18.8690229,1.92412364 C18.8588939,1.92728727 18.8443335,1.93234909 18.8329384,1.93677818 C19.1260457,1.83933818 19.5160114,1.71152727 19.811651,1.61661818 L19.8401388,1.60965818 C20.2187094,1.55650909 20.2187094,1.55650909 22.3875771,1.52234182 C21.6196739,1.55904 19.8211469,1.64066182 18.8690229,1.92412364" id="Fill-3" fill="#7FB041"></path>
                <path d="M42.9645992,5.43386182 C43.8261955,6.09442909 45.7880522,7.70029091 45.8032457,7.71357818 C43.8705098,6.04317818 43.7958086,5.97737455 42.455618,5.05928727 L42.3809167,5.00930182 C42.4822065,5.07890182 42.6335082,5.18203636 42.9645992,5.43386182" id="Fill-4" fill="#7FB041"></path>
                <path d="M37.2360282,2.45688 L37.2360282,2.45688 C37.3119955,2.48472 37.389862,2.51445818 37.4670955,2.54482909 C37.3873298,2.52268364 37.3119955,2.48661818 37.2360282,2.45688 M37.7469086,2.66631273 C37.6696751,2.63341091 37.5671192,2.59228364 37.4917849,2.56064727 C39.5131494,3.32498182 44.586502,5.61102545 48.4823608,10.7550982 C52.0211731,15.4315855 53.6272494,19.7423564 54.1837102,25.0851055 C53.520262,18.7135418 50.6632567,15.7808509 48.3266278,15.2057018 C46.7028257,14.8051855 45.2119665,15.3809673 43.17984,15.7618691 C51.3906441,12.6520145 43.6774261,5.56863273 38.9364306,3.21552 C38.8395722,3.16743273 38.3318571,2.91750545 37.7469086,2.66631273" id="Fill-5" fill="#26548D"></path>
                <path d="M29.1474049,1.71469091 C29.7317204,2.55495273 32.8533453,2.95926545 33.0768159,2.22277091 C33.1977306,1.82035636 32.1348208,1.24077818 30.5781233,1.09778182 C29.2448963,1.01932364 28.9017771,1.36289455 29.1474049,1.71469091" id="Fill-6" fill="#7FB041"></path>
                <path d="M22.6673902,1.55397818 L22.6673902,1.55397818 C22.7325955,1.54638545 22.7965347,1.54195636 22.8611069,1.53436364 C22.8034984,1.54954909 22.8034984,1.54954909 22.6673902,1.55397818 M23.0782469,1.54195636 C23.0130416,1.54195636 22.9244131,1.54448727 22.8579416,1.54638545 C23.8480494,1.44008727 28.9391278,1.06361455 31.9955473,3.93429818 C33.1648114,1.36985455 37.1708229,2.45688 37.6234616,2.59038545 C34.9221894,1.97347636 33.5870633,4.06274182 35.8407612,7.78317818 C37.5487604,10.6013455 42.3866143,15.0203127 43.17984,15.7618691 C35.3501388,9.63137455 33.5383176,7.78317818 32.715338,6.75752727 C32.2449735,7.72117091 30.6110424,9.95469818 22.902889,14.3787273 C31.2504343,8.76010909 31.3992037,3.12757091 25.5946653,1.80580364 C25.2382518,1.72481455 24.2804302,1.53816 23.0782469,1.54195636" id="Fill-7" fill="#7FB041"></path>
                <path d="M13.2759269,5.18773091 C13.0606861,5.50156364 13.1714718,5.65531636 13.5721996,5.59963636 C14.8054029,5.42310545 17.2971318,3.61477091 16.7875176,3.26803636 C16.5874702,3.12883636 15.9727678,3.38509091 15.7410673,3.48126545 C14.5148278,4.03300364 13.5721996,4.75684364 13.2759269,5.18773091" id="Fill-8" fill="#26548D"></path>
                <path d="M10.1080886,6.97328727 L10.1973502,6.89736 L10.2081122,6.88913455 C10.318898,6.79928727 12.9207796,4.71508364 13.6456347,6.91570909 C16.4171767,3.29461091 21.1543739,1.91526545 23.0611543,1.49133818 C16.8527229,3.19653818 12.1345176,8.52663273 18.342949,12.3906982 C19.408391,13.0537964 21.475969,14.0636291 22.717402,14.4445309 C14.8079351,12.6842836 13.420898,10.7582618 12.9739567,9.96545455 C10.8930845,13.8965891 7.78032245,17.98464 5.50003592,21.7765745 C9.44907184,14.0142764 10.1264473,12.7481891 10.6968355,10.9790836 C12.2497347,6.16086545 10.5176792,6.72778909 10.4999535,6.73285091 C10.3277608,6.79549091 10.1618988,6.93026182 10.1080886,6.97328727" id="Fill-9" fill="#26548D"></path>
                <path d="M1.21294531,35.0606836 C-0.74448,26.94216 0.903378367,22.0682618 1.74281755,19.1912509 C1.57505633,20.2966255 1.20091714,22.3542545 5.0448649,21.8499709 C-0.73941551,21.24888 4.18833306,13.80864 5.83745755,11.5428436 L5.69375265,11.7351927 C4.38078367,13.6599491 3.98638653,14.2414255 2.71330041,16.7957455 C1.7288902,19.1577164 1.72066041,19.7904436 1.03252286,22.3890545 C0.397562449,25.1268655 0.812217551,32.0280218 1.21294531,35.0606836 C1.21294531,35.0606836 0.800189388,31.2402764 0.795124898,31.1548582" id="Fill-10" fill="#7FB041"></path>
                <path d="M48.774202,20.8040727 C48.8451049,22.9939418 50.3745808,25.0332218 51.2532698,24.1075418 C52.0262376,23.2932218 51.6286751,20.5307345 50.2745571,19.3146327 C49.1806273,18.5186618 48.7387506,19.7075564 48.774202,20.8040727" id="Fill-11" fill="#26548D"></path>
                <path d="M43.2475776,15.8675345 C43.169078,15.7973018 43.3513996,15.8675345 43.2475776,15.8675345 C43.7166759,15.8675345 49.2736873,19.3007127 49.5940163,26.9383636 C51.9964837,22.6864364 53.7551278,24.4466836 54.181811,25.1958327 C54.1780127,25.1907709 54.1868755,25.2008945 54.181811,25.1958327 C54.0254449,25.0623273 52.8954306,24.1923273 50.8278527,29.1731564 C50.2637951,30.5309891 50.1156588,31.0491927 47.1149486,43.27032 C47.6739416,39.5631709 47.8423359,35.2859345 48.2595233,31.5673964 C47.4257816,32.6417673 45.620291,34.8702327 39.6252012,36.94368 C51.4818049,30.8967055 47.9885731,20.0732727 43.3165812,15.88272" id="Fill-12" fill="#26548D"></path>
                <path d="M31.3118412,16.1029091 C31.6726861,18.3585818 34.64934,19.3013455 35.8641845,17.5474255 C36.8365665,16.1421382 35.8584869,13.8522982 33.6554339,13.5751636 C31.7505527,13.5245455 31.1383824,15.0228436 31.3118412,16.1029091" id="Fill-13" fill="#7FB041"></path>
                <path d="M22.7186682,14.4445309 L22.717402,14.4445309 C22.8085629,14.4470618 22.902889,14.4527564 22.9953159,14.4616145 C22.9794894,14.4666764 22.9623967,14.4730036 22.9465702,14.4805964 C22.9408727,14.4824945 22.934542,14.4869236 22.9282114,14.4869236 C22.8902278,14.4850255 22.8566755,14.4711055 22.819958,14.4622473 C22.7864057,14.4565527 22.7515873,14.4495927 22.7186682,14.4445309 M23.3207094,14.5824655 C23.223851,14.5565236 23.0953396,14.5267855 22.9984812,14.5033592 C23.0782469,14.5014764 31.1586404,14.66472 33.8269935,21.5336073 C36.366202,15.3569236 42.9671314,15.8453891 43.2475776,15.8675345 C39.0206278,16.4129455 32.5247865,22.7857745 39.5220122,36.8797745 C37.6285261,34.1628436 34.7379686,29.80968 33.7010143,26.5745455 C33.1110012,27.9254182 31.7170004,30.7663636 25.9922278,35.8762691 C35.5197992,24.6972436 30.1495408,16.4306618 23.3207094,14.5824655" id="Fill-14" fill="#7FB041"></path>
                <path d="M11.2520302,20.4934036 C11.7445518,22.4004436 14.0254714,22.31376 15.126998,20.34408 C16.2247261,18.3807273 15.0776192,16.2326182 13.2373102,16.8077673 C13.1708388,16.8305455 13.0784118,16.8672436 13.0132065,16.8925527 C11.3653482,17.7043418 10.991842,19.488 11.2520302,20.4934036" id="Fill-15" fill="#26548D"></path>
                <path d="M5.70324857,21.9904364 C5.64247469,21.9942327 5.56144286,22.0049891 5.50003592,22.0125818 C5.54624939,21.9841091 10.63986,19.5544364 14.2926233,24.7073673 C15.0516637,17.74104 21.455711,14.9684291 22.819958,14.4622473 C15.3865531,18.5401745 14.0077457,29.4028364 25.8390269,35.9218255 C23.8689404,35.1644509 18.353711,32.8385455 15.6651,29.5085018 C15.644842,30.9985745 15.3099527,31.5920727 13.6456347,41.1342327 C14.3128812,23.7582764 8.41401673,21.7791055 5.70324857,21.9904364" id="Fill-16" fill="#26548D"></path>
                <path d="M0.721056735,32.0172655 C0.948325714,32.8733455 1.32436408,33.1163127 1.61493918,32.60064 C2.26319388,31.4478109 1.90488122,27.9133964 1.15786898,28.1000509 C1.00023673,28.1386473 0.895148571,28.3525091 0.831209388,28.48032 C0.398828571,29.5806327 0.507715102,31.2105382 0.721056735,32.0172655" id="Fill-17" fill="#7FB041"></path>
                <path d="M10.123282,48.1973673 C8.67610408,45.9676364 8.69066449,46.4586327 4.71693918,39.1208945 C5.3158151,40.2281673 8.16775592,41.1082909 13.6456347,41.2753309 C2.17393224,39.17088 1.91121184,27.6508145 5.29365796,22.04928 C4.84608367,22.5927927 0.533670612,32.1387491 2.48096694,35.6314036 C1.47883102,33.8306618 1.03632122,33.1795855 1.03378898,33.2010982 C1.01796245,33.3194182 1.30410612,37.0417527 2.88865837,40.2692945 C4.9745951,44.5193236 8.88121592,47.2913018 10.123282,48.1973673" id="Fill-18" fill="#7FB041"></path>
                <path d="M13.2582012,49.5033164 C13.8418837,50.0069673 14.1780392,50.0177236 14.0571245,49.5292582 C13.7849082,48.4409673 11.6856771,46.1125309 11.3811747,46.5624 C11.3153363,46.6585745 11.3729449,46.85472 11.4090294,46.9698764 C11.7686082,47.9309891 12.7061718,49.0275055 13.2582012,49.5033164" id="Fill-19" fill="#7FB041"></path>
                <path d="M28.2725143,55.4319709 C26.3600363,55.2680945 23.5194906,55.5015709 20.431418,53.2889236 C21.2917482,53.9058327 25.8156037,55.0346182 28.8726563,52.8023564 C21.5253478,56.2488218 14.8357898,46.6623709 13.6456347,41.2753309 C13.6962796,41.8485818 12.521318,47.4507491 17.3376478,51.7988509 C14.33124,50.634 11.2210102,49.93104 11.234262,49.9436945 C11.6369314,50.2695491 11.3286306,49.9968436 11.4007996,50.0772 L11.9059824,50.4859418 C12.3579882,50.8617818 15.5701408,53.2414691 18.5778147,54.1260218 C22.7281641,55.3497164 27.1507298,55.6388727 28.2725143,55.4319709" id="Fill-20" fill="#7FB041"></path>
                <path d="M30.4964584,55.1086473 C32.219018,54.8612509 34.7499967,54.5474182 37.9159359,52.6555636 C37.0315494,53.1819927 32.1196273,54.4215055 29.8583327,52.9061236 C35.6717339,55.0738473 44.9967257,47.6671418 47.1111502,43.4639345 C46.954151,43.9043127 46.0558371,47.6722036 40.9438678,51.3167127 C43.8306269,50.23032 46.3312188,47.3393891 46.3172914,47.5956436 C46.3058963,47.7879927 46.3964241,47.5311055 46.3172914,47.5956436 C45.9526482,48.15624 43.2475776,51.0269236 39.3086706,52.9105527 C35.2868327,54.8340436 31.4454171,55.1959636 30.4964584,55.1086473" id="Fill-21" fill="#7FB041"></path>
                <path d="M47.1111502,46.7193164 C48.5849167,45.2368364 49.3344612,44.5193236 51.9312784,38.8633745 C51.5438449,39.7086982 49.9713208,41.8795855 47.1149486,43.27032 C52.5004004,40.6476655 54.9129967,29.56608 54.181811,25.1958327 C54.264742,25.6868291 55.3979216,31.6914109 52.1401886,39.1632873 C50.8221551,42.1864582 48.1183506,46.1511273 47.1111502,46.7193164" id="Fill-22" fill="#7FB041"></path>
                <path d="M41.959931,40.9577018 C41.2319106,42.1877236 40.8387796,43.8163636 42.0384306,43.5423927 C43.6210837,43.1785745 45.527231,40.3224436 44.5004057,39.2917309 C43.6780592,38.7583418 42.5315853,39.9959564 41.959931,40.9577018" id="Fill-23" fill="#26548D"></path>
                <path d="M39.6308988,37.1145164 C39.5960804,37.0531418 39.6308988,37.1145164 39.5935482,37.0531418 C39.6353302,37.0835127 43.2165576,40.2351273 39.3637469,45.7790836 C43.8907678,42.2168291 46.1653567,42.7907127 47.1149486,43.4519127 C47.1149486,43.4569745 47.1130494,43.4614036 47.1111502,43.4639345 C44.6738645,42.9134618 40.8267514,45.8904436 38.2831114,47.86392 C35.2665747,50.1993164 32.6621608,52.21392 29.4392461,53.0149527 C29.5569955,52.9839491 29.7146278,52.9409236 29.8323771,52.9061236 C32.1145629,52.1633018 33.491471,51.1319564 35.714149,49.0971055 C33.6446718,50.4403855 31.4143971,51.5058982 29.4392461,53.0149527 L29.5563624,52.9225745 C31.4428849,51.4540145 33.490838,50.2252582 35.3058245,48.6541964 C37.2562861,46.9667127 38.1577653,45.6898691 38.4572033,45.2178545 C40.7894008,41.5277891 40.4823661,38.6779855 39.6308988,37.1145164" id="Fill-24" fill="#26548D"></path>
                <path d="M31.2143384,38.0636073 C31.2181482,39.6770618 32.2000261,41.1279055 33.3996771,39.8713091 C34.6341465,38.5856073 34.9088951,35.6314036 33.0894771,35.34984 C31.867669,35.3530036 31.2111845,36.7525964 31.2143384,38.0636073" id="Fill-25" fill="#7FB041"></path>
                <path d="M26.0605984,36.0565964 C25.9922278,36.0224291 26.0605984,36.0565964 25.9922278,36.0236945 C26.0492033,36.0300218 31.6347024,36.8146036 31.9202131,43.2266618 C34.1701127,37.5833673 38.6483878,37.0885745 39.5220122,37.0442836 C34.4670184,38.5229673 32.5804959,45.0274036 31.8695682,47.4766909 C31.1687694,49.8911782 30.6642196,51.6324436 29.4392461,53.0149527 C29.4949555,52.9453527 29.572189,52.8504436 29.6316967,52.7821091 C30.6616873,51.3243055 30.7895657,50.0461964 31.0434233,47.4963055 C29.3531498,51.9026182 29.3531498,51.9026182 29.4392461,53.0149527 C29.4348147,52.9826836 29.427851,52.9396582 29.4240527,52.9061236 C29.1448727,49.3040073 31.133318,45.9309382 30.3958016,42.2838982 C29.8108531,39.3929673 28.3541792,37.1600727 26.0605984,36.0565964" id="Fill-26" fill="#7FB041"></path>
                <path d="M18.8690229,40.7666182 C19.7882278,42.1263491 21.4728037,42.9337091 21.7329918,41.3253164 C21.9988776,39.7011055 20.5447359,37.0790836 18.9158694,37.6282909 C17.9181649,38.16168 18.1099824,39.6422618 18.8690229,40.7666182" id="Fill-27" fill="#26548D"></path>
                <path d="M14.2698331,41.2405309 C14.2039947,41.2373673 13.8342869,41.2791273 13.7678155,41.2753309 C13.8076984,41.25888 18.1448008,39.7732364 22.6952449,44.7268582 C20.6358967,39.1006473 25.0787204,36.4893818 25.9922278,36.0236945 C25.0192127,36.8177673 22.8535102,39.1246909 23.7138404,43.3664945 C24.5127637,47.3064873 27.8597584,49.5862036 29.4392461,53.0149527 C29.4012624,52.9453527 29.3531498,52.8517091 29.3189645,52.7840073 C28.9631841,52.2018982 28.9631841,52.2018982 25.2572437,48.4365382 C26.4967776,50.4998618 27.3931922,51.9918327 29.4392461,53.0149527 L29.2974404,52.9510473 C23.585329,50.0379709 21.6487947,41.8061891 14.2698331,41.2405309" id="Fill-28" fill="#26548D"></path>
                <path d="M9.97451265,7.09224 L9.97451265,7.09224 C10.008698,7.06376727 10.0384518,7.03529455 10.0720041,7.00618909 C10.0384518,7.03529455 10.0055327,7.06313455 9.97451265,7.09224 M10.101758,6.97961455 L10.0428833,7.03086545 C10.0954273,6.98657455 10.1448061,6.94165091 10.1973502,6.89736 C10.1688624,6.92266909 10.1308788,6.95493818 10.101758,6.97961455" id="Fill-29" fill="#7FB041"></path>
                <path d="M5.10817102,13.7118327 C4.6023551,14.2724291 4.30165102,14.4938836 4.28329224,14.3211491 C4.20415959,13.5840218 6.88390776,10.1381891 7.20740204,10.5608509 C7.25994612,10.6298182 7.18904327,10.8050836 7.14536204,10.9120145 C6.69335633,11.8655345 5.42343551,13.3632 5.10817102,13.7118327" id="Fill-30" fill="#7FB041"></path>
                <path d="M6.39581755,15.8567782 C4.7656849,15.2170909 2.47273714,15.8169164 0.807786122,22.3181891 C1.53580653,19.6974327 1.6668502,19.2241527 2.71330041,16.7957455 C3.83761714,14.5685455 4.1060351,14.0389527 5.69375265,11.7351927 L5.83745755,11.5428436 C7.15802327,9.78829091 8.60140286,8.25519273 10.2517935,6.85306909 C6.08308531,10.4033018 3.88129837,14.5596873 3.05452041,16.1250545 C3.62870694,15.2057018 4.4979,13.8105382 6.42367224,15.8700655 C6.41670857,15.8675345 6.40278122,15.86184 6.39581755,15.8567782" id="Fill-31" fill="#7FB041"></path>
                <path d="M68.946698,17.4259418 C68.946698,19.4544655 69.6278718,21.1223345 70.9908527,22.4295491 C72.3437045,23.7373964 73.909898,24.3916364 75.6818363,24.3916364 C77.6057094,24.3916364 79.2301445,23.7253745 80.5526094,22.3947491 C81.8738082,21.0476727 82.5366233,19.4070109 82.5366233,17.4733964 C82.5366233,15.5157382 81.882671,13.8763418 80.5766657,12.5526764 C79.2776241,11.2214182 77.6690155,10.5557891 75.7533722,10.5557891 C73.8440596,10.5557891 72.234818,11.2214182 70.9186837,12.5526764 C69.6031824,13.8687491 68.946698,15.4923273 68.946698,17.4259418 Z M66.154898,17.3962036 C66.154898,14.8102473 67.1013245,12.5893745 68.9935445,10.7342182 C70.8788008,8.87779636 73.1445269,7.95021818 75.7894567,7.95021818 C78.4021004,7.95021818 80.6437702,8.88602182 82.5132,10.7576291 C84.3895935,12.6298691 85.3284233,14.8785818 85.3284233,17.5037673 C85.3284233,20.1441382 84.385162,22.3846255 82.5018049,24.2252291 C80.6076857,26.0727927 78.3229678,26.9965745 75.647018,26.9965745 C73.279369,26.9965745 71.1522833,26.1752945 69.2670269,24.5346327 C67.1924853,22.7187055 66.154898,20.3383855 66.154898,17.3962036 L66.154898,17.3962036 Z" id="Fill-32" fill="#3B5767"></path>
                <path d="M91.0899135,16.6350327 L92.1237024,16.6350327 C94.6660763,16.6350327 95.9372633,15.6555709 95.9372633,13.6966473 C95.9372633,11.8009964 94.6268265,10.8531709 92.0046869,10.8531709 L91.0899135,10.8531709 L91.0899135,16.6350327 Z M91.0899135,19.2045382 L91.0899135,26.6631273 L88.3234359,26.6631273 L88.3234359,8.29632 L91.457089,8.29632 C92.9941616,8.29632 94.1551959,8.40325091 94.9389257,8.61711273 C95.7308853,8.83097455 96.4266196,9.23528727 97.0292939,9.83005091 C98.0820747,10.8607636 98.6094147,12.1616509 98.6094147,13.73208 C98.6094147,15.4138691 98.0466233,16.74576 96.9216735,17.7296509 C95.7973567,18.7129091 94.2811751,19.2045382 92.3737616,19.2045382 L91.0899135,19.2045382 L91.0899135,19.2045382 Z" id="Fill-33" fill="#3B5767"></path>
                <polyline id="Fill-34" fill="#3B5767" points="111.094648 10.9012582 103.741642 10.9012582 103.741642 15.3145309 110.879407 15.3145309 110.879407 17.9194691 103.741642 17.9194691 103.741642 24.0581891 111.094648 24.0581891 111.094648 26.6631273 100.973265 26.6631273 100.973265 8.29632 111.094648 8.29632 111.094648 10.9012582"></polyline>
                <polyline id="Fill-35" fill="#3B5767" points="114.241596 26.6631273 114.241596 7.04668364 127.617546 21.0603273 127.617546 8.29632 130.385923 8.29632 130.385923 27.7817891 117.009972 13.8035782 117.009972 26.6631273 114.241596 26.6631273"></polyline>
                <polyline id="Fill-36" fill="#3B5767" points="151.435842 10.9012582 144.084102 10.9012582 144.084102 15.3145309 151.2225 15.3145309 151.2225 17.9194691 144.084102 17.9194691 144.084102 24.0581891 151.435842 24.0581891 151.435842 26.6631273 141.316358 26.6631273 141.316358 8.29632 151.435842 8.29632 151.435842 10.9012582"></polyline>
                <path d="M157.351799,24.0581891 L158.600196,24.0581891 C159.842262,24.0581891 160.876051,23.9272145 161.700296,23.6652655 C162.523909,23.3874982 163.268389,22.9477527 163.933736,22.3447636 C165.295451,21.0995564 165.977258,19.4778764 165.977258,17.4797236 C165.977258,15.46512 165.303681,13.8314182 163.957793,12.5779855 C162.74548,11.4599564 160.959615,10.9012582 158.600196,10.9012582 L157.351799,10.9012582 L157.351799,24.0581891 Z M154.585321,26.6631273 L154.585321,8.29632 L158.434333,8.29632 C160.277808,8.29632 161.735748,8.47791273 162.804988,8.84299636 C163.952728,9.19985455 164.994114,9.80600727 165.928512,10.6639855 C167.822631,12.3919636 168.768425,14.6640873 168.768425,17.4797236 C168.768425,20.3029527 167.782116,22.5864655 165.810763,24.3315273 C164.820022,25.2040582 163.784334,25.8108436 162.698634,26.1512509 C161.683837,26.4929236 160.246155,26.6631273 158.386221,26.6631273 L154.585321,26.6631273 L154.585321,26.6631273 Z" id="Fill-37" fill="#3B5767"></path>
                <path d="M174.529282,8.29632 L174.529282,19.3506982 C174.529282,20.9274545 174.786938,22.0809164 175.301617,22.8104509 C176.06952,23.8639418 177.150156,24.3916364 178.544156,24.3916364 C179.946387,24.3916364 181.031454,23.8639418 181.79999,22.8104509 C182.313403,22.1043273 182.571692,20.9514982 182.571692,19.3506982 L182.571692,8.29632 L185.339436,8.29632 L185.339436,20.1200945 C185.339436,22.0556073 184.736761,23.6494473 183.533312,24.90288 C182.178561,26.2980436 180.515509,26.9965745 178.544156,26.9965745 C176.572804,26.9965745 174.912917,26.2980436 173.567662,24.90288 C172.364213,23.6494473 171.761538,22.0556073 171.761538,20.1200945 L171.761538,8.29632 L174.529282,8.29632" id="Fill-38" fill="#3B5767"></path>
                <path d="M202.803696,9.27704727 L202.803696,12.5545745 C201.203317,11.2138255 199.547229,10.5444 197.836697,10.5444 C195.951441,10.5444 194.362457,11.2220509 193.072911,12.5779855 C191.775136,13.9263273 191.124982,15.5758473 191.124982,17.5265455 C191.124982,19.4544655 191.775136,21.0805745 193.072911,22.4048727 C194.371953,23.7285382 195.963469,24.3916364 197.847459,24.3916364 C198.82174,24.3916364 199.650418,24.2321891 200.330958,23.9151927 C200.711428,23.7570109 201.105192,23.5425164 201.512251,23.2729745 C201.921841,23.0034327 202.350424,22.6782109 202.803696,22.2973091 L202.803696,25.6457018 C201.21851,26.5460727 199.555458,26.9965745 197.813274,26.9965745 C195.191767,26.9965745 192.95263,26.0797527 191.101559,24.2480073 C189.255552,22.4004436 188.333182,20.1719782 188.333182,17.5626109 C188.333182,15.2234182 189.104884,13.1373164 190.651452,11.3055709 C192.54937,9.06065455 195.008813,7.93819636 198.027882,7.93819636 C199.673841,7.93819636 201.26599,8.38490182 202.803696,9.27704727" id="Fill-39" fill="#3B5767"></path>
                <path d="M215.891603,19.5968291 L213.173238,13.3518109 L210.322564,19.5968291 L215.891603,19.5968291 Z M217.021618,22.2017673 L209.168493,22.2017673 L207.127504,26.6631273 L204.145785,26.6631273 L213.220085,7.14159273 L221.975955,26.6631273 L218.946757,26.6631273 L217.021618,22.2017673 L217.021618,22.2017673 Z" id="Fill-40" fill="#3B5767"></path>
                <polyline id="Fill-41" fill="#3B5767" points="227.821642 10.9012582 227.821642 26.6631273 225.051999 26.6631273 225.051999 10.9012582 220.835811 10.9012582 220.835811 8.29632 232.025802 8.29632 232.025802 10.9012582 227.821642 10.9012582"></polyline>
                <polygon id="Fill-42" fill="#3B5767" points="234.009816 26.6631273 236.776926 26.6631273 236.776926 8.29632 234.009816 8.29632"></polygon>
                <path d="M242.573235,17.4259418 C242.573235,19.4544655 243.256308,21.1223345 244.616756,22.4295491 C245.97214,23.7373964 247.535802,24.3916364 249.310272,24.3916364 C251.233512,24.3916364 252.857314,23.7253745 254.179146,22.3947491 C255.502877,21.0476727 256.164426,19.4070109 256.164426,17.4733964 C256.164426,15.5157382 255.509841,13.8763418 254.202569,12.5526764 C252.904161,11.2214182 251.296818,10.5557891 249.381175,10.5557891 C247.472496,10.5557891 245.861355,11.2214182 244.545853,12.5526764 C243.231618,13.8687491 242.573235,15.4923273 242.573235,17.4259418 Z M239.782701,17.3962036 C239.782701,14.8102473 240.72976,12.5893745 242.622613,10.7342182 C244.505338,8.87779636 246.77233,7.95021818 249.416627,7.95021818 C252.029903,7.95021818 254.270307,8.88602182 256.139737,10.7576291 C258.016763,12.6298691 258.95496,14.8785818 258.95496,17.5037673 C258.95496,20.1441382 258.012332,22.3846255 256.127709,24.2252291 C254.236122,26.0727927 251.950138,26.9965745 249.274188,26.9965745 C246.906539,26.9965745 244.77882,26.1752945 242.89483,24.5346327 C240.820921,22.7187055 239.782701,20.3383855 239.782701,17.3962036 L239.782701,17.3962036 Z" id="Fill-43" fill="#3B5767"></path>
                <polyline id="Fill-44" fill="#3B5767" points="261.94934 26.6631273 261.94934 7.04668364 275.324657 21.0603273 275.324657 8.29632 278.091768 8.29632 278.091768 27.7817891 264.717083 13.8035782 264.717083 26.6631273 261.94934 26.6631273"></polyline>
                <path d="M77.715862,32.8587927 L77.715862,35.3795782 C76.4832918,34.3482327 75.2121049,33.8338255 73.8966037,33.8338255 C72.4462604,33.8338255 71.2250853,34.35456 70.2324453,35.3979273 C69.2334747,36.4343345 68.7352555,37.7035855 68.7352555,39.2037818 C68.7352555,40.6862618 69.2334747,41.9358982 70.2324453,42.9558545 C71.2307829,43.9745455 72.4551233,44.4832582 73.9054665,44.4832582 C74.654378,44.4832582 75.2906045,44.3611418 75.8154122,44.1169091 C76.1059873,43.9954255 76.4098567,43.8302836 76.7238551,43.6233818 C77.0365873,43.41648 77.3670453,43.1665527 77.715862,42.8729673 L77.715862,45.4488 C76.4965861,46.1410036 75.2178024,46.4871055 73.8776118,46.4871055 C71.863211,46.4871055 70.1400184,45.7816145 68.7175298,44.3744291 C67.2963073,42.9520582 66.5866457,41.2392655 66.5866457,39.2316218 C66.5866457,37.4321455 67.1804571,35.8288145 68.36808,34.4184655 C69.8304514,32.6930182 71.7214053,31.8293455 74.0428408,31.8293455 C75.3095963,31.8293455 76.5333037,32.1729164 77.715862,32.8587927" id="Fill-45" fill="#3B5767"></path>
                <path d="M91.1095384,39.1259564 C91.1095384,40.6862618 91.63308,41.9694327 92.6788971,42.9748364 C93.7228151,43.9808727 94.9243653,44.4832582 96.2898784,44.4832582 C97.7693424,44.4832582 99.0183722,43.9707491 100.035069,42.9482618 C101.052398,41.9118545 101.560746,40.6501964 101.560746,39.1632873 C101.560746,37.6573964 101.058729,36.3963709 100.05406,35.3783127 C99.0544567,34.35456 97.816822,33.8433164 96.3449547,33.8433164 C94.8749865,33.8433164 93.6360857,34.35456 92.62572,35.3783127 C91.6134551,36.3900436 91.1095384,37.6403127 91.1095384,39.1259564 Z M88.9609286,39.1038109 C88.9609286,37.1151491 89.6908482,35.4067855 91.1449898,33.9806182 C92.5940669,32.5525527 94.3362514,31.8382036 96.3715433,31.8382036 C98.3815127,31.8382036 100.104072,32.55888 101.540488,33.9983345 C102.984501,35.4377891 103.70809,37.1670327 103.70809,39.1860655 C103.70809,41.2158545 102.982602,42.9406691 101.533524,44.3554473 C100.078117,45.7765527 98.3220049,46.4871055 96.2620237,46.4871055 C94.4413396,46.4871055 92.8055094,45.8556436 91.3570653,44.5920873 C89.7592188,43.1969236 88.9609286,41.3664436 88.9609286,39.1038109 L88.9609286,39.1038109 Z" id="Fill-46" fill="#3B5767"></path>
                <polyline id="Fill-47" fill="#3B5767" points="115.739418 46.2308509 115.739418 31.1441018 126.027296 41.9213455 126.027296 32.1045818 128.155648 32.1045818 128.155648 47.09136 117.867137 36.3400582 117.867137 46.2308509 115.739418 46.2308509"></polyline>
                <path d="M148.868145,34.1995418 L147.141154,35.2239273 C146.818293,34.6633309 146.509992,34.2969818 146.217518,34.1267782 C145.914282,33.9306327 145.519884,33.8338255 145.039391,33.8338255 C144.448112,33.8338255 143.958756,34.0014982 143.568157,34.3368436 C143.179457,34.6664945 142.983208,35.0809309 142.983208,35.5814182 C142.983208,36.2723564 143.494722,36.8266255 144.519015,37.2486545 L145.925677,37.8244364 C147.070251,38.2901236 147.907791,38.8551491 148.438297,39.5233091 C148.968802,40.1921018 149.234055,41.0114836 149.234055,41.9820873 C149.234055,43.2817091 148.801674,44.3573455 147.935646,45.2052 C147.063921,46.0593818 145.983918,46.4871055 144.69374,46.4871055 C143.4675,46.4871055 142.457767,46.1226545 141.66011,45.39312 C140.873848,44.6661164 140.383226,43.6410982 140.186344,42.3256582 L142.344449,41.8485818 C142.441941,42.6774545 142.610968,43.2500727 142.855963,43.5683345 C143.294674,44.1776509 143.934066,44.4832582 144.774138,44.4832582 C145.437587,44.4832582 145.990249,44.2611709 146.426428,43.8163636 C146.867039,43.3715564 147.085445,42.8058982 147.085445,42.1244509 C147.085445,41.8498473 147.048094,41.5992873 146.970228,41.3708727 C146.89616,41.1418255 146.776511,40.9311273 146.614447,40.7394109 C146.45365,40.5470618 146.246006,40.3667345 145.990249,40.2003273 C145.732593,40.0326545 145.428724,39.8719418 145.076109,39.7194545 L143.715027,39.1531636 C141.783557,38.3369455 140.818772,37.1423564 140.818772,35.5681309 C140.818772,34.5089455 141.222665,33.6212291 142.033616,32.9094109 C142.844568,32.1887345 143.851768,31.8293455 145.058383,31.8293455 C146.684084,31.8293455 147.954638,32.6202545 148.868145,34.1995418" id="Fill-48" fill="#3B5767"></path>
                <path d="M162.597977,39.1259564 C162.597977,40.6862618 163.124051,41.9694327 164.170501,42.9748364 C165.21252,43.9808727 166.414703,44.4832582 167.77895,44.4832582 C169.259047,44.4832582 170.50871,43.9707491 171.52604,42.9482618 C172.540837,41.9118545 173.051717,40.6501964 173.051717,39.1632873 C173.051717,37.6573964 172.548433,36.3963709 171.543765,35.3783127 C170.544162,34.35456 169.307793,33.8433164 167.83466,33.8433164 C166.365324,33.8433164 165.127057,34.35456 164.114792,35.3783127 C163.10316,36.3900436 162.597977,37.6403127 162.597977,39.1259564 Z M160.4519,39.1038109 C160.4519,37.1151491 161.17992,35.4067855 162.634695,33.9806182 C164.083772,32.5525527 165.827222,31.8382036 167.862514,31.8382036 C169.873117,31.8382036 171.59441,32.55888 173.032725,33.9983345 C174.474839,35.4377891 175.197795,37.1670327 175.197795,39.1860655 C175.197795,41.2158545 174.472307,42.9406691 173.023862,44.3554473 C171.568455,45.7765527 169.810444,46.4871055 167.751729,46.4871055 C165.929778,46.4871055 164.295214,45.8556436 162.844871,44.5920873 C161.25019,43.1969236 160.4519,41.3664436 160.4519,39.1038109 L160.4519,39.1038109 Z" id="Fill-49" fill="#3B5767"></path>
                <path d="M189.358741,38.5913018 L190.035484,38.5913018 C192.051784,38.5913018 193.058984,37.8193745 193.058984,36.2761527 C193.058984,34.8303709 192.079005,34.1077964 190.117782,34.1077964 L189.358741,34.1077964 L189.358741,38.5913018 Z M192.009369,40.2110836 L196.376225,46.2308509 L193.772444,46.2308509 L189.743642,40.4477236 L189.358741,40.4477236 L189.358741,46.2308509 L187.231022,46.2308509 L187.231022,32.1045818 L189.724651,32.1045818 C191.58775,32.1045818 192.934271,32.45448 193.762948,33.1561745 C194.677089,33.9375927 195.134159,34.9676727 195.134159,36.2489455 C195.134159,37.2486545 194.847382,38.1097964 194.275095,38.8292073 C193.702174,39.5498836 192.946932,40.0092436 192.009369,40.2110836 L192.009369,40.2110836 Z" id="Fill-50" fill="#3B5767"></path>
                <polyline id="Fill-51" fill="#3B5767" points="211.578557 34.1077964 211.578557 46.2308509 209.450205 46.2308509 209.450205 34.1077964 206.2064 34.1077964 206.2064 32.1045818 214.812867 32.1045818 214.812867 34.1077964 211.578557 34.1077964"></polyline>
                <polygon id="Fill-52" fill="#3B5767" points="226.068062 46.2308509 228.196414 46.2308509 228.196414 32.1045818 226.068062 32.1045818"></polygon>
                <path d="M243.070821,32.1045818 L243.070821,40.6071709 C243.070821,41.8194764 243.268336,42.7078255 243.663999,43.2677891 C244.255278,44.0783127 245.086488,44.4832582 246.15826,44.4832582 C247.236364,44.4832582 248.070738,44.0783127 248.660751,43.2677891 C249.057681,42.7249091 249.255196,41.8390909 249.255196,40.6071709 L249.255196,32.1045818 L251.383548,32.1045818 L251.383548,41.1994036 C251.383548,42.6869455 250.92078,43.9131709 249.995878,44.8774473 C248.954492,45.9505527 247.675708,46.4871055 246.15826,46.4871055 C244.640813,46.4871055 243.365194,45.9505527 242.330772,44.8774473 C241.40587,43.9131709 240.943102,42.6869455 240.943102,41.1994036 L240.943102,32.1045818 L243.070821,32.1045818" id="Fill-53" fill="#3B5767"></path>
                <polyline id="Fill-54" fill="#3B5767" points="263.626952 46.2308509 266.597275 31.0422327 271.438294 42.0225818 276.454038 31.0422327 279.122391 46.2308509 276.937064 46.2308509 275.575982 37.7035855 271.401577 46.8812945 267.34492 37.6940945 265.828106 46.2308509 263.626952 46.2308509"></polyline>
                <text id="The-Global-Network-f" font-family="Futura-Medium, Futura" font-size="10.56" font-weight="400" letter-spacing="2.34299997" fill="#3B5767">
                    <tspan x="0" y="74.0322759">The Global Network for Open Educatio</tspan>
                    <tspan x="274.335186" y="74.0322759">n</tspan>
                </text>
            </g>
        </g>
    </g>
</svg>