<?xml version="1.0" encoding="UTF-8"?>
<svg width="100px" height="100px" viewBox="0 0 100 100" version="1.1" xmlns="http://www.w3.org/2000/svg" xmlns:xlink="http://www.w3.org/1999/xlink">
    <!-- Generator: Sketch 55.1 (78136) - https://sketchapp.com -->
    <title>oec-oval-logo</title>
    <desc>Created with Sketch.</desc>
    <defs>
        <circle id="path-1" cx="34.2105263" cy="34.2105263" r="34.2105263"></circle>
    </defs>
    <g id="Badges" stroke="none" stroke-width="1" fill="none" fill-rule="evenodd">
        <g id="Certificate" transform="translate(-655.000000, -53.000000)">
            <g id="oec-oval-logo" transform="translate(655.000000, 53.000000)">
                <circle id="Oval" stroke="#8E969B" stroke-width="0.6" fill="#FFFFFF" fill-rule="nonzero" cx="50" cy="50" r="49.7"></circle>
                <g id="Group-5" transform="translate(15.789474, 15.789474)">
                    <mask id="mask-2" fill="white">
                        <use xlink:href="#path-1"></use>
                    </mask>
                    <circle stroke="#3C6078" stroke-width="0.6" cx="34.2105263" cy="34.2105263" r="33.9105263"></circle>
                    <g id="logo/icon" mask="url(#mask-2)">
                        <g transform="translate(-3.157895, -3.157895)">
                            <g transform="translate(0.000000, 0.000000)">
                                <path d="M51.5514999,3.79299956 C51.5393656,3.78884144 51.5176973,3.78468332 51.5081633,3.78135683 C52.0446705,3.88946795 52.0446705,3.88946795 52.4919044,4.07492011 L52.3090239,4.00755856 C52.0828067,3.9327124 51.9328621,3.88614145 51.5514999,3.79299956" id="Fill-1" fill="#7FB041"></path>
                                <path d="M32.1219634,2.19129171 C32.0942279,2.19960795 32.0569584,2.20958744 32.029223,2.21624043 C36.1930047,1.04032407 36.3724182,1.04032407 38.0876813,1.03367108 L38.6371896,1.04198732 L38.4976457,1.04198732 C37.3717605,1.09188476 35.7327699,1.26403093 32.1219634,2.19129171 M43.0427895,1.418713 C42.9266474,1.39875402 42.7715023,1.37962667 42.65276,1.36133094 C43.2178694,1.45031471 43.9753934,1.55925746 44.5387694,1.66404208 L45.0969449,1.7754797 C46.336372,2.06737973 47.7422117,2.40002934 50.5330895,3.46201321 C49.5363474,3.09110889 46.5027846,1.96675322 43.0427895,1.418713" id="Fill-2" fill="#7FB041"></path>
                                <path d="M25.833821,2.9597123 C25.8199533,2.96387042 25.8000184,2.97052341 25.7844173,2.97634478 C26.1857143,2.84827468 26.7196213,2.68028663 27.1243853,2.55554303 L27.1633882,2.54639516 C27.6816941,2.47653875 27.6816941,2.47653875 30.6511188,2.43163105 C29.5997726,2.47986524 27.1373863,2.58714474 25.833821,2.9597123" id="Fill-3" fill="#7FB041"></path>
                                <path d="M58.8233833,7.57273072 C60.0030059,8.44094619 62.6890091,10.5516079 62.7098107,10.5690721 C60.0636772,8.37358465 59.9614028,8.28709575 58.1265306,7.0804093 L58.0242562,7.014711 C58.1629334,7.10618965 58.3700824,7.24174436 58.8233833,7.57273072" id="Fill-4" fill="#7FB041"></path>
                                <path d="M50.9803233,3.65993972 L50.9803233,3.65993972 C51.0843312,3.69653118 51.1909393,3.73561751 51.2966806,3.77553546 C51.1874723,3.74642862 51.0843312,3.69902605 50.9803233,3.65993972 M51.6797762,3.93520727 C51.5740349,3.89196282 51.4336243,3.83790726 51.3304832,3.79632606 C54.0979592,4.80092787 61.0439513,7.80558544 66.3778215,14.5666887 C71.2228547,20.7132218 73.4217544,26.3790762 74.183612,33.4013094 C73.2752766,25.0268556 69.363714,21.1722783 66.1646054,20.416332 C63.9414372,19.889914 61.9002828,20.6466919 59.1180723,21.1473295 C70.3595894,17.0598975 59.7993238,7.74986664 53.3083661,4.65705692 C53.1757561,4.59385349 52.4806368,4.26536201 51.6797762,3.93520727" id="Fill-5" fill="#26548D"></path>
                                <path d="M39.9060856,2.68444475 C40.7060794,3.78884144 44.9799361,4.32024919 45.2858925,3.35223884 C45.4514384,2.82332596 43.996195,2.06155836 41.8649004,1.87361133 C40.0395623,1.77048996 39.5697935,2.2220618 39.9060856,2.68444475" id="Fill-6" fill="#7FB041"></path>
                                <path d="M31.0342144,2.47321225 L31.0342144,2.47321225 C31.1234878,2.46323276 31.2110278,2.45741139 31.2994345,2.4474319 C31.2205618,2.46739088 31.2205618,2.46739088 31.0342144,2.47321225 M31.5967236,2.45741139 C31.5074502,2.45741139 31.3861077,2.46073789 31.2951008,2.46323276 C32.65067,2.32351993 39.6209307,1.82870364 43.8055139,5.6017818 C45.4063683,2.23120966 50.8910499,3.65993972 51.5107635,3.83541239 C47.812417,3.02457897 45.9844787,5.77060148 49.0700455,10.6605507 C51.4084891,14.3646041 58.0320568,20.1726662 59.1180723,21.1473295 C48.398328,13.0897244 45.9177403,10.6605507 44.7909884,9.31248816 C44.1470064,10.5790515 41.9099705,13.5146843 31.3566388,19.3293994 C42.7853701,11.9445782 42.9890521,4.54146118 35.0419843,2.80419861 C34.554014,2.69775073 33.2426481,2.45242165 31.5967236,2.45741139" id="Fill-7" fill="#7FB041"></path>
                                <path d="M18.1762417,7.24922898 C17.8815527,7.66171449 18.0332309,7.86379913 18.5818724,7.79061621 C20.2702668,7.55859311 23.6817249,5.18181167 22.9840054,4.72608171 C22.710118,4.54312443 21.868521,4.87993215 21.551297,5.006339 C19.8724367,5.73151515 18.5818724,6.68289302 18.1762417,7.24922898" id="Fill-8" fill="#26548D"></path>
                                <path d="M13.8391136,9.59607195 L13.9613228,9.49627707 L13.9760573,9.48546596 C14.1277354,9.36737535 17.6900049,6.62800584 18.6824133,9.52039417 C22.4769671,4.76100992 28.9627244,2.94806956 31.5733219,2.39088147 C23.0732788,4.6321082 16.6135235,11.6377089 25.1135665,16.7164368 C26.5722769,17.5879788 29.4030243,18.9152507 31.1026863,19.4158883 C20.2737337,17.1023103 18.3747234,14.5708468 17.7628104,13.5288219 C14.9138616,18.6957019 10.6521392,24.0688247 7.53016966,29.0527474 C12.9368453,18.850384 13.8642488,17.1863044 14.6451746,14.8610836 C16.7712687,8.52826672 14.3998894,9.27340183 14.3756209,9.28005483 C14.1398697,9.3623856 13.9127858,9.53952152 13.8391136,9.59607195" id="Fill-9" fill="#26548D"></path>
                                <path d="M1.66065896,46.5126937 C-1.01927711,35.8421259 1.2368269,29.4361261 2.38611384,25.6547317 C2.1564298,27.1075789 1.64419105,29.8120202 6.90698918,29.1492158 C-1.01234325,28.359173 5.73430047,18.5801062 7.99213794,15.6020606 L7.79538972,15.8548743 C5.99778707,18.3846746 5.45781288,19.148937 3.71481436,22.5062032 C2.36704573,25.6106556 2.35577821,26.4422797 1.41364028,29.8577595 C0.544307844,33.4561966 1.11201746,42.5267198 1.66065896,46.5126937 C1.66065896,46.5126937 1.09554955,41.4913479 1.08861569,41.3790786" id="Fill-10" fill="#7FB041"></path>
                                <path d="M66.7773851,27.7745413 C66.8744591,30.6527921 68.9684841,33.3331163 70.1715085,32.1164503 C71.2297885,31.0461502 70.6854807,27.4152798 68.8315404,25.8168984 C67.3338271,24.7707154 66.728848,26.3333369 66.7773851,27.7745413" id="Fill-11" fill="#26548D"></path>
                                <path d="M59.2108126,21.2862108 C59.1033378,21.1939005 59.3529567,21.2862108 59.2108126,21.2862108 C59.8530612,21.2862108 67.4612368,25.7986027 67.8998033,35.8371362 C71.1890521,30.2486228 73.5968343,32.5622008 74.1810118,33.5468436 C74.1758114,33.5401906 74.1879457,33.5534966 74.1810118,33.5468436 C73.9669289,33.371371 72.4198119,32.2278879 69.5890644,38.7744322 C68.816806,40.5590973 68.6139907,41.2401974 64.5056799,57.3030153 C65.2710044,52.4305302 65.5015552,46.8087518 66.0727317,41.9212975 C64.9312454,43.3333951 62.4593251,46.2623749 54.2513708,48.9876068 C70.4843988,41.039776 65.7017703,26.8140156 59.3052865,21.3061697" id="Fill-12" fill="#26548D"></path>
                                <path d="M42.8694431,21.5955749 C43.3634805,24.5603145 47.4388554,25.7994343 49.1021146,23.4941725 C50.4334153,21.6471356 49.094314,18.6374883 46.0780858,18.2732369 C43.4700885,18.206707 42.6319584,20.1759927 42.8694431,21.5955749" id="Fill-13" fill="#7FB041"></path>
                                <path d="M31.1044197,19.4158883 L31.1026863,19.4158883 C31.2274957,19.4192148 31.3566388,19.4266995 31.4831817,19.4383422 C31.4615134,19.4449952 31.4381116,19.4533114 31.4164433,19.4632909 C31.4086427,19.4657858 31.3999754,19.4716072 31.3913081,19.4716072 C31.3393042,19.4691123 31.2933673,19.4508166 31.2430969,19.4391738 C31.1971601,19.4316892 31.1494898,19.4225413 31.1044197,19.4158883 M31.9286821,19.5971824 C31.796072,19.5630858 31.6201254,19.5239995 31.4875154,19.4932093 C31.5967236,19.4907345 42.6596939,19.7052935 46.3129702,28.7334038 C49.7894332,20.6150902 58.8268503,21.2571039 59.2108126,21.2862108 C53.4236415,22.0030707 44.530102,30.3791878 54.1100934,48.9036127 C51.5176973,45.3326192 47.5601979,39.611046 46.1404905,35.3589524 C45.3326961,37.1344696 43.4241517,40.8684615 35.5862921,47.584657 C48.6306122,32.8915239 41.2781227,22.0263561 31.9286821,19.5971824" id="Fill-14" fill="#7FB041"></path>
                                <path d="M15.4052987,27.3662139 C16.0796164,29.8727287 19.2024527,29.7587962 20.7105668,27.1699507 C22.2134805,24.5894214 20.6429616,21.7660578 18.123371,22.522004 C18.0323642,22.5519425 17.9058212,22.6001767 17.8165478,22.6334417 C15.5604438,23.7004153 15.0490718,26.0447634 15.4052987,27.3662139" id="Fill-15" fill="#26548D"></path>
                                <path d="M7.80839071,29.3338364 C7.72518441,29.3388261 7.61424269,29.3529637 7.53016966,29.3629432 C7.59344111,29.3255201 14.5671687,26.1320839 19.5682137,32.9048299 C20.6074256,23.7486495 29.3752889,20.104473 31.2430969,19.4391738 C21.065927,24.7989906 19.1781842,39.0763117 35.3765429,47.644534 C32.6792722,46.64908 25.128301,43.5920301 21.4472892,39.2151929 C21.4195537,41.1736675 20.9610524,41.9537308 18.6824133,54.4954526 C19.5959491,31.6573939 11.5197381,29.0560739 7.80839071,29.3338364" id="Fill-16" fill="#26548D"></path>
                                <path d="M0.987208016,42.5125822 C1.29836489,43.6377695 1.81320384,43.9571131 2.21103393,43.2793395 C3.09856774,41.7641205 2.6079973,37.1186688 1.58525326,37.3639979 C1.36943693,37.4147269 1.22555938,37.6958159 1.13801942,37.8638039 C0.546041308,39.3099981 0.695119253,41.4522615 0.987208016,42.5125822" id="Fill-17" fill="#7FB041"></path>
                                <path d="M13.8599152,63.7788715 C11.8785653,60.8482285 11.8985001,61.4935687 6.45802188,51.849225 C7.27795058,53.304567 11.1825793,54.461356 18.6824133,54.6809048 C2.9763585,51.9149233 2.61666462,36.7735448 7.24761495,29.4111774 C6.63483526,30.1255424 0.730655274,42.672254 3.39672363,47.2628185 C2.0246865,44.8960166 1.41884067,44.0402755 1.41537374,44.0685507 C1.39370543,44.2240644 1.7854684,49.1165085 3.95489919,53.3586226 C6.8107819,58.9446411 12.1593865,62.5879859 13.8599152,63.7788715" id="Fill-18" fill="#7FB041"></path>
                                <path d="M18.1519732,65.4953435 C18.9511003,66.1573162 19.4113351,66.1714538 19.2457893,65.5294401 C18.8730944,64.0990468 15.9990103,61.0386704 15.5821121,61.6299551 C15.491972,61.7563619 15.5708446,62.0141654 15.6202483,62.1655209 C16.1125522,63.4287578 17.3961827,64.8699622 18.1519732,65.4953435" id="Fill-19" fill="#7FB041"></path>
                                <path d="M38.7082616,73.2876605 C36.0898635,73.0722699 32.200836,73.3791392 27.9729162,70.47095 C29.1508053,71.2817834 35.3444738,72.7654006 39.5299238,69.8314311 C29.4706295,74.3612871 20.3118699,61.7613516 18.6824133,54.6809048 C18.7517519,55.4343561 17.1430969,62.7975552 23.7371957,68.5124754 C19.6210843,66.9814556 15.3628289,66.0575213 15.3809721,66.0741538 C15.9322719,66.5024402 15.5101733,66.1440102 15.6089808,66.2496265 L16.3006331,66.7868556 C16.91948,67.2808402 21.3172793,70.4085782 25.4351242,71.5711886 C31.1174207,73.1795494 37.1724121,73.5596016 38.7082616,73.2876605" id="Fill-20" fill="#7FB041"></path>
                                <path d="M41.753092,72.8627006 C44.1114704,72.5375357 47.5766658,72.1250501 51.9111938,69.6384943 C50.7003688,70.3304055 43.9753934,71.959557 40.8794259,69.9678174 C48.838628,72.8169613 61.6055938,63.0819706 64.5004795,57.5574922 C64.2855299,58.1363026 63.0556368,63.0886236 56.056774,67.8787779 C60.009073,66.4508795 63.4326654,62.6511893 63.4135972,62.9879971 C63.3979961,63.2408108 63.5219388,62.9031714 63.4135972,62.9879971 C62.9143595,63.724816 59.2108126,67.4978941 53.8180047,69.9736388 C48.3116548,72.5017758 43.0523236,72.9774648 41.753092,72.8627006" id="Fill-21" fill="#7FB041"></path>
                                <path d="M64.5004795,61.8361978 C66.5182321,59.8877027 67.5444431,58.9446411 71.0997787,51.510754 C70.5693386,52.6218037 68.4163757,55.4751057 64.5056799,57.3030153 C71.878971,53.8559337 75.1820875,39.2908707 74.1810118,33.5468436 C74.2945537,34.1921839 75.8460044,42.0842958 71.3858003,51.9049438 C69.5812638,55.8784434 65.8794505,61.0893994 64.5004795,61.8361978" id="Fill-22" fill="#7FB041"></path>
                                <path d="M57.4478793,54.2634295 C56.4511372,55.8801066 55.9128965,58.0207068 57.5553541,57.6606136 C59.7221847,57.1824298 62.3319154,53.428479 60.9260757,52.0737635 C59.8001906,51.3727044 58.2305385,52.999361 57.4478793,54.2634295" id="Fill-23" fill="#26548D"></path>
                                <path d="M54.2591714,49.2121452 C54.2115011,49.1314777 54.2591714,49.2121452 54.2080342,49.1314777 C54.2652385,49.1713957 59.1683428,53.3137149 53.8934104,60.6004045 C60.0914126,55.9183613 63.2055815,56.6726443 64.5056799,57.5416914 C64.5056799,57.5483444 64.5030797,57.5541657 64.5004795,57.5574922 C61.1635604,56.8339794 55.8964286,60.7467703 52.4138985,63.3406057 C48.2839194,66.4101299 44.7181829,69.0580208 40.3056491,70.1108568 C40.4668613,70.0701072 40.6826776,70.0135568 40.8438898,69.9678174 C43.9684596,68.9914909 45.8536022,67.6359437 48.896699,64.9614409 C46.0633514,66.7269787 43.0098537,68.1274335 40.3056491,70.1108568 L40.4659946,69.9894397 C43.0488567,68.0592403 45.8527354,66.4442265 48.3376567,64.3793041 C51.0080588,62.1613628 52.2422855,60.4831455 52.6522498,59.862754 C55.8452914,55.0127228 55.4249262,51.2670882 54.2591714,49.2121452" id="Fill-24" fill="#26548D"></path>
                                <path d="M42.7359507,50.4595813 C42.7411667,52.5802225 44.0854684,54.4871364 45.727926,52.8355311 C47.4180538,51.1456711 47.7942156,47.2628185 45.3032272,46.8927459 C43.630434,46.896904 42.7316327,48.7364563 42.7359507,50.4595813" id="Fill-25" fill="#7FB041"></path>
                                <path d="M35.6798992,47.8216699 C35.5862921,47.7767622 35.6798992,47.8216699 35.5862921,47.7784254 C35.664298,47.7867417 43.3114765,48.8179555 43.7023728,57.2456332 C46.7827391,49.8283786 52.914003,49.1780487 54.1100934,49.119835 C47.1892365,51.0633403 44.6063745,59.6124352 43.6330342,62.8316518 C42.6735616,66.005129 41.982776,68.2937583 40.3056491,70.1108568 C40.3819216,70.0193781 40.4876629,69.8946345 40.5691357,69.8048191 C41.9793091,67.8887574 42.154389,66.2088769 42.5019486,62.8574321 C40.1877735,68.6488618 40.1877735,68.6488618 40.3056491,70.1108568 C40.299582,70.068444 40.2900479,70.0118935 40.2848476,69.9678174 C39.9026186,65.2333819 42.6250246,60.7999943 41.6152815,56.0065135 C40.8144209,52.2068233 38.8200701,49.2720222 35.6798992,47.8216699" id="Fill-26" fill="#7FB041"></path>
                                <path d="M25.833821,54.0122791 C27.0923162,55.7994391 29.3986907,56.8605913 29.7549176,54.7466031 C30.1189452,52.6118242 28.1280612,49.1655743 25.8979592,49.8874239 C24.5319892,50.588483 24.794609,52.5344832 25.833821,54.0122791" id="Fill-27" fill="#26548D"></path>
                                <path d="M19.5370113,54.6351655 C19.4468712,54.6310073 18.9406995,54.6858945 18.8496926,54.6809048 C18.9042968,54.6592825 24.8422793,52.7066294 31.0723506,59.2174138 C28.2528707,51.822613 34.3355975,48.3905007 35.5862921,47.7784254 C34.2541247,48.8221136 31.2890337,51.8542147 32.4669228,57.4294221 C33.5607389,62.6079449 38.1431522,65.6042862 40.3056491,70.1108568 C40.2536452,70.0193781 40.1877735,69.8962978 40.14097,69.807314 C39.6538665,69.0422199 39.6538665,69.0422199 34.580016,64.0932254 C36.2770777,66.8051513 37.5043705,68.7661207 40.3056491,70.1108568 L40.1115011,70.0268628 C32.2909761,66.1980658 29.6396422,55.3786373 19.5370113,54.6351655" id="Fill-28" fill="#26548D"></path>
                                <path d="M13.6562331,9.7915498 L13.6562331,9.7915498 C13.708029,9.7484093 13.7531106,9.70526881 13.8039474,9.66116963 C13.7531106,9.70526881 13.7032331,9.74745062 13.6562331,9.7915498 M13.849029,9.62090517 L13.7598249,9.69855806 C13.8394372,9.63145062 13.9142535,9.56338451 13.9938657,9.49627707 C13.9507025,9.53462418 13.8931515,9.58351674 13.849029,9.62090517" id="Fill-29" fill="#7FB041"></path>
                                <path d="M6.9936624,18.4528677 C6.30114335,19.1896866 5.88944554,19.480755 5.8643103,19.2537217 C5.75596877,18.2848797 9.42484632,13.7558553 9.8677465,14.3113801 C9.93968527,14.4020271 9.84261126,14.632387 9.78280674,14.7729315 C9.16395992,16.0261889 7.42529506,17.9946429 6.9936624,18.4528677" id="Fill-30" fill="#7FB041"></path>
                                <path d="M8.75659577,21.2720731 C6.52476027,20.4313013 3.38545611,21.2196808 1.10595033,29.7646176 C2.1026924,26.3200309 2.28210597,25.6979762 3.71481436,22.5062032 C5.25413081,19.5788866 5.62162528,18.8828173 7.79538972,15.8548743 L7.99213794,15.6020606 C9.80014138,13.2959672 11.7762909,11.2809422 14.0358618,9.43806339 C8.32843005,14.1043057 5.31393533,19.5672439 4.18198303,21.6246817 C4.96810917,20.416332 6.15813253,18.5826011 8.79473199,21.2895373 C8.78519793,21.2862108 8.76612983,21.2787261 8.75659577,21.2720731" id="Fill-31" fill="#7FB041"></path>
                            </g>
                        </g>
                    </g>
                </g>
                <path d="M27.7159047,80.6534223 C18.2546367,73.7635307 12.1052632,62.5998969 12.1052632,50 C12.1052632,29.0713147 29.0713147,12.1052632 50,12.1052632 C70.9286853,12.1052632 87.8947368,29.0713147 87.8947368,50 C87.8947368,61.2158803 83.0221048,71.2936963 75.2782309,78.232058" id="Path" stroke-linecap="round" stroke-linejoin="round" fill-rule="nonzero"></path>
                <path d="M17.3577851,73.3881717 C16.7836026,73.7339588 16.1637176,73.8203671 15.4981115,73.6475777 C14.8335659,73.4765496 14.3241948,73.0969048 13.9699831,72.508632 C13.6200134,71.9274044 13.5277222,71.3038263 13.6931067,70.6378791 C13.8574306,69.9701706 14.2310815,69.4608089 14.8140704,69.1097787 C15.4005819,68.7566275 16.0243399,68.6666278 16.6853629,68.8397769 C17.3492077,69.0136268 17.8603494,69.398205 18.2188032,69.993523 C18.535897,70.5201505 18.6383494,71.1028129 18.5261635,71.7415278 C18.4006814,72.4458451 18.0112259,72.9947209 17.3577851,73.3881717 Z M16.9918815,72.7625457 C17.4427733,72.491054 17.7223176,72.11635 17.830523,71.6384222 C17.9397889,71.1622558 17.8756452,70.7269139 17.63809,70.3323837 C17.3803851,69.9043888 17.0150363,69.6324104 16.5420327,69.5164403 C16.0655065,69.4025913 15.6123721,69.4750485 15.1826159,69.733814 C14.7475758,69.995761 14.4704842,70.3605889 14.3513326,70.8283085 C14.2293592,71.2953275 14.2966937,71.741947 14.5533382,72.1681806 C14.8089221,72.5926529 15.1726802,72.8619894 15.6446232,72.9761982 C16.1130437,73.0925279 16.5621253,73.0213111 16.9918815,72.7625457 Z M13.0417836,64.7647168 L14.8578429,64.1008542 L15.1045414,64.7757216 L10.6324593,66.4104964 L10.3529382,65.6458398 C10.2160004,65.2712335 10.1386603,64.978823 10.1209156,64.7685996 C10.1024651,64.5564452 10.1388274,64.3505246 10.2300037,64.1508318 C10.3871486,63.8022516 10.656882,63.5580845 11.0392122,63.4183233 C11.4485758,63.2686799 11.823088,63.2871926 12.1627599,63.4738617 C12.5024318,63.6605309 12.7573206,63.9865413 12.9274341,64.4519028 L13.0417836,64.7647168 Z M12.4161555,64.9934159 L12.3240406,64.7414268 C12.097458,64.1215885 11.7456984,63.898847 11.2687511,64.0731956 C10.8072516,64.2418973 10.6933241,64.645816 10.9269654,65.284964 L11.0084924,65.5079888 L12.4161555,64.9934159 Z M8.59835929,57.19473 L8.95125695,59.0707495 L10.0756564,58.859239 L9.73302066,57.0377725 L10.3967497,56.9129186 L10.7393854,58.734385 L12.3032401,58.4402086 L11.9503424,56.5641891 L12.6140714,56.4393352 L13.0998046,59.0215139 L8.4203634,59.9017626 L7.93463027,57.319584 L8.59835929,57.19473 Z M12.0466353,52.85656 L6.96131951,52.8495148 L10.5989393,49.3821004 L7.28993749,49.3775161 L7.29093296,48.6589723 L12.3423261,48.6659706 L8.71395803,52.1333978 L12.0476308,52.1380163 L12.0466353,52.85656 Z M9.92686534,36.5307289 L9.34019484,38.3472651 L10.4289427,38.6988883 L10.9985533,36.9351755 L11.6412373,37.1427374 L11.0716267,38.9064502 L12.5858959,39.3955003 L13.1725664,37.5789641 L13.8152505,37.7865261 L13.0077492,40.2868311 L8.47668006,38.823472 L9.28418131,36.323167 L9.92686534,36.5307289 Z M15.0254521,34.3734979 L10.8294412,32.1228313 L11.3017314,31.2423213 C11.5281597,30.8201816 11.7486371,30.5091741 11.9631704,30.3092893 C12.1856098,30.0903152 12.4519964,29.9264138 12.7623381,29.8175802 C13.3895604,29.5964214 14.0247492,29.6583347 14.6679233,30.003322 C15.3129092,30.3492811 15.713701,30.8547145 15.8703108,31.5196372 C15.9481298,31.8530045 15.9594239,32.1646824 15.9041936,32.4546805 C15.8577094,32.7283727 15.7202834,33.0780952 15.4919115,33.5038584 L15.0254521,34.3734979 Z M14.7699333,33.4210585 L14.9229903,33.135708 C15.0755621,32.8512619 15.1724859,32.5987967 15.2137646,32.3783046 C15.2514198,32.1558689 15.2422161,31.9316324 15.1861533,31.7055882 C15.0688561,31.241394 14.7819302,30.886856 14.3253672,30.6419636 C13.8651806,30.3951276 13.4093627,30.3489379 12.9578997,30.5033931 C12.5537571,30.643569 12.2068935,30.9836037 11.9172985,31.5235077 L11.7642415,31.8088582 L14.7699333,33.4210585 Z M15.319342,24.4587809 L17.540185,26.2735363 C17.856995,26.5324167 18.1309078,26.6699562 18.3619317,26.6861589 C18.699857,26.7047545 18.9832951,26.5739573 19.2122546,26.2937635 C19.4425151,26.0119778 19.5148695,25.7073667 19.4293201,25.3799211 C19.3721901,25.1606598 19.1828349,24.9196412 18.8612489,24.6568581 L16.6404059,22.8421027 L17.0950704,22.285698 L19.4687456,24.2253398 C19.8571961,24.5427609 20.0783179,24.9252302 20.1321177,25.3727589 C20.1898565,25.8739522 20.056765,26.3227473 19.7328393,26.7191578 C19.4089136,27.1155683 18.996283,27.3346114 18.4949352,27.3762936 C18.0456598,27.4127359 17.6268032,27.2722486 17.2383527,26.9548274 L14.8646775,25.0151857 L15.319342,24.4587809 Z M23.1020702,16.6997529 L23.6465259,17.3539903 C23.1050523,17.3525747 22.6636506,17.4938974 22.3223077,17.7779627 C21.9461984,18.0909605 21.7417955,18.4897504 21.709093,18.9743443 C21.6734951,19.458673 21.8174534,19.8952067 22.1409722,20.2839584 C22.4605456,20.6679692 22.8597225,20.8840861 23.3385149,20.9323156 C23.8173072,20.980545 24.2447516,20.8481628 24.620861,20.535165 C24.8152368,20.3734056 24.9540728,20.2043725 25.0373732,20.0280608 C25.0869249,19.9333294 25.1300355,19.8252361 25.1667066,19.7037776 C25.2033776,19.5823192 25.2351881,19.4461842 25.2621391,19.2953685 L25.8164582,19.961458 C25.6490081,20.4030544 25.3914549,20.7685099 25.0437908,21.0578357 C24.5207144,21.4931394 23.922395,21.6821335 23.2488148,21.6248235 C22.5741846,21.5630379 22.0205411,21.2721915 21.5878676,20.7522757 C21.1999081,20.2860897 21.0081136,19.7422573 21.0124784,19.1207622 C21.0195702,18.3579116 21.324157,17.7259661 21.9262481,17.2249065 C22.2549487,16.9513621 22.6468855,16.7763127 23.1020702,16.6997529 Z M30.7834304,15.5130235 L28.9996373,16.4996052 L29.095183,17.7683108 L28.4178274,18.1429432 L28.0302894,12.5741795 L32.4684679,15.9026118 L31.7803178,16.2832144 L30.7834304,15.5130235 Z M30.2001902,15.0638171 L28.7986109,13.9888335 L28.9345338,15.7638274 L30.2001902,15.0638171 Z M35.0460277,10.2406107 L36.3886417,14.0998792 L35.709993,14.3359766 L34.367379,10.4767081 L33.3333863,10.8364273 L33.111475,10.1985558 L35.8551964,9.24403323 L36.0771077,9.88190477 L35.0460277,10.2406107 Z M40.3530529,7.91277795 L41.2893474,12.5813281 L40.5848318,12.7226212 L39.6485372,8.0540711 L40.3530529,7.91277795 Z M44.7616975,9.52762092 C44.7428667,8.85765189 44.9722764,8.2753244 45.4499334,7.78062097 C45.9255353,7.2859753 46.5065325,7.02900986 47.1929425,7.00971694 C47.871132,6.99065507 48.4595381,7.2168088 48.9581785,7.68818493 C49.458874,8.15950329 49.7187777,8.73527615 49.7378973,9.41552078 C49.7571325,10.0998756 49.5288948,10.687312 49.0531773,11.1778474 C48.5754626,11.6704957 47.9892987,11.926578 47.2946683,11.946102 C46.6801875,11.9633732 46.1224177,11.7661807 45.6213422,11.3545186 C45.0696731,10.8990301 44.7831277,10.2900703 44.7616975,9.52762092 Z M45.4863836,9.51650747 C45.5011709,10.0426181 45.6900676,10.4702468 46.0530791,10.7994062 C46.4140355,11.1286235 46.824681,11.2867602 47.2850278,11.2738213 C47.7844219,11.2597848 48.200863,11.0753161 48.5343638,10.7204095 C48.8677491,10.3613927 49.0273922,9.9311661 49.0132979,9.42971689 C48.9990304,8.92210232 48.8175288,8.50146432 48.4687875,8.16779026 C48.1220437,7.83200332 47.7000086,7.67110162 47.2026696,7.68508032 C46.7073858,7.69900126 46.2940272,7.88338338 45.9625816,8.23823219 C45.6310204,8.58897076 45.4722893,9.01505826 45.4863836,9.51650747 Z M53.3784302,11.8079857 L54.3197218,6.81054063 L57.0597349,11.023327 L57.6722309,7.7715025 L58.3783587,7.9045049 L57.4433461,12.8686134 L54.7016206,8.66491888 L54.0845579,11.9409881 L53.3784302,11.8079857 Z M70.8113466,12.861959 L70.3957413,13.6047448 C70.2029736,13.0987446 69.9128228,12.7373305 69.5252804,12.5204919 C69.0982661,12.2815679 68.6527082,12.2336924 68.1885934,12.376864 C67.7236882,12.5172375 67.3677634,12.8081038 67.1208084,13.2494715 C66.876865,13.6854567 66.8181925,14.1355747 66.9447893,14.5998391 C67.0713861,15.0641035 67.3481875,15.4156924 67.7752018,15.6546164 C67.9958857,15.778094 68.2034518,15.8471151 68.3979064,15.8616819 C68.5041045,15.8739847 68.620468,15.875485 68.7470001,15.8661829 C68.8735323,15.8568808 69.0120235,15.8377804 69.162478,15.8088812 L68.7393437,16.5651747 C68.2670694,16.5670889 67.8335793,16.4576463 67.4388601,16.2367922 C66.8449873,15.9045071 66.4540864,15.4136902 66.2661456,14.7643266 C66.0820068,14.1123786 66.1550749,13.4912717 66.4853522,12.9009872 C66.7814976,12.3717048 67.2204444,11.9977202 67.8022059,11.7790222 C68.5169072,11.5122017 69.2160383,11.5700301 69.89962,11.9525093 C70.272809,12.1613168 70.5767148,12.4644637 70.8113466,12.861959 Z M73.0419419,16.6525239 C73.4803946,16.1455994 74.0427917,15.8709295 74.7291502,15.8285058 C75.4139536,15.7847372 76.0160285,15.9874559 76.5353928,16.4366682 C77.0485371,16.8805006 77.3298893,17.4446001 77.3794578,18.1289835 C77.4305813,18.8147118 77.2335573,19.4149167 76.7883799,19.929616 C76.3405126,20.4474253 75.7755306,20.7266551 75.0934171,20.7673138 C74.4084036,20.8081825 73.8031138,20.6013239 73.2775296,20.1467319 C72.8125897,19.7445928 72.534283,19.2225417 72.442601,18.5805629 C72.3431884,17.8720957 72.5429666,17.2294225 73.0419419,16.6525239 Z M73.5840184,17.1336126 C73.239712,17.5316882 73.0903315,17.9746709 73.1358723,18.4625739 C73.1798581,18.949132 73.3760062,19.3430392 73.7243224,19.6443073 C74.1021832,19.9711294 74.5339237,20.1162227 75.0195569,20.0795917 C75.50788,20.0398507 75.916119,19.8302755 76.244286,19.4508597 C76.5764879,19.0667789 76.7266035,18.6339458 76.6946375,18.1523475 C76.6655714,17.6705391 76.4628884,17.2669024 76.0865826,16.9414252 C75.7118317,16.6172931 75.2824236,16.4742171 74.7983454,16.512193 C74.316957,16.547059 73.9121854,16.7541968 73.5840184,17.1336126 Z M77.8601227,24.157741 L81.9302883,21.1090956 L81.1044057,26.0662276 L83.7528519,24.082482 L84.1836186,24.6575873 L80.1406039,27.6858961 L80.9590817,22.7343104 L78.2908895,24.7328463 L77.8601227,24.157741 Z M87.3934629,31.2787528 L86.8278745,30.9057573 C86.9502836,30.7250218 87.0157815,30.5776941 87.02437,30.4637697 C87.0385544,30.3425499 87.0101171,30.2089176 86.9390571,30.0628687 C86.8518063,29.8835428 86.7285592,29.7594588 86.569312,29.6906128 C86.4119136,29.6208673 86.2574192,29.6228737 86.1058241,29.6966321 C85.8969188,29.7982748 85.804244,30.0354176 85.8277971,30.4080676 L85.8608757,30.9201215 C85.8894776,31.3360423 85.8416898,31.6736642 85.7175108,31.9329974 C85.5933318,32.1923305 85.3842722,32.3935037 85.0903257,32.536523 C84.6965483,32.728115 84.3073154,32.7551662 83.9226153,32.6176774 C83.535167,32.4792394 83.246101,32.2140601 83.0554085,31.8221314 C82.8746104,31.4505386 82.8352941,31.0901367 82.9374582,30.7409147 C83.0414214,30.3953901 83.2786693,30.0959076 83.6492091,29.8424581 L84.1118274,30.4267417 C83.8747933,30.5786522 83.7262016,30.7149667 83.6660479,30.8356891 C83.5459394,31.0587463 83.5479501,31.2978329 83.6720801,31.5529563 C83.7701248,31.7544668 83.9190049,31.8889425 84.118725,31.9563874 C84.318445,32.0238322 84.5218303,32.0071833 84.728887,31.9064401 C84.8120794,31.865963 84.8827162,31.8173051 84.9407996,31.7604651 C84.9988829,31.7036252 85.045123,31.6365436 85.0795211,31.5592185 C85.1139192,31.4818934 85.1376485,31.392041 85.1507096,31.2896587 C85.1637707,31.1872764 85.1673249,31.0712305 85.1613723,30.9415174 L85.1322668,30.4446781 C85.0948561,29.7381018 85.3146324,29.2687861 85.7916022,29.0367169 C86.1132795,28.8802052 86.4420796,28.872269 86.7780124,29.0129081 C87.115794,29.1526477 87.3737306,29.4055371 87.5518302,29.7715837 C87.7919948,30.265192 87.7392062,30.7675767 87.3934629,31.2787528 Z M87.5161299,35.5588607 C88.1643036,35.3883203 88.7835219,35.47944 89.3738034,35.8322224 C89.9635618,36.1830165 90.345798,36.6904458 90.5205233,37.3545256 C90.6931562,38.0106523 90.6065883,38.6350506 90.2608169,39.2277393 C89.9155687,39.8224162 89.4138946,40.2063269 88.7557797,40.3794829 C88.0936882,40.5536852 87.4697609,40.4648675 86.883979,40.1130271 C86.2956857,39.7597215 85.9131359,39.2470601 85.736318,38.5750273 C85.5799021,37.9805367 85.6452259,37.392553 85.9322914,36.8110586 C86.2505435,36.170337 86.7784844,35.7529419 87.5161299,35.5588607 Z M87.6915851,36.2620739 C87.1825899,36.3959951 86.8090553,36.6771003 86.5709703,37.105398 C86.3323622,37.5317073 86.2716496,37.9675409 86.3888307,38.4129118 C86.5159513,38.8960596 86.7902028,39.2597051 87.2115937,39.5038592 C87.636961,39.746967 88.092206,39.8046981 88.5773421,39.6770544 C89.068443,39.5478413 89.4368496,39.2755259 89.682573,38.8600998 C89.9308079,38.4461389 89.9916257,37.9985854 89.8650282,37.5174258 C89.7389539,37.0382545 89.465487,36.6775913 89.0446193,36.4354255 C88.6277281,36.1922135 88.1767212,36.1344302 87.6915851,36.2620739 Z M89.3836678,45.9480308 L87.4492556,47.5444754 L87.3950468,46.6672425 L89.2564684,45.1896296 L89.2484797,45.0603532 L87.3031772,45.1805635 L87.2588592,44.4633871 L92.011307,44.1697087 L92.0632333,45.0100055 C92.1020356,45.6379228 92.0120698,46.0987029 91.7933333,46.3923598 C91.5496958,46.7163934 91.2124203,46.891722 90.7814967,46.918351 C90.4449659,46.939147 90.1496761,46.8605828 89.8956185,46.6826562 C89.6415608,46.5047296 89.4709123,46.2598569 89.3836678,45.9480308 Z M89.8733158,45.0217413 L89.887391,45.2495141 C89.9293634,45.9287317 90.2099256,46.2522949 90.7290859,46.2202133 C91.215414,46.1901606 91.4381591,45.8447646 91.3973279,45.1840151 L91.3815408,44.9285403 L89.8733158,45.0217413 Z M91.5071953,52.5880936 L87.4401944,52.1930379 L87.5096645,51.4778596 L91.5766654,51.8729153 L91.6825105,50.783266 L92.3547167,50.848562 L92.0738545,53.7399694 L91.4016483,53.6746734 L91.5071953,52.5880936 Z M91.4025155,58.3791342 L86.7696384,57.2798355 L86.93553,56.5807032 L91.5684071,57.6800019 L91.4025155,58.3791342 Z M89.9242459,63.4668606 L87.2733115,62.3723162 C86.8951477,62.2161761 86.5931553,62.1637746 86.3673252,62.21511 C86.038474,62.2950862 85.8050051,62.5022995 85.6669113,62.8367559 C85.5280329,63.1731127 85.5469106,63.4856295 85.7235448,63.7743155 C85.8416728,63.9676679 86.0926654,64.1435884 86.4765303,64.3020824 L89.1274646,65.3966268 L88.8532401,66.0607856 L86.0198758,64.8909177 C85.5561975,64.6994696 85.2338692,64.3973404 85.0528813,63.9845211 C84.8525955,63.5214724 84.8501382,63.0533652 85.0455095,62.5801853 C85.2408808,62.1070054 85.5724827,61.77794 86.0403252,61.5929792 C86.4598386,61.4281009 86.9014279,61.4413857 87.3651062,61.6328338 L90.1984705,62.8027018 L89.9242459,63.4668606 Z M82.9825626,67.5817762 L86.6239214,71.316972 L82.6503386,70.5573935 L84.7319607,74.0542692 L80.0087301,71.8843305 L80.427802,71.2780154 L83.0534398,72.5342248 L81.3102673,69.6161699 L84.6358251,70.2502463 L82.5599838,68.1931651 L82.9825626,67.5817762 Z" id="OPENEDUCATIONCONSORTIUM" fill="#1D549B" fill-rule="nonzero"></path>
            </g>
        </g>
    </g>
</svg>