<?xml version="1.0" encoding="UTF-8"?>
<svg width="105px" height="91px" viewBox="0 0 105 91" version="1.1" xmlns="http://www.w3.org/2000/svg" xmlns:xlink="http://www.w3.org/1999/xlink">
    <title>logos/isotype</title>
    <g id="Badges" stroke="none" stroke-width="1" fill="none" fill-rule="evenodd">
        <g id="Certificate" transform="translate(-661.000000, -58.000000)" fill="#F2F2F2" fill-rule="nonzero">
            <g id="Group" transform="translate(655.000000, 53.000000)">
                <g id="oeg-mainV-RGB" transform="translate(6.358696, 3.192771)">
                    <g id="Group" transform="translate(11.445652, 0.000000)">
                        <g id="Icon" transform="translate(0.000000, 2.227374)">
                            <path d="M54.1114237,3.46850706 C57.9138545,5.58450376 61.1537491,8.58191984 63.559385,12.209369 C63.6420518,12.3440088 63.6029652,12.5199952 63.4710863,12.6069319 L59.8066901,14.9757442 C59.7419216,15.0187597 59.6624824,15.0336437 59.5865467,15.016991 C59.5106109,15.0003384 59.4446762,14.9535741 59.4038272,14.8873969 C55.21464,8.58458165 48.1023231,4.85434777 40.5384702,4.9929848 L40.2682178,4.99996538 C37.8255203,5.34512059 35.4602561,7.41082075 33.5378259,10.9062462 C33.2770867,11.3804676 33.029125,11.87252 32.794297,12.3809698 L33.0797764,12.3639768 C35.6018081,12.2204124 38.1735078,12.1431085 40.7120955,12.1431085 C42.7760777,12.1431085 44.8676532,12.1928039 46.9426728,12.2921946 C46.9901982,12.2948594 47.0344653,12.3172148 47.064835,12.353888 C47.0952046,12.3905612 47.1089307,12.4382361 47.1027142,12.4854544 L47.1027142,12.4854544 L46.639146,16.5825609 C46.6134164,16.8304258 46.4025289,17.0174517 46.1535031,17.013254 C44.6524251,16.9801238 41.8158293,16.9249067 40.7120955,16.9249067 C38.2618065,16.9249067 35.7894428,16.9966889 33.3612285,17.1402533 C32.5940893,17.1849926 31.8275349,17.2367438 31.0616603,17.2954918 C30.5652,19.2105538 30.2164251,21.2514894 30.0274905,23.3707973 C31.0548382,23.2833785 32.0833421,23.2095613 33.1128884,23.1478703 C35.6238827,23.0043059 38.1735078,22.927002 40.7065768,22.927002 C44.304749,22.927002 47.9581078,23.0816098 51.572836,23.3742603 L52.0253669,23.4129123 L53.0683953,23.5012596 L53.1456567,23.5012596 C55.4193483,23.7110844 57.7647826,23.9982132 60.1267729,24.3460807 L61.5726641,24.5503839 C62.124531,24.6332095 62.6763979,24.7215568 63.2282648,24.8154258 L63.2613768,24.8154258 L65.7889272,25.2737275 L67.709424,25.5608562 C67.7718688,25.5743501 67.8278378,25.6024176 67.874249,25.6409096 L67.9191334,25.6492035 C67.9815171,25.659729 68.0277515,25.7129279 68.0295077,25.7762028 L68.0295077,27.1455861 C68.0330921,41.2265096 57.2522939,52.9613419 43.2286086,54.1412109 C32.9886551,55.0062724 23.24645,50.0011396 17.9349673,41.4101111 C14.7880745,41.9955751 11.6627297,42.7026869 8.56584888,43.5284904 C8.47788981,43.5536292 8.38463213,43.5116402 8.34510212,43.4290996 L6.32526929,39.3375148 C6.30737699,39.2989539 6.30678947,39.2545842 6.32365445,39.2155625 C6.34051943,39.1765407 6.37323247,39.1465792 6.41356799,39.1332117 C9.48723427,38.2900255 12.5887808,37.5600182 15.7119265,36.944231 C14.9105475,34.8769344 14.3761627,32.7479866 14.10119,30.6040777 C10.2168678,31.4415043 6.3698106,32.4633941 2.5725744,33.6667219 C2.47503892,33.7006437 2.36733855,33.6584769 2.31871563,33.5673312 L0.0615800302,29.6193108 C0.0431438347,29.5845174 0.0404373702,29.5435021 0.0541416739,29.5065856 C0.0678459776,29.4696691 0.0966562011,29.4403664 0.133322727,29.426051 C1.47435928,28.9870753 2.84022985,28.5667354 4.2146371,28.1650312 L5.59128632,27.769539 L6.33630663,27.5652358 C8.84671969,26.8781701 11.3756216,26.2663655 13.9196118,25.7303831 C14.0288606,23.6495464 14.3784483,21.5862328 14.9602031,19.5846828 C12.8174145,20.0311765 10.685033,20.5346407 8.56584888,21.0937954 C8.52205457,21.1041576 8.47676871,21.0837678 8.4554755,21.0441 L8.4554755,21.0441 L6.34182529,16.8365594 C6.33100013,16.8156047 6.33032941,16.7908515 6.34000391,16.7693408 C6.34967842,16.74783 6.36863936,16.731916 6.39149332,16.7261252 C9.93689232,15.7636281 13.5187679,14.950847 17.1275927,14.2893393 C18.3556384,12.0136775 19.9229928,9.88940223 21.816173,7.99630669 C30.3644849,-0.556159897 43.5429826,-2.40378752 54.1114237,3.46850706 Z M41.0763277,39.2657327 C38.5101466,39.2657327 35.9108535,39.3485583 33.3501911,39.5031661 C32.8550589,39.5336153 32.3601786,39.5669779 31.8655758,39.6032496 C32.3410334,40.9416719 32.8961434,42.1937616 33.5267885,43.3407523 C35.6404387,47.2059471 38.2893998,49.3041957 40.988029,49.3041957 C43.6866581,49.3041957 46.3411378,47.1838603 48.454788,43.3407523 C49.0950449,42.1888447 49.6569271,40.9297127 50.1362368,39.5839263 C47.1217248,39.3702547 44.1000355,39.2642768 41.0763277,39.2657327 Z M26.9820039,40.0584086 L25.8358916,40.1911606 C24.9951686,40.293547 24.1555584,40.4043816 23.3171881,40.5236439 C23.9211836,41.3208112 24.5831896,42.0818749 25.301098,42.800623 C26.6221754,44.1232458 28.0865818,45.2565539 29.6540081,46.1891587 C29.5530573,46.0160424 29.4532458,45.839287 29.3546748,45.6598692 C28.4137804,43.9653269 27.6198269,42.0813896 26.9820039,40.0584086 Z M55.0175772,40.022533 L54.8511962,40.5385629 C54.243031,42.3711535 53.5060947,44.0851474 52.6489765,45.6433041 C52.5561454,45.8127883 52.462214,45.9798952 52.3672047,46.144609 L52.4889351,46.0684755 L52.4889351,46.0684755 C54.910348,44.5847111 56.9840918,42.6768491 58.6382956,40.4732418 C57.4335343,40.3042648 56.2264296,40.1547544 55.0175772,40.022533 Z M25.1260862,28.7289796 L24.8427936,28.7640846 C22.8726545,29.0146166 20.908716,29.3114795 18.9526117,29.6544206 C19.2086895,31.8664018 19.7953889,34.0271266 20.6921536,36.0628403 C22.398546,35.7936218 24.1105197,35.5590387 25.8268719,35.3584328 C25.4374934,33.2290767 25.2013529,31.0038676 25.1260862,28.7289796 Z M56.8722019,28.7760681 L56.8642319,29.0638267 C56.7762439,31.216573 56.5426345,33.3213045 56.1720401,35.3405764 C57.8623324,35.533916 59.5492094,35.7608289 61.2317053,36.0202692 C62.1137085,34.0026876 62.6972845,31.846211 62.9468254,29.6175736 C62.7410936,29.5812812 62.5309019,29.5450789 62.3176844,29.5088766 L60.7172705,29.3266603 C59.9667315,29.2051828 59.1775618,29.0892269 58.2173134,28.9567059 C57.7369279,28.8894149 57.2899954,28.8295621 56.8722019,28.7760681 Z M40.7893569,27.7529738 C37.1427475,27.7535457 33.5022456,27.9117083 29.8778775,28.2259103 C29.9354786,30.5318606 30.1779048,32.7723335 30.5907571,34.889886 C31.4140462,34.8240627 32.2382941,34.7660501 33.0632203,34.7158462 C35.7177001,34.550195 38.4108106,34.4728911 41.0763277,34.4728911 C44.5252088,34.4737489 47.9714607,34.6092952 51.4072371,34.8789225 C51.8154306,32.7827349 52.0550268,30.5602139 52.1151615,28.2690529 C48.3496713,27.9288293 44.5707204,27.7573598 40.7893569,27.7529738 Z M26.0550263,17.7802262 L25.8449217,17.8050635 C24.0578013,18.0172635 22.275606,18.2677303 20.4995605,18.5562685 C20.0445295,19.6422551 19.6836362,20.7659416 19.4210707,21.9165297 C19.1930046,22.8658391 19.0293394,23.8215151 18.9284582,24.7778153 C21.0147423,24.4208936 23.1099852,24.1158646 25.211924,23.8616707 C25.3573368,21.7701165 25.6409511,19.730615 26.0550263,17.7802262 Z M29.6477141,8.08495648 L29.4234128,8.21997437 C27.2483683,9.54371991 25.2987218,11.243369 23.6758333,13.2609298 C24.9360025,13.0931777 26.198418,12.9456467 27.4629818,12.8164368 C28.0056798,11.3179731 28.6381874,9.90619799 29.3546748,8.60369445 C29.4511686,8.42823559 29.548857,8.25531669 29.6477141,8.08495648 Z" id="G"></path>
                        </g>
                    </g>
                    <path d="M8.81823913,75.3678646 C11.2191582,75.3160595 13.5540789,76.1592288 15.3723248,77.7346275 L12.749668,80.8971566 C11.6777014,79.9268955 10.2918644,79.3797049 8.84891348,79.3569639 C7.72684249,79.336418 6.65227916,79.811222 5.90928848,80.6558598 C5.1749469,81.4566026 4.75706215,82.4955748 4.72807816,83.5781471 L4.72832609,83.8748627 C4.68584402,85.0770472 5.13252332,86.2447996 5.96552478,87.1092675 C6.79344755,87.9536221 7.9354054,88.4115891 9.11475783,88.3722255 C10.0241168,88.4081171 10.923856,88.1741972 11.7016278,87.6996747 L11.7016278,85.728228 L8.50638326,85.728228 L8.50638326,82.4373494 L15.9346878,82.4373494 L15.9346878,89.7378631 C13.9708443,91.3895894 11.4818828,92.2786136 8.92048696,92.2432434 C6.59552372,92.3185492 4.33518718,91.4678057 2.63224565,89.8764805 C0.970723754,88.324197 0.0575487601,86.1270669 0.127173913,83.8491928 L0.127173913,83.802987 C0.0841389848,81.5472595 0.983305858,79.3764244 2.6066837,77.8167711 C4.2612902,76.1890554 6.50284037,75.3053239 8.81823913,75.3678646 Z M43.0712609,75.3678646 C45.3783907,75.3093705 47.6105034,76.1930176 49.2572543,77.8167711 C50.8839697,79.3569786 51.7927229,81.5118086 51.7623261,83.7567812 L51.7623261,83.802987 C51.7951171,86.0655912 50.8763006,88.2371884 49.2316924,89.7840689 C47.5762899,91.4181378 45.3303097,92.3058672 43.0099122,92.2432434 C40.7014906,92.3086311 38.4654706,91.430456 36.8136939,89.8097388 C35.262161,88.3272099 34.3716285,86.284146 34.3340093,84.1418901 L34.3341841,83.802987 C34.2933418,81.5425186 35.2027455,79.3693725 36.8392559,77.8167711 C38.4985124,76.1833447 40.7487324,75.2991063 43.0712609,75.3678646 Z M24.7280009,75.701573 L24.7280009,87.9769094 L32.555072,87.9769094 L32.555072,91.9146689 L22.1104565,91.9146689 C21.620634,91.9215396 21.1485123,91.7309349 20.799728,91.3855024 C20.4509436,91.04007 20.2546585,90.5686441 20.2546585,90.0767055 L20.2546585,75.701573 L24.7280009,75.701573 Z M63.4134659,75.6913051 C65.3817365,75.6913051 66.8541052,76.1790328 67.8203472,77.1544882 C68.5068814,77.8478399 68.8770044,78.7956383 68.8428254,79.7728159 L68.8428254,79.8190217 C68.8428254,81.5029658 68.0112098,82.7008935 66.3479785,83.4128048 C67.2600465,83.6685234 68.0854575,84.1690558 68.7354652,84.860586 C69.3115023,85.5673357 69.6049209,86.4641191 69.5585602,87.3762342 L69.5585602,87.42244 C69.6031878,88.7191093 68.9962637,89.9515837 67.9430446,90.7030506 C66.8660341,91.4971055 65.3646952,91.894133 63.4390278,91.894133 L55.1262796,91.9146689 L55.1262796,75.6913051 L63.4134659,75.6913051 Z M82.4980226,75.5783576 L89.3741889,91.9146689 L84.5736535,91.9146689 L83.3978035,89.0191065 L77.1657985,89.0191065 L76.010398,91.9146689 L71.3018857,91.9146689 L78.178052,75.5783576 L82.4980226,75.5783576 Z M96.2401304,75.701573 L96.2401304,87.9769094 L104.062089,87.9769094 L104.062089,91.9146689 L93.5765746,91.9146689 C92.5657631,91.9146689 91.7463385,91.0917847 91.7463385,90.0767055 L91.7463385,75.701573 L96.2401304,75.701573 Z M62.9073391,85.3329118 L59.4922617,85.3329118 L59.4922617,88.3208858 L62.9533507,88.3208858 C63.5055163,88.3512571 64.0545137,88.2192269 64.5330796,87.9409716 C64.9041705,87.7004902 65.1202241,87.2802411 65.100555,86.8371667 L65.100555,86.790961 C65.100555,85.8189282 64.369483,85.3329118 62.9073391,85.3329118 Z M43.0099122,79.4288395 C41.8925972,79.3943065 40.8169962,79.8564195 40.0702872,80.6917976 C39.3074151,81.5319551 38.897145,82.6355327 38.9251115,83.7721831 L38.9251115,83.8183889 C38.9053518,84.9573988 39.3227233,86.0603822 40.0907367,86.8987745 C40.8590815,87.715075 41.9268185,88.1797469 43.0453379,88.1846352 C44.1638573,88.1894468 45.2355503,87.7340515 46.0108859,86.9244443 C46.7257358,86.1476445 47.1342104,85.1392664 47.1657349,84.0874669 L47.1662863,83.797853 C47.184861,82.6571517 46.7635393,81.5534111 45.9904363,80.7174675 C45.2320645,79.8713392 44.1431642,79.4005537 43.0099122,79.4288395 Z M80.2843572,80.8971566 L78.4592335,85.5177349 L82.0839189,85.5177349 L80.2843572,80.8971566 Z M62.3858752,79.3107581 L59.4769246,79.3107581 L59.4922617,82.1601147 L62.304077,82.1601147 C63.7219135,82.1601147 64.4308317,81.6877889 64.4308317,80.7431373 L64.4308317,80.6969316 C64.4308317,79.7728159 63.7508837,79.3107581 62.3858752,79.3107581 Z M16.1647454,63.2362795 C17.0240379,63.227781 17.8474772,63.5816414 18.4346472,64.2117349 C19.041536,64.88701 19.3782058,65.7606399 19.3855096,66.6650292 L19.3804396,66.8916704 C19.4409973,67.8852916 19.1021354,68.8617835 18.4397596,69.6024096 C17.8554603,70.2408459 17.0281472,70.5993061 16.1647454,70.588133 C15.305429,70.5983109 14.4905825,70.2053055 13.9613048,69.5254 L13.9613048,72.5749817 L11.9572474,72.5749817 L11.9572474,63.3594949 L13.9613048,63.3594949 L13.9613048,64.3862901 C14.457082,63.6559278 15.2846323,63.2240162 16.1647454,63.2362795 Z M9.01251,62.8409634 C9.86373129,63.6802304 10.3586207,64.8135129 10.4009678,66.004242 L10.4030804,66.2601913 C10.4334517,67.5581629 9.92400995,68.8101696 8.99717283,69.7153571 C8.07427125,70.6597649 6.8021601,71.1767081 5.48496,71.1426024 C4.17550569,71.1837858 2.90760315,70.678201 1.98297196,69.746161 C1.11985156,68.9026647 0.622785018,67.7554612 0.592256867,66.5527417 L0.592401522,66.2858612 C0.567314476,64.9963988 1.07648319,63.7543599 1.99830913,62.8563653 C2.92486322,61.9191794 4.19593297,61.4082333 5.51052196,61.4445219 C6.8193299,61.4070305 8.08582712,61.9120548 9.01251,62.8409634 Z M26.532675,64.3503523 C27.1344523,65.1339239 27.4470239,66.1028135 27.4171187,67.0918954 L27.4171187,67.605293 L27.4171187,67.605293 L22.4683239,67.605293 C22.5396633,68.0069233 22.7496346,68.3704712 23.0613613,68.6320882 C23.3876708,68.8780868 23.7886333,69.0032364 24.1963122,68.9863325 C24.8404593,68.9789988 25.4557864,68.7170724 25.9089633,68.257308 L27.0541389,69.2841031 C26.3584536,70.1731483 25.2804972,70.6733546 24.155413,70.6292048 C23.1689207,70.6623594 22.2113146,70.2917817 21.502082,69.6024096 C20.8102451,68.9041228 20.4396857,67.9477645 20.4796037,66.963546 L20.4796037,66.9327422 C20.4564197,65.9632839 20.8124766,65.0233061 21.4714076,64.3144145 C22.1098586,63.6058771 23.025336,63.2137493 23.9764793,63.2414135 C24.956155,63.1790202 25.9063911,63.5912553 26.532675,64.3503523 Z M70.5605889,64.7918742 L69.4000761,66.0342964 C69.0248943,65.5844358 68.4759993,65.3172379 67.8919207,65.3001378 C67.450713,65.2867814 67.0274149,65.4757083 66.7416326,65.8135354 C66.4738887,66.1233181 66.3148621,66.5108865 66.2859029,66.9169223 L66.2815174,67.0918954 C66.2647733,67.571878 66.4311846,68.0401644 66.746745,68.4010593 C67.0545178,68.7476442 67.5015795,68.9362783 67.9634941,68.9144569 C68.5477238,68.8904644 69.098906,68.6358501 69.4972115,68.2059682 L70.5963757,69.3251749 C70.2659939,69.6945066 69.873089,70.002162 69.4358628,70.2338887 C68.9538796,70.4858796 68.4199174,70.6212523 67.8765835,70.6292048 C66.9608058,70.6459056 66.0772795,70.2897107 65.4272169,69.6417392 C64.7771543,68.9937676 64.4158979,68.1091839 64.4257193,67.189441 L64.4257193,67.1381012 C64.4574669,65.6906245 65.359498,64.4068309 66.7068404,63.8915516 C68.0541828,63.3762724 69.578083,63.7322899 70.5605889,64.7918742 Z M94.5632661,64.6789267 C95.1786128,65.2629435 95.5421108,66.061927 95.5824369,66.9057687 L95.5857443,67.1175653 C95.6108046,68.0538992 95.2392047,68.9569677 94.5632661,69.6024096 C93.1169341,70.9336341 90.8972068,70.9336341 89.4508748,69.6024096 C88.7831829,68.9704675 88.4119218,68.0849996 88.4283965,67.1637711 L88.4283965,67.1381012 C88.4086829,66.2102649 88.7800021,65.3172007 89.4508748,64.6789267 C90.8953048,63.3428006 93.118836,63.3428006 94.5632661,64.6789267 Z M58.6998411,63.7958829 L58.6998411,67.5128814 C58.6734263,67.8797215 58.7786068,68.2439441 58.9963598,68.5396766 C59.2111141,68.7767693 59.5213468,68.9032744 59.8399043,68.883653 C60.1625194,68.9006792 60.4763795,68.7749804 60.6987861,68.5396766 C60.9312809,68.2506951 61.0447087,67.8832544 61.0157543,67.5128814 L61.0157543,63.7958829 L62.8971143,63.7958829 L62.8971143,70.4700516 L61.0157543,70.4700516 L61.0157543,69.5099981 C60.5780977,70.1603294 59.8544155,70.5581226 59.0730457,70.5778651 C58.4513107,70.6155375 57.8448541,70.3749382 57.4166309,69.9207161 C56.9944708,69.415547 56.7821133,68.7665928 56.8235935,68.1084227 L56.8235935,63.7958829 L58.6998411,63.7958829 Z M76.9664152,64.4684337 C77.4836501,65.049515 77.7437981,65.8165788 77.6872624,66.5938998 L77.6872624,70.4546496 L75.8672511,70.4546496 L75.8672511,69.735893 C75.3571246,70.3018246 74.6226477,70.6104031 73.8631937,70.5778651 C73.2778397,70.6054519 72.7017333,70.4235215 72.2374533,70.0644675 C71.8426717,69.7317036 71.6084721,69.2488311 71.5872818,68.7369003 L71.5881796,68.5653465 C71.5478403,67.9459184 71.8207072,67.3477081 72.3141391,66.973814 C72.8922252,66.5983402 73.5747675,66.4184388 74.2619602,66.4604164 C74.8133609,66.4614022 75.3608569,66.5533259 75.8825883,66.7325171 L75.8825883,66.6195696 C75.8825883,65.8084014 75.4071359,65.4028173 74.4562311,65.4028173 C73.8301003,65.4159134 73.210924,65.5374925 72.625995,65.7621957 L72.155655,64.3246824 C72.963368,63.9784258 73.8336537,63.8036338 74.7118507,63.8112848 C75.520856,63.7161993 76.3338219,63.9531585 76.9664152,64.4684337 Z M54.9933574,61.3880482 L54.9933574,70.4546496 L53.1171098,70.4546496 L53.1171098,69.4997301 C52.6570009,70.1789195 51.8901381,70.5832223 51.0721533,70.5778651 C50.2648365,70.5865207 49.491808,70.250625 48.9453985,69.6537494 C48.3721644,69.0216331 48.053542,68.2010865 48.0460802,67.3511151 L48.05073,67.1381012 C48.0034084,66.2152001 48.3213269,65.3109356 48.9351737,64.622453 C49.4851205,64.0245235 50.2616784,63.6887087 51.0721533,63.6983373 C51.8701348,63.6965187 52.6244711,64.0639164 53.1171098,64.6943287 L53.1171098,61.3880482 L54.9933574,61.3880482 Z M81.5982417,62.0965369 L81.5982417,63.7958829 L83.1575211,63.7958829 L83.1575211,65.4130853 L81.5982417,65.4130853 L81.5982417,68.257308 C81.5982417,68.6885619 81.797625,68.9041889 82.2015039,68.9041889 C82.5263353,68.9039836 82.8460399,68.822838 83.1319591,68.668026 L83.1319591,70.1825489 C82.6834374,70.4432894 82.1726576,70.5764044 81.654478,70.5675971 C81.1396388,70.6002301 80.6311473,70.4391685 80.2281209,70.1158072 C79.8510209,69.6966223 79.6656553,69.1381777 79.7168817,68.5756145 L79.7168817,65.4130853 L78.9244611,65.4130853 L78.9244611,63.7958829 L79.7168817,63.7958829 L79.7168817,62.0965369 L81.5982417,62.0965369 Z M34.6920515,63.9447682 C35.1380858,64.4869991 35.3644179,65.1780271 35.325988,65.8802771 L35.325988,70.5008554 L33.3219307,70.5008554 L33.3219307,66.5220241 C33.3472703,66.1378209 33.2348331,65.7571984 33.0049624,65.4490231 C32.7758549,65.1959026 32.4452605,65.0600884 32.1051815,65.0793769 C31.7610527,65.0626422 31.4268057,65.1976555 31.1900635,65.4490231 C30.9468574,65.7511543 30.8263341,66.1344228 30.8526457,66.5220241 L30.8526457,70.4803195 L28.8485883,70.4546496 L28.8485883,63.3594949 L30.8526457,63.3594949 L30.8526457,64.3862901 C31.3162768,63.6898542 32.0891435,63.2644201 32.9231641,63.2465475 C33.586109,63.2082549 34.2325065,63.4634029 34.6920515,63.9447682 Z M102.446573,64.3298164 C102.864486,64.8393553 103.076191,65.4881465 103.039611,66.1472439 L103.039611,70.4546496 L101.158251,70.4546496 L101.158251,66.7427851 C101.189409,66.3754582 101.083752,66.0095853 100.861732,65.7159899 C100.65182,65.4746016 100.341715,65.3454785 100.0233,65.3668795 C99.6998843,65.3511703 99.3858989,65.4787962 99.1644183,65.7159899 C98.9285597,66.0031583 98.8147005,66.3719966 98.84745,66.7427851 L98.84745,70.4546496 L96.96609,70.4546496 L96.96609,63.780481 L98.84745,63.780481 L98.84745,64.7405345 C99.2862793,64.0914977 100.009243,63.6940996 100.790159,63.6726675 C101.411216,63.6392196 102.01597,63.8791432 102.446573,64.3298164 Z M46.7419578,61.7628284 L46.7419578,63.4416386 L42.1050189,63.4416386 L42.1050189,65.2282622 L46.194932,65.2282622 L46.194932,66.9276082 L42.1050189,66.9276082 L42.1050189,68.7553036 L46.8033065,68.7553036 L46.8033065,70.4546496 L40.2134341,70.4546496 L40.2134341,61.7628284 L46.7419578,61.7628284 Z M86.9202411,63.780481 L86.9202411,70.4546496 L85.0439935,70.4546496 L85.0439935,63.780481 L86.9202411,63.780481 Z M73.7507211,67.7593123 C73.5571998,67.8890027 73.434002,68.0980084 73.4111284,68.3265242 L73.4081909,68.4421311 C73.3994816,68.6734041 73.5046254,68.8941785 73.6893724,69.0325383 C73.9029109,69.1934475 74.1637365,69.2783479 74.4306691,69.2738352 C74.8139799,69.291905 75.1916472,69.1757674 75.4991589,68.9452607 C75.759065,68.7470311 75.9091222,68.4361122 75.9030378,68.1084227 L75.9030378,67.7695802 C75.5270642,67.600418 75.1186669,67.5162905 74.7067383,67.5231494 C74.3717722,67.504668 74.0389245,67.5868907 73.7507211,67.7593123 Z M5.48496,63.344093 C4.73030496,63.3216232 4.0030024,63.6287545 3.49112739,64.1860651 C3.02525025,64.6939243 2.75288143,65.3479551 2.71750394,66.0332455 L2.71404391,66.2396554 C2.68398287,67.0292035 2.96926378,67.7980933 3.50646457,68.3753894 C4.01964411,68.9381059 4.75099033,69.2491162 5.51052196,69.2276294 C6.26469439,69.2555445 6.99260627,68.9473657 7.49924217,68.3856573 C8.01633932,67.8295441 8.29697016,67.0927711 8.28143804,66.332067 L8.28143804,66.2858612 C8.29899346,65.5137167 8.01451248,64.765414 7.48901739,64.201467 C6.976769,63.6368527 6.24529481,63.3239141 5.48496,63.344093 Z M51.552718,65.3052718 C51.1129588,65.2991606 50.692597,65.4867769 50.40243,65.8186694 C50.1215714,66.1390456 49.957524,66.5436197 49.9336644,66.9663031 L49.93209,67.1483692 C49.9164748,67.630633 50.0846971,68.1007059 50.40243,68.462667 C50.6935173,68.7924461 51.1113298,68.9812147 51.5501618,68.9812147 C51.9889938,68.9812147 52.4068064,68.7924461 52.6978937,68.462667 C52.9748622,68.1420545 53.1367838,67.739536 53.1611607,67.319166 L53.1631213,67.1381012 C53.180937,66.6548565 53.014555,66.1829806 52.6978937,65.8186694 C52.4101566,65.4864308 51.9911293,65.2985752 51.552718,65.3052718 Z M91.9610589,65.3084494 C91.4893454,65.3084494 91.0376452,65.4998552 90.708523,65.8392053 C90.4323117,66.1480781 90.268852,66.5399358 90.2415028,66.9507809 L90.238183,67.1278333 C90.2334068,67.6111816 90.4168604,68.0772789 90.7494222,68.4267292 C91.0709212,68.7913455 91.5377285,68.9927883 92.0224076,68.9760646 L92.0070704,68.9811986 C92.4776326,69.0014877 92.9334542,68.8138869 93.2544939,68.467801 C93.5695768,68.1124079 93.7377921,67.6496987 93.7248339,67.174039 L93.7248339,67.1381012 C93.7285303,66.6549544 93.5452312,66.1892499 93.2135948,65.8392053 C92.8844726,65.4998552 92.4327724,65.3084494 91.9610589,65.3084494 Z M15.6586187,64.9561614 C15.193524,64.9458846 14.7478543,65.1433338 14.4418696,65.4952289 C14.1346296,65.8370674 13.9556519,66.2735864 13.9321167,66.7299977 L13.9306304,66.9019383 C13.9091645,67.4264364 14.0926211,67.938599 14.4418696,68.3291836 C14.7467885,68.683727 15.1921611,68.884803 15.6586187,68.878519 C16.1273762,68.887016 16.5761184,68.6879847 16.8855926,68.3343176 C17.1967717,67.991219 17.3765628,67.5506094 17.3967838,67.0906004 L17.3968317,66.9173402 C17.4167348,66.3992508 17.2331306,65.8940515 16.8855926,65.5106308 C16.5784663,65.1525688 16.1291669,64.9495304 15.6586187,64.9561614 Z M23.9560298,64.83808 C23.5737682,64.824014 23.2030559,64.9710636 22.9335515,65.2436641 C22.6580043,65.5503318 22.4862008,65.9367245 22.442762,66.3474689 L25.4590728,66.3474689 C25.4198812,65.9390924 25.2514654,65.5540589 24.978508,65.2487981 C24.7124574,64.9704522 24.3398428,64.8207771 23.9560298,64.83808 Z M86.971365,61.3880482 L86.971365,63.0668583 L84.9928696,63.0668583 L84.9928696,61.3880482 L86.971365,61.3880482 Z" id="type"></path>
                </g>
            </g>
        </g>
    </g>
</svg>